<svg xmlns="http://www.w3.org/2000/svg" width="33.75" height="40" viewBox="0 0 33.75 40">
  <g id="verified" transform="translate(-40 0)">
    <path id="Path_2042" data-name="Path 2042" d="M72.787,6.477,57.474.12a1.562,1.562,0,0,0-1.2,0L40.963,6.477A1.563,1.563,0,0,0,40,7.92v7.729A26.167,26.167,0,0,0,56.285,39.884a1.563,1.563,0,0,0,1.181,0A26.167,26.167,0,0,0,73.75,15.649V7.92A1.562,1.562,0,0,0,72.787,6.477Zm-2.162,9.172A23.047,23.047,0,0,1,56.875,36.74a23.048,23.048,0,0,1-13.75-21.092V8.963l13.75-5.709,13.75,5.709ZM55.148,20.915,61.864,14.2a1.562,1.562,0,1,1,2.21,2.21L56.253,24.23a1.562,1.562,0,0,1-2.21,0l-4.367-4.367a1.562,1.562,0,0,1,2.21-2.21Z" transform="translate(0 0)" fill="#29c489"/>
  </g>
</svg>
