<svg xmlns="http://www.w3.org/2000/svg" width="32.817" height="30" viewBox="0 0 32.817 30">
  <g id="warning" transform="translate(0 -20.882)">
    <g id="Group_1672" data-name="Group 1672" transform="translate(0 20.882)">
      <path id="Path_2043" data-name="Path 2043" d="M219.922,333.382a1.7,1.7,0,1,0,0,3.394,1.7,1.7,0,0,0,0-3.394Z" transform="translate(-203.513 -312.317)" fill="#fd2121"/>
      <path id="Path_2044" data-name="Path 2044" d="M32.018,47.941a5.759,5.759,0,0,0,.013-5.829l-10.564-18.3a5.821,5.821,0,0,0-10.106-.007L.784,42.126a5.843,5.843,0,0,0,5.06,8.756h21.1A5.81,5.81,0,0,0,32.018,47.941Zm-2.294-1.322a3.188,3.188,0,0,1-2.786,1.612H5.837a3.144,3.144,0,0,1-2.752-1.579,3.192,3.192,0,0,1-.007-3.218L13.655,25.125a3.177,3.177,0,0,1,5.518.007L29.745,43.441A3.15,3.15,0,0,1,29.725,46.618Z" transform="translate(0 -20.882)" fill="#fd2121"/>
      <path id="Path_2045" data-name="Path 2045" d="M219.035,157.224a1.845,1.845,0,0,0-1.31,1.853c.041.536.075,1.079.115,1.615.115,2.043.231,4.045.346,6.088a1.243,1.243,0,0,0,1.269,1.195,1.269,1.269,0,0,0,1.269-1.235c0-.421,0-.808.041-1.235.075-1.31.156-2.62.231-3.93.041-.848.115-1.7.156-2.545a2.1,2.1,0,0,0-.156-.848A1.7,1.7,0,0,0,219.035,157.224Z" transform="translate(-203.047 -148.013)" fill="#fd2121"/>
    </g>
  </g>
</svg>
