<svg id="_001-checked" data-name="001-checked" xmlns="http://www.w3.org/2000/svg" width="20.004" height="20.004" viewBox="0 0 20.004 20.004">
  <g id="Group_209" data-name="Group 209" transform="translate(4.75 2.513)">
    <g id="Group_208" data-name="Group 208">
      <path id="Path_3896" data-name="Path 3896" d="M136.25,64.549a.754.754,0,0,0-1.066,0l-9.045,9.021-3.263-3.544a.754.754,0,0,0-1.109,1.021l3.795,4.121a.753.753,0,0,0,.539.243h.016a.755.755,0,0,0,.532-.22l9.6-9.575A.754.754,0,0,0,136.25,64.549Z" transform="translate(-121.568 -64.327)" fill="#06bf88"/>
    </g>
  </g>
  <g id="Group_211" data-name="Group 211">
    <g id="Group_210" data-name="Group 210">
      <path id="Path_3897" data-name="Path 3897" d="M19.25,9.248A.754.754,0,0,0,18.5,10,8.494,8.494,0,1,1,10,1.508.754.754,0,1,0,10,0,10,10,0,1,0,20,10,.754.754,0,0,0,19.25,9.248Z" fill="#06bf88"/>
    </g>
  </g>
</svg>
