<svg xmlns="http://www.w3.org/2000/svg" width="35.573" height="35.005" viewBox="0 0 35.573 35.005">
  <g id="wallet_1" transform="translate(-0.5 -0.5)">
    <path id="Path_1057" data-name="Path 1057" d="M33.7,16.754v-3.78a3.561,3.561,0,0,0-3.557-3.557H28.958V4.627A3.554,3.554,0,0,0,24.083,1.32l-5.5,2.2A10.651,10.651,0,0,0,.5,11.172a10.4,10.4,0,0,0,.113,1.115,2.671,2.671,0,0,0-.113.688V31.947A3.561,3.561,0,0,0,4.057,35.5H30.144A3.561,3.561,0,0,0,33.7,31.947V28.176a3.552,3.552,0,0,0,2.372-3.339V20.094A3.552,3.552,0,0,0,33.7,16.754ZM24.958,3.523a1.185,1.185,0,0,1,1.629,1.1v4.79h-4.92a10.573,10.573,0,0,0-1.52-3.972ZM11.172,2.872a8.3,8.3,0,1,1-8.3,8.3,8.3,8.3,0,0,1,8.3-8.3ZM30.144,33.133H4.057a1.187,1.187,0,0,1-1.186-1.186l.014-14.133a10.594,10.594,0,0,0,18.9-6.025h8.362a1.187,1.187,0,0,1,1.186,1.186v3.561H27.773a3.561,3.561,0,0,0-3.557,3.557v4.743a3.561,3.561,0,0,0,3.557,3.557H31.33v3.553A1.187,1.187,0,0,1,30.144,33.133Zm3.557-8.3a1.186,1.186,0,0,1-1.174,1.183l-.011,0-.024,0H27.773a1.187,1.187,0,0,1-1.186-1.186V20.094a1.187,1.187,0,0,1,1.186-1.186h4.743A1.187,1.187,0,0,1,33.7,20.094Z" transform="translate(0 0)" fill="#0b0a24"/>
    <path id="Path_1058" data-name="Path 1058" d="M4.186,8.929H6.557V11.3a1.186,1.186,0,1,0,2.372,0V8.929H11.3a1.186,1.186,0,1,0,0-2.372H8.929V4.186a1.186,1.186,0,0,0-2.372,0V6.557H4.186a1.186,1.186,0,0,0,0,2.372Z" transform="translate(3.429 3.429)" fill="#0b0a24"/>
  </g>
</svg>
