<svg xmlns="http://www.w3.org/2000/svg" width="9.781" height="11.997" viewBox="0 0 9.781 11.997">
  <g id="apple" transform="translate(-2.104)">
    <g id="Group_2646" data-name="Group 2646" transform="translate(2.104)">
      <path id="Path_3137" data-name="Path 3137" d="M13.673,0h.085a2.569,2.569,0,0,1-.647,1.936,2.005,2.005,0,0,1-1.765.829A2.492,2.492,0,0,1,12,.889,2.844,2.844,0,0,1,13.673,0Z" transform="translate(-6.474)" fill="#fd4949"/>
      <path id="Path_3138" data-name="Path 3138" d="M11.885,11.4v.024a6.98,6.98,0,0,1-1,1.925c-.381.524-.848,1.23-1.681,1.23-.72,0-1.2-.463-1.937-.476-.781-.013-1.21.387-1.924.488H5.1a2.174,2.174,0,0,1-1.255-.865A7.578,7.578,0,0,1,2.1,9.371V8.834A3.516,3.516,0,0,1,3.639,5.948a2.592,2.592,0,0,1,1.741-.4,4.378,4.378,0,0,1,.853.244,2.355,2.355,0,0,0,.852.255,2.046,2.046,0,0,0,.6-.183,3.679,3.679,0,0,1,1.924-.341A2.669,2.669,0,0,1,11.568,6.69a2.517,2.517,0,0,0-1.279,2.5A2.578,2.578,0,0,0,11.885,11.4Z" transform="translate(-2.104 -2.599)" fill="#fd4949"/>
    </g>
  </g>
</svg>
