<svg xmlns="http://www.w3.org/2000/svg" width="24.622" height="30.018" viewBox="0 0 24.622 30.018">
  <g id="apple_icon" transform="translate(-46.022)">
    <path id="Path_15" data-name="Path 15" d="M54.185,141.06c-4.468-.026-8.163-9.146-8.163-13.79,0-7.587,5.691-9.248,7.885-9.248a9.073,9.073,0,0,1,2.975.732,6.65,6.65,0,0,0,1.7.487,5.287,5.287,0,0,0,1.219-.4,9.767,9.767,0,0,1,3.673-.888h.009a7.529,7.529,0,0,1,6.3,3.182l.459.69-.661.5a5.565,5.565,0,0,0-2.668,4.589,5.179,5.179,0,0,0,2.89,4.788c.414.249.843.506.843,1.068,0,.367-2.927,8.241-7.177,8.241a5.772,5.772,0,0,1-2.424-.588,4.915,4.915,0,0,0-2.157-.52,5.549,5.549,0,0,0-1.708.462,8.367,8.367,0,0,1-2.963.691Z" transform="translate(0 -111.042)" fill="#fff"/>
    <path id="Path_16" data-name="Path 16" d="M260.794,0c.111,3.991-2.744,6.76-5.595,6.587C254.729,3.4,258.05,0,260.794,0Z" transform="translate(-196.871)" fill="#fff"/>
  </g>
</svg>
