<svg xmlns="http://www.w3.org/2000/svg" width="12" height="12" xmlns:v="https://vecta.io/nano"><g fill="rgb(81.960784%,25.882353%,25.882353%)"><path d="M2.266 3.336c-.18 0-.344-.125-.383-.309l-.074-.332a.95.95 0 0 0-.926-.746H.484c-.215 0-.391-.176-.391-.395S.27 1.16.484 1.16h.398c.809 0 1.523.574 1.695 1.367l.074.332c.047.211-.086.422-.301.469a.57.57 0 0 1-.086.008zm6.297 6.43v-.051a1.3 1.3 0 0 1 .223-.734H5.707a1.3 1.3 0 0 1 .223.734c0 .016 0 .035-.004.051zm-5.258-.051a1.3 1.3 0 0 1 .227-.738.36.36 0 0 1-.328-.359c0-.199.16-.363.359-.363.219 0 .395-.176.395-.395a.39.39 0 0 0-.395-.391 1.15 1.15 0 0 0-1.148 1.148c0 .547.383 1.004.891 1.121v-.023zm0 0"/><path d="M10.16 8.254H3.348a.4.4 0 0 1-.387-.309L1.883 3.027c-.023-.117.004-.238.078-.332s.188-.148.309-.148h9.246c.109 0 .219.051.293.133s.109.195.098.305l-.453 4.109a1.3 1.3 0 0 1-1.293 1.16zm-6.496-.785h6.496c.262 0 .484-.199.512-.461l.402-3.672H2.758zm0 0"/><path d="M7.16 8.254c-.219 0-.395-.176-.395-.395V2.941c0-.215.176-.395.395-.395s.395.18.395.395v4.918c0 .219-.176.395-.395.395zm1.891 0h-.035c-.215-.02-.375-.207-.359-.426l.406-4.918a.39.39 0 0 1 .426-.359c.219.02.375.207.359.426l-.406 4.918a.39.39 0 0 1-.391.359zm-3.781 0c-.195 0-.367-.148-.391-.352L4.34 2.984c-.023-.215.133-.41.348-.434a.4.4 0 0 1 .438.348l.539 4.918c.023.219-.133.414-.348.438H5.27zm0 0"/><path d="M11.246 5.797H2.809c-.219 0-.395-.176-.395-.395s.176-.395.395-.395h8.438c.215 0 .391.176.391.395s-.176.395-.391.395zm0 0"/></g><path d="M5.535 9.711a.92.92 0 0 1-.918.922.92.92 0 0 1 0-1.84.92.92 0 0 1 .918.918zm5.258 0c0 .508-.414.922-.922.922a.92.92 0 0 1 0-1.84c.508 0 .922.414.922.918zm0 0" fill="rgb(62.745098%,20%,20%)"/></svg>