<svg xmlns="http://www.w3.org/2000/svg" width="9.426" height="11.997" viewBox="0 0 9.426 11.997">
  <path id="compare" d="M19.957,41.426H18.779v-9A.428.428,0,0,0,18.35,32h-.428a.428.428,0,0,0-.428.428v9H16.315a.321.321,0,0,0-.234.542L17.9,43.9a.321.321,0,0,0,.467,0l1.821-1.928a.321.321,0,0,0-.233-.542Zm5.375-7.4L23.511,32.1a.321.321,0,0,0-.467,0l-1.821,1.928a.321.321,0,0,0,.234.542h1.178v9a.428.428,0,0,0,.428.428h.428a.428.428,0,0,0,.428-.428v-9H25.1a.321.321,0,0,0,.234-.542Z" transform="translate(-15.993 -32)" fill="#fd4949"/>
</svg>
