<?xml version="1.0" encoding="UTF-8"?>
<svg xmlns="http://www.w3.org/2000/svg" xmlns:xlink="http://www.w3.org/1999/xlink" width="15px" height="15px" viewBox="0 0 15 15" version="1.1">
<g id="surface1">
<path style=" stroke:none;fill-rule:nonzero;fill:rgb(99.215686%,99.215686%,99.215686%);fill-opacity:1;" d="M 13.90625 5.75 C 13.664062 5.566406 13.453125 5.34375 13.28125 5.09375 C 13.203125 4.789062 13.195312 4.46875 13.25 4.15625 C 13.394531 3.46875 13.238281 2.75 12.8125 2.1875 C 12.25 1.765625 11.53125 1.605469 10.84375 1.75 C 10.53125 1.789062 10.214844 1.78125 9.90625 1.71875 C 9.71875 1.65625 9.46875 1.34375 9.25 1.09375 C 8.847656 0.5 8.210938 0.101562 7.5 0 C 6.789062 0.101562 6.152344 0.5 5.75 1.09375 C 5.566406 1.335938 5.34375 1.546875 5.09375 1.71875 C 4.789062 1.796875 4.46875 1.804688 4.15625 1.75 C 3.46875 1.625 2.757812 1.78125 2.1875 2.1875 C 1.765625 2.75 1.605469 3.46875 1.75 4.15625 C 1.789062 4.46875 1.78125 4.785156 1.71875 5.09375 C 1.65625 5.28125 1.34375 5.53125 1.09375 5.75 C 0.5 6.152344 0.101562 6.789062 0 7.5 C 0.101562 8.210938 0.5 8.847656 1.09375 9.25 C 1.335938 9.433594 1.546875 9.65625 1.71875 9.90625 C 1.796875 10.210938 1.804688 10.53125 1.75 10.84375 C 1.625 11.53125 1.78125 12.242188 2.1875 12.8125 C 2.75 13.234375 3.46875 13.394531 4.15625 13.25 C 4.46875 13.210938 4.785156 13.21875 5.09375 13.28125 C 5.28125 13.34375 5.53125 13.65625 5.75 13.90625 C 6.152344 14.5 6.789062 14.898438 7.5 15 C 8.210938 14.898438 8.847656 14.5 9.25 13.90625 C 9.433594 13.664062 9.65625 13.453125 9.90625 13.28125 C 10.210938 13.203125 10.53125 13.195312 10.84375 13.25 C 11.53125 13.394531 12.25 13.238281 12.8125 12.8125 C 13.234375 12.25 13.394531 11.53125 13.25 10.84375 C 13.210938 10.53125 13.21875 10.214844 13.28125 9.90625 C 13.34375 9.71875 13.65625 9.46875 13.90625 9.25 C 14.5 8.847656 14.898438 8.210938 15 7.5 C 14.898438 6.789062 14.5 6.152344 13.90625 5.75 Z M 13.0625 8.28125 C 12.667969 8.578125 12.347656 8.964844 12.125 9.40625 C 11.972656 9.890625 11.929688 10.402344 12 10.90625 C 12.03125 11.25 12.0625 11.78125 11.9375 11.90625 C 11.8125 12.03125 11.28125 12 10.9375 11.96875 C 10.433594 11.898438 9.921875 11.941406 9.4375 12.09375 C 9 12.324219 8.617188 12.644531 8.3125 13.03125 C 8.03125 13.34375 7.6875 13.75 7.5 13.75 C 7.3125 13.75 6.96875 13.34375 6.71875 13.0625 C 6.429688 12.660156 6.042969 12.339844 5.59375 12.125 C 5.296875 12.007812 4.976562 11.953125 4.65625 11.96875 C 4.457031 11.964844 4.257812 11.976562 4.0625 12 C 3.71875 12.03125 3.1875 12.0625 3.0625 11.9375 C 2.9375 11.8125 2.96875 11.28125 3 10.9375 C 3.070312 10.433594 3.027344 9.921875 2.875 9.4375 C 2.644531 9 2.324219 8.617188 1.9375 8.3125 C 1.65625 8.03125 1.25 7.6875 1.25 7.5 C 1.25 7.3125 1.65625 6.96875 1.9375 6.71875 C 2.332031 6.421875 2.652344 6.035156 2.875 5.59375 C 3.027344 5.109375 3.070312 4.597656 3 4.09375 C 2.96875 3.75 2.9375 3.21875 3.0625 3.09375 C 3.1875 2.96875 3.71875 3 4.0625 3.03125 C 4.566406 3.101562 5.078125 3.058594 5.5625 2.90625 C 6 2.675781 6.382812 2.355469 6.6875 1.96875 C 6.96875 1.65625 7.3125 1.25 7.5 1.25 C 7.6875 1.25 8.03125 1.65625 8.28125 1.9375 C 8.570312 2.339844 8.957031 2.664062 9.40625 2.875 C 9.890625 3.027344 10.402344 3.070312 10.90625 3 C 11.25 2.96875 11.78125 2.9375 11.90625 3.0625 C 12.03125 3.1875 12 3.71875 11.96875 4.0625 C 11.898438 4.566406 11.941406 5.078125 12.09375 5.5625 C 12.324219 6 12.644531 6.382812 13.03125 6.6875 C 13.3125 6.9375 13.71875 7.28125 13.71875 7.46875 C 13.71875 7.65625 13.34375 8.03125 13.0625 8.28125 Z M 13.0625 8.28125 "/>
<path style=" stroke:none;fill-rule:nonzero;fill:rgb(99.215686%,99.215686%,99.215686%);fill-opacity:1;" d="M 5.355469 8.761719 L 8.738281 5.378906 L 9.621094 6.261719 L 6.238281 9.644531 Z M 5.355469 8.761719 "/>
<path style=" stroke:none;fill-rule:nonzero;fill:rgb(99.215686%,99.215686%,99.215686%);fill-opacity:1;" d="M 6.996094 5.996094 C 6.996094 6.546875 6.546875 6.996094 5.996094 6.996094 C 5.441406 6.996094 4.996094 6.546875 4.996094 5.996094 C 4.996094 5.441406 5.441406 4.996094 5.996094 4.996094 C 6.546875 4.996094 6.996094 5.441406 6.996094 5.996094 Z M 6.996094 5.996094 "/>
<path style=" stroke:none;fill-rule:nonzero;fill:rgb(99.215686%,99.215686%,99.215686%);fill-opacity:1;" d="M 9.996094 8.996094 C 9.996094 9.546875 9.546875 9.996094 8.996094 9.996094 C 8.441406 9.996094 7.996094 9.546875 7.996094 8.996094 C 7.996094 8.441406 8.441406 7.996094 8.996094 7.996094 C 9.546875 7.996094 9.996094 8.441406 9.996094 8.996094 Z M 9.996094 8.996094 "/>
</g>
</svg>
