<svg id="deals" xmlns="http://www.w3.org/2000/svg" width="15" height="15" viewBox="0 0 15 15">
  <path id="Path_3131" data-name="Path 3131" d="M13.906,5.75a2.972,2.972,0,0,1-.625-.656,2.246,2.246,0,0,1-.031-.937,2.435,2.435,0,0,0-.437-1.969,2.435,2.435,0,0,0-1.969-.437,2.94,2.94,0,0,1-.937-.031c-.187-.063-.437-.375-.656-.625A2.557,2.557,0,0,0,7.5,0,2.557,2.557,0,0,0,5.75,1.094a2.972,2.972,0,0,1-.656.625,2.246,2.246,0,0,1-.937.031,2.587,2.587,0,0,0-1.969.438A2.435,2.435,0,0,0,1.75,4.156a2.94,2.94,0,0,1-.031.937c-.063.188-.375.438-.625.656A2.557,2.557,0,0,0,0,7.5,2.557,2.557,0,0,0,1.094,9.25a2.972,2.972,0,0,1,.625.656,2.246,2.246,0,0,1,.031.937,2.587,2.587,0,0,0,.438,1.969,2.435,2.435,0,0,0,1.969.438,2.94,2.94,0,0,1,.937.031c.188.062.438.375.656.625A2.557,2.557,0,0,0,7.5,15a2.557,2.557,0,0,0,1.75-1.094,2.972,2.972,0,0,1,.656-.625,2.246,2.246,0,0,1,.937-.031,2.435,2.435,0,0,0,1.969-.437,2.435,2.435,0,0,0,.438-1.969,2.94,2.94,0,0,1,.031-.937c.062-.187.375-.437.625-.656A2.557,2.557,0,0,0,15,7.5,2.557,2.557,0,0,0,13.906,5.75Zm-.844,2.531a3.232,3.232,0,0,0-.937,1.125,3.465,3.465,0,0,0-.125,1.5c.031.344.062.875-.063,1s-.656.094-1,.062a3.465,3.465,0,0,0-1.5.125,3.539,3.539,0,0,0-1.125.938c-.281.313-.625.719-.812.719s-.531-.406-.781-.688a2.975,2.975,0,0,0-1.125-.937,2.277,2.277,0,0,0-.937-.156A3.984,3.984,0,0,0,4.062,12c-.344.031-.875.062-1-.062s-.094-.656-.062-1a3.465,3.465,0,0,0-.125-1.5,3.539,3.539,0,0,0-.937-1.125c-.281-.281-.688-.625-.688-.812s.406-.531.688-.781a3.232,3.232,0,0,0,.937-1.125A3.465,3.465,0,0,0,3,4.094c-.031-.344-.062-.875.062-1s.656-.094,1-.062a3.465,3.465,0,0,0,1.5-.125,3.539,3.539,0,0,0,1.125-.937c.281-.313.625-.719.813-.719s.531.406.781.688a2.975,2.975,0,0,0,1.125.937,3.465,3.465,0,0,0,1.5.125c.344-.031.875-.063,1,.062s.094.656.062,1a3.465,3.465,0,0,0,.125,1.5,3.539,3.539,0,0,0,.938,1.125c.281.25.688.594.688.781s-.375.562-.656.812Z" transform="translate(0 0)" fill="#fd4949"/>
  <path id="Path_3132" data-name="Path 3132" d="M0,0H4.784V1.251H0Z" transform="translate(5.354 8.76) rotate(-45)" fill="#fd4949"/>
  <g id="Group_2644" data-name="Group 2644" transform="translate(4.995 4.995)">
    <circle id="Ellipse_105" data-name="Ellipse 105" cx="1" cy="1" r="1" fill="#fd4949"/>
    <circle id="Ellipse_106" data-name="Ellipse 106" cx="1" cy="1" r="1" transform="translate(3 3)" fill="#fd4949"/>
  </g>
</svg>
