<svg xmlns="http://www.w3.org/2000/svg" width="27.647" height="30.202" viewBox="0 0 27.647 30.202">
  <g id="google_play" transform="translate(-12.259 0)">
    <path id="Path_11" data-name="Path 11" d="M12.38,13.689a3.01,3.01,0,0,0-.121.839V40.2a3.053,3.053,0,0,0,.119.828L26.788,27.38Z" transform="translate(0 -12.262)" fill="#23d3ff"/>
    <path id="Path_12" data-name="Path 12" d="M44.774,9.789,27.949.43A2.464,2.464,0,0,0,26.06.061l14.471,13.75Z" transform="translate(-12.363 0)" fill="#27ef77"/>
    <path id="Path_13" data-name="Path 13" d="M187.01,105.559l-4.491-2.5-4.6,4.357,4.685,4.454,4.369-2.4C189.106,108.257,188.328,106.3,187.01,105.559Z" transform="translate(-148.395 -92.32)" fill="#fecd00"/>
    <path id="Path_14" data-name="Path 14" d="M25.65,171.126a2.442,2.442,0,0,0,1.931-.355L44.457,161.5l-4.32-4.1Z" transform="translate(-11.995 -140.995)" fill="#f53545"/>
  </g>
</svg>
