<svg xmlns="http://www.w3.org/2000/svg" xmlns:xlink="http://www.w3.org/1999/xlink" width="20" height="20" viewBox="0 0 20 20">
  <defs>
    <clipPath id="clip-path">
      <circle id="Ellipse_87" data-name="Ellipse 87" cx="10" cy="10" r="10" transform="translate(1265 51.5)" fill="#d6d6d6"/>
    </clipPath>
  </defs>
  <g id="language" transform="translate(-1262 -48.5)">
    <g id="Mask_Group_86" data-name="Mask Group 86" transform="translate(-3 -3)" clip-path="url(#clip-path)">
      <g id="united-states" transform="translate(1265 -36.776)">
        <path id="Path_1856" data-name="Path 1856" d="M30,108.276H.526A.526.526,0,0,1,0,107.75V88.8a.526.526,0,0,1,.526-.526H30a.526.526,0,0,1,.526.526V107.75A.526.526,0,0,1,30,108.276Z" fill="#f5f5f5"/>
        <g id="Group_1581" data-name="Group 1581" transform="translate(0 88.276)">
          <path id="Path_1857" data-name="Path 1857" d="M30.526,89.815H0V88.8a.526.526,0,0,1,.526-.526H30a.526.526,0,0,1,.526.526v1.012Z" transform="translate(0 -88.276)" fill="#ff4b55"/>
          <rect id="Rectangle_1133" data-name="Rectangle 1133" width="30.526" height="1.538" transform="translate(0 6.154)" fill="#ff4b55"/>
          <rect id="Rectangle_1134" data-name="Rectangle 1134" width="30.526" height="1.538" transform="translate(0 3.077)" fill="#ff4b55"/>
          <path id="Path_1858" data-name="Path 1858" d="M30.526,244.637h-30A.526.526,0,0,1,0,244.11V243.1H30.526Z" transform="translate(0 -233.867)" fill="#ff4b55"/>
          <rect id="Rectangle_1135" data-name="Rectangle 1135" width="30.526" height="1.538" transform="translate(0 15.385)" fill="#ff4b55"/>
          <path id="Path_1859" data-name="Path 1859" d="M30,399.459H.526A.526.526,0,0,1,0,398.933v-1.012H30.526v1.012A.526.526,0,0,1,30,399.459Z" transform="translate(0 -379.459)" fill="#ff4b55"/>
          <rect id="Rectangle_1136" data-name="Rectangle 1136" width="30.526" height="1.538" transform="translate(0 12.308)" fill="#ff4b55"/>
        </g>
        <path id="Path_1860" data-name="Path 1860" d="M13.684,88.277H.526A.526.526,0,0,0,0,88.8V98.52a.526.526,0,0,0,.526.526H13.684a.526.526,0,0,0,.526-.526V88.8A.526.526,0,0,0,13.684,88.277Z" transform="translate(0 -0.001)" fill="#41479b"/>
        <g id="Group_1582" data-name="Group 1582" transform="translate(0.85 89.45)">
          <path id="Path_1861" data-name="Path 1861" d="M14.881,108l.117.349.368,0a.05.05,0,0,1,.029.09l-.3.219.111.351a.05.05,0,0,1-.076.055l-.3-.214-.3.214a.05.05,0,0,1-.076-.055l.111-.351-.3-.219a.05.05,0,0,1,.029-.09l.368,0,.117-.349A.05.05,0,0,1,14.881,108Z" transform="translate(-14.253 -107.969)" fill="#f5f5f5"/>
          <path id="Path_1862" data-name="Path 1862" d="M14.881,138.658l.117.349.368,0a.05.05,0,0,1,.029.09l-.3.219.111.351a.05.05,0,0,1-.076.055l-.3-.214-.3.214a.05.05,0,0,1-.076-.055l.111-.351-.3-.219a.05.05,0,0,1,.029-.09l.368,0,.117-.349A.05.05,0,0,1,14.881,138.658Z" transform="translate(-14.253 -136.796)" fill="#f5f5f5"/>
          <path id="Path_1863" data-name="Path 1863" d="M14.881,169.312l.117.349.368,0a.05.05,0,0,1,.029.09l-.3.219.111.351a.05.05,0,0,1-.076.055l-.3-.214-.3.214a.05.05,0,0,1-.076-.055l.111-.351-.3-.219a.05.05,0,0,1,.029-.09l.368,0,.117-.349A.05.05,0,0,1,14.881,169.312Z" transform="translate(-14.253 -165.622)" fill="#f5f5f5"/>
          <path id="Path_1864" data-name="Path 1864" d="M14.881,199.966l.117.349.368,0a.05.05,0,0,1,.029.09l-.3.219.111.351a.05.05,0,0,1-.076.055l-.3-.214-.3.214a.05.05,0,0,1-.076-.055l.111-.351-.3-.219a.05.05,0,0,1,.029-.09l.368,0,.117-.349A.05.05,0,0,1,14.881,199.966Z" transform="translate(-14.253 -194.449)" fill="#f5f5f5"/>
          <path id="Path_1865" data-name="Path 1865" d="M14.881,230.619l.117.349.368,0a.05.05,0,0,1,.029.09l-.3.219.111.351a.05.05,0,0,1-.076.055l-.3-.214-.3.214a.05.05,0,0,1-.076-.055l.111-.351-.3-.219a.05.05,0,0,1,.029-.09l.368,0,.117-.349A.05.05,0,0,1,14.881,230.619Z" transform="translate(-14.253 -223.275)" fill="#f5f5f5"/>
          <path id="Path_1866" data-name="Path 1866" d="M38.674,123.032l.117.349.368,0a.05.05,0,0,1,.029.09l-.3.219.111.351a.05.05,0,0,1-.076.055l-.3-.214-.3.214a.05.05,0,0,1-.076-.055l.111-.351-.3-.219a.05.05,0,0,1,.029-.09l.368,0,.117-.349A.05.05,0,0,1,38.674,123.032Z" transform="translate(-36.627 -122.102)" fill="#f5f5f5"/>
          <path id="Path_1867" data-name="Path 1867" d="M38.674,153.687l.117.349.368,0a.05.05,0,0,1,.029.09l-.3.219L39,154.7a.05.05,0,0,1-.076.055l-.3-.214-.3.214a.05.05,0,0,1-.076-.055l.111-.351-.3-.219a.05.05,0,0,1,.029-.09l.368,0,.117-.349A.05.05,0,0,1,38.674,153.687Z" transform="translate(-36.627 -150.929)" fill="#f5f5f5"/>
          <path id="Path_1868" data-name="Path 1868" d="M38.674,184.341l.117.349.368,0a.05.05,0,0,1,.029.09l-.3.219.111.351a.05.05,0,0,1-.076.055l-.3-.214-.3.214a.05.05,0,0,1-.076-.055l.111-.351-.3-.219a.05.05,0,0,1,.029-.09l.368,0,.117-.349A.05.05,0,0,1,38.674,184.341Z" transform="translate(-36.627 -179.755)" fill="#f5f5f5"/>
          <path id="Path_1869" data-name="Path 1869" d="M38.674,215l.117.349.368,0a.05.05,0,0,1,.029.09l-.3.219.111.351a.05.05,0,0,1-.076.055l-.3-.214-.3.214a.05.05,0,0,1-.076-.055l.111-.351-.3-.219a.05.05,0,0,1,.029-.09l.368,0L38.58,215A.05.05,0,0,1,38.674,215Z" transform="translate(-36.627 -208.582)" fill="#f5f5f5"/>
          <path id="Path_1870" data-name="Path 1870" d="M62.467,108l.117.349.368,0a.05.05,0,0,1,.029.09l-.3.219.111.351a.05.05,0,0,1-.076.055l-.3-.214-.3.214a.05.05,0,0,1-.076-.055l.111-.351-.3-.219a.05.05,0,0,1,.029-.09l.368,0,.117-.349A.05.05,0,0,1,62.467,108Z" transform="translate(-59.001 -107.969)" fill="#f5f5f5"/>
          <path id="Path_1871" data-name="Path 1871" d="M62.467,138.657l.117.349.368,0a.05.05,0,0,1,.029.09l-.3.219.111.351a.05.05,0,0,1-.076.055l-.3-.214-.3.214a.05.05,0,0,1-.076-.055l.111-.351-.3-.219a.05.05,0,0,1,.029-.09l.368,0,.117-.349A.05.05,0,0,1,62.467,138.657Z" transform="translate(-59.001 -136.796)" fill="#f5f5f5"/>
          <path id="Path_1872" data-name="Path 1872" d="M62.467,169.311l.117.349.368,0a.05.05,0,0,1,.029.09l-.3.219.111.351a.05.05,0,0,1-.076.055l-.3-.214-.3.214a.05.05,0,0,1-.076-.055l.111-.351-.3-.219a.05.05,0,0,1,.029-.09l.368,0,.117-.349A.05.05,0,0,1,62.467,169.311Z" transform="translate(-59.001 -165.622)" fill="#f5f5f5"/>
          <path id="Path_1873" data-name="Path 1873" d="M62.467,199.966l.117.349.368,0a.05.05,0,0,1,.029.09l-.3.219.111.351a.05.05,0,0,1-.076.055l-.3-.214-.3.214a.05.05,0,0,1-.076-.055l.111-.351-.3-.219a.05.05,0,0,1,.029-.09l.368,0,.117-.349A.05.05,0,0,1,62.467,199.966Z" transform="translate(-59.001 -194.449)" fill="#f5f5f5"/>
          <path id="Path_1874" data-name="Path 1874" d="M62.467,230.619l.117.349.368,0a.05.05,0,0,1,.029.09l-.3.219.111.351a.05.05,0,0,1-.076.055l-.3-.214-.3.214a.05.05,0,0,1-.076-.055l.111-.351-.3-.219a.05.05,0,0,1,.029-.09l.368,0,.117-.349A.05.05,0,0,1,62.467,230.619Z" transform="translate(-59.001 -223.274)" fill="#f5f5f5"/>
          <path id="Path_1875" data-name="Path 1875" d="M86.261,123.032l.116.349.368,0a.05.05,0,0,1,.029.09l-.3.219.111.351a.05.05,0,0,1-.076.055l-.3-.214-.3.214a.05.05,0,0,1-.076-.055l.111-.351-.3-.219a.05.05,0,0,1,.029-.09l.368,0,.117-.349A.05.05,0,0,1,86.261,123.032Z" transform="translate(-81.377 -122.102)" fill="#f5f5f5"/>
          <path id="Path_1876" data-name="Path 1876" d="M86.261,153.687l.116.349.368,0a.05.05,0,0,1,.029.09l-.3.219.111.351a.05.05,0,0,1-.076.055l-.3-.214-.3.214a.05.05,0,0,1-.076-.055l.111-.351-.3-.219a.05.05,0,0,1,.029-.09l.368,0,.117-.349A.05.05,0,0,1,86.261,153.687Z" transform="translate(-81.377 -150.929)" fill="#f5f5f5"/>
          <path id="Path_1877" data-name="Path 1877" d="M86.261,184.341l.116.349.368,0a.05.05,0,0,1,.029.09l-.3.219.111.351a.05.05,0,0,1-.076.055l-.3-.214-.3.214a.05.05,0,0,1-.076-.055l.111-.351-.3-.219a.05.05,0,0,1,.029-.09l.368,0,.117-.349A.05.05,0,0,1,86.261,184.341Z" transform="translate(-81.377 -179.755)" fill="#f5f5f5"/>
          <path id="Path_1878" data-name="Path 1878" d="M86.261,215l.116.349.368,0a.05.05,0,0,1,.029.09l-.3.219.111.351a.05.05,0,0,1-.076.055l-.3-.214-.3.214a.05.05,0,0,1-.076-.055l.111-.351-.3-.219a.05.05,0,0,1,.029-.09l.368,0,.117-.349A.05.05,0,0,1,86.261,215Z" transform="translate(-81.377 -208.582)" fill="#f5f5f5"/>
          <path id="Path_1879" data-name="Path 1879" d="M110.053,108l.116.349.368,0a.05.05,0,0,1,.029.09l-.3.219.111.351a.05.05,0,0,1-.076.055l-.3-.214-.3.214a.05.05,0,0,1-.076-.055l.111-.351-.3-.219a.05.05,0,0,1,.029-.09l.368,0,.117-.349A.05.05,0,0,1,110.053,108Z" transform="translate(-103.75 -107.969)" fill="#f5f5f5"/>
          <path id="Path_1880" data-name="Path 1880" d="M110.053,138.657l.116.349.368,0a.05.05,0,0,1,.029.09l-.3.219.111.351a.05.05,0,0,1-.076.055l-.3-.214-.3.214a.05.05,0,0,1-.076-.055l.111-.351-.3-.219a.05.05,0,0,1,.029-.09l.368,0,.117-.349A.05.05,0,0,1,110.053,138.657Z" transform="translate(-103.75 -136.796)" fill="#f5f5f5"/>
          <path id="Path_1881" data-name="Path 1881" d="M110.053,169.311l.116.349.368,0a.05.05,0,0,1,.029.09l-.3.219.111.351a.05.05,0,0,1-.076.055l-.3-.214-.3.214a.05.05,0,0,1-.076-.055l.111-.351-.3-.219a.05.05,0,0,1,.029-.09l.368,0,.117-.349A.05.05,0,0,1,110.053,169.311Z" transform="translate(-103.75 -165.622)" fill="#f5f5f5"/>
          <path id="Path_1882" data-name="Path 1882" d="M110.053,199.966l.116.349.368,0a.05.05,0,0,1,.029.09l-.3.219.111.351a.05.05,0,0,1-.076.055l-.3-.214-.3.214a.05.05,0,0,1-.076-.055l.111-.351-.3-.219a.05.05,0,0,1,.029-.09l.368,0,.117-.349A.05.05,0,0,1,110.053,199.966Z" transform="translate(-103.75 -194.449)" fill="#f5f5f5"/>
          <path id="Path_1883" data-name="Path 1883" d="M110.053,230.619l.116.349.368,0a.05.05,0,0,1,.029.09l-.3.219.111.351a.05.05,0,0,1-.076.055l-.3-.214-.3.214a.05.05,0,0,1-.076-.055l.111-.351-.3-.219a.05.05,0,0,1,.029-.09l.368,0,.117-.349A.05.05,0,0,1,110.053,230.619Z" transform="translate(-103.75 -223.274)" fill="#f5f5f5"/>
          <path id="Path_1884" data-name="Path 1884" d="M133.847,123.032l.116.349.368,0a.05.05,0,0,1,.029.09l-.3.219.111.351a.05.05,0,0,1-.076.055l-.3-.214-.3.214a.05.05,0,0,1-.076-.055l.111-.351-.3-.219a.05.05,0,0,1,.029-.09l.368,0,.117-.349A.05.05,0,0,1,133.847,123.032Z" transform="translate(-126.126 -122.102)" fill="#f5f5f5"/>
          <path id="Path_1885" data-name="Path 1885" d="M133.847,153.687l.116.349.368,0a.05.05,0,0,1,.029.09l-.3.219.111.351a.05.05,0,0,1-.076.055l-.3-.214-.3.214a.05.05,0,0,1-.076-.055l.111-.351-.3-.219a.05.05,0,0,1,.029-.09l.368,0,.117-.349A.05.05,0,0,1,133.847,153.687Z" transform="translate(-126.126 -150.929)" fill="#f5f5f5"/>
          <path id="Path_1886" data-name="Path 1886" d="M133.847,184.341l.116.349.368,0a.05.05,0,0,1,.029.09l-.3.219.111.351a.05.05,0,0,1-.076.055l-.3-.214-.3.214a.05.05,0,0,1-.076-.055l.111-.351-.3-.219a.05.05,0,0,1,.029-.09l.368,0,.117-.349A.05.05,0,0,1,133.847,184.341Z" transform="translate(-126.126 -179.755)" fill="#f5f5f5"/>
          <path id="Path_1887" data-name="Path 1887" d="M133.847,215l.116.349.368,0a.05.05,0,0,1,.029.09l-.3.219.111.351a.05.05,0,0,1-.076.055l-.3-.214-.3.214a.05.05,0,0,1-.076-.055l.111-.351-.3-.219a.05.05,0,0,1,.029-.09l.368,0,.117-.349A.05.05,0,0,1,133.847,215Z" transform="translate(-126.126 -208.582)" fill="#f5f5f5"/>
          <path id="Path_1888" data-name="Path 1888" d="M157.641,108l.117.349.368,0a.05.05,0,0,1,.029.09l-.3.219.111.351a.05.05,0,0,1-.076.055l-.3-.214-.3.214a.05.05,0,0,1-.076-.055l.111-.351-.3-.219a.05.05,0,0,1,.029-.09l.368,0,.117-.349A.05.05,0,0,1,157.641,108Z" transform="translate(-148.501 -107.969)" fill="#f5f5f5"/>
          <path id="Path_1889" data-name="Path 1889" d="M157.641,138.657l.117.349.368,0a.05.05,0,0,1,.029.09l-.3.219.111.351a.05.05,0,0,1-.076.055l-.3-.214-.3.214a.05.05,0,0,1-.076-.055l.111-.351-.3-.219a.05.05,0,0,1,.029-.09l.368,0,.117-.349A.05.05,0,0,1,157.641,138.657Z" transform="translate(-148.501 -136.796)" fill="#f5f5f5"/>
          <path id="Path_1890" data-name="Path 1890" d="M157.641,169.311l.117.349.368,0a.05.05,0,0,1,.029.09l-.3.219.111.351a.05.05,0,0,1-.076.055l-.3-.214-.3.214a.05.05,0,0,1-.076-.055l.111-.351-.3-.219a.05.05,0,0,1,.029-.09l.368,0,.117-.349A.05.05,0,0,1,157.641,169.311Z" transform="translate(-148.501 -165.622)" fill="#f5f5f5"/>
          <path id="Path_1891" data-name="Path 1891" d="M157.641,199.966l.117.349.368,0a.05.05,0,0,1,.029.09l-.3.219.111.351a.05.05,0,0,1-.076.055l-.3-.214-.3.214a.05.05,0,0,1-.076-.055l.111-.351-.3-.219a.05.05,0,0,1,.029-.09l.368,0,.117-.349A.05.05,0,0,1,157.641,199.966Z" transform="translate(-148.501 -194.449)" fill="#f5f5f5"/>
          <path id="Path_1892" data-name="Path 1892" d="M157.641,230.619l.117.349.368,0a.05.05,0,0,1,.029.09l-.3.219.111.351a.05.05,0,0,1-.076.055l-.3-.214-.3.214a.05.05,0,0,1-.076-.055l.111-.351-.3-.219a.05.05,0,0,1,.029-.09l.368,0,.117-.349A.05.05,0,0,1,157.641,230.619Z" transform="translate(-148.501 -223.274)" fill="#f5f5f5"/>
          <path id="Path_1893" data-name="Path 1893" d="M181.434,123.032l.116.349.368,0a.05.05,0,0,1,.029.09l-.3.219.111.351a.05.05,0,0,1-.076.055l-.3-.214-.3.214a.05.05,0,0,1-.076-.055l.111-.351-.3-.219a.05.05,0,0,1,.029-.09l.368,0,.116-.349A.05.05,0,0,1,181.434,123.032Z" transform="translate(-170.875 -122.102)" fill="#f5f5f5"/>
          <path id="Path_1894" data-name="Path 1894" d="M181.434,153.687l.116.349.368,0a.05.05,0,0,1,.029.09l-.3.219.111.351a.05.05,0,0,1-.076.055l-.3-.214-.3.214a.05.05,0,0,1-.076-.055l.111-.351-.3-.219a.05.05,0,0,1,.029-.09l.368,0,.116-.349A.05.05,0,0,1,181.434,153.687Z" transform="translate(-170.875 -150.929)" fill="#f5f5f5"/>
          <path id="Path_1895" data-name="Path 1895" d="M181.434,184.341l.116.349.368,0a.05.05,0,0,1,.029.09l-.3.219.111.351a.05.05,0,0,1-.076.055l-.3-.214-.3.214a.05.05,0,0,1-.076-.055l.111-.351-.3-.219a.05.05,0,0,1,.029-.09l.368,0,.116-.349A.05.05,0,0,1,181.434,184.341Z" transform="translate(-170.875 -179.755)" fill="#f5f5f5"/>
          <path id="Path_1896" data-name="Path 1896" d="M181.434,215l.116.349.368,0a.05.05,0,0,1,.029.09l-.3.219.111.351a.05.05,0,0,1-.076.055l-.3-.214-.3.214a.05.05,0,0,1-.076-.055l.111-.351-.3-.219a.05.05,0,0,1,.029-.09l.368,0,.116-.349A.05.05,0,0,1,181.434,215Z" transform="translate(-170.875 -208.582)" fill="#f5f5f5"/>
          <path id="Path_1897" data-name="Path 1897" d="M205.228,108l.116.349.368,0a.05.05,0,0,1,.029.09l-.3.219.111.351a.05.05,0,0,1-.076.055l-.3-.214-.3.214a.05.05,0,0,1-.076-.055l.111-.351-.3-.219a.05.05,0,0,1,.029-.09l.368,0,.116-.349A.05.05,0,0,1,205.228,108Z" transform="translate(-193.251 -107.969)" fill="#f5f5f5"/>
          <path id="Path_1898" data-name="Path 1898" d="M205.228,138.657l.116.349.368,0a.05.05,0,0,1,.029.09l-.3.219.111.351a.05.05,0,0,1-.076.055l-.3-.214-.3.214a.05.05,0,0,1-.076-.055l.111-.351-.3-.219a.05.05,0,0,1,.029-.09l.368,0,.116-.349A.05.05,0,0,1,205.228,138.657Z" transform="translate(-193.251 -136.796)" fill="#f5f5f5"/>
          <path id="Path_1899" data-name="Path 1899" d="M205.228,169.311l.116.349.368,0a.05.05,0,0,1,.029.09l-.3.219.111.351a.05.05,0,0,1-.076.055l-.3-.214-.3.214a.05.05,0,0,1-.076-.055l.111-.351-.3-.219a.05.05,0,0,1,.029-.09l.368,0,.116-.349A.05.05,0,0,1,205.228,169.311Z" transform="translate(-193.251 -165.622)" fill="#f5f5f5"/>
          <path id="Path_1900" data-name="Path 1900" d="M205.228,199.966l.116.349.368,0a.05.05,0,0,1,.029.09l-.3.219.111.351a.05.05,0,0,1-.076.055l-.3-.214-.3.214a.05.05,0,0,1-.076-.055l.111-.351-.3-.219a.05.05,0,0,1,.029-.09l.368,0,.116-.349A.05.05,0,0,1,205.228,199.966Z" transform="translate(-193.251 -194.449)" fill="#f5f5f5"/>
          <path id="Path_1901" data-name="Path 1901" d="M205.228,230.619l.116.349.368,0a.05.05,0,0,1,.029.09l-.3.219.111.351a.05.05,0,0,1-.076.055l-.3-.214-.3.214a.05.05,0,0,1-.076-.055l.111-.351-.3-.219a.05.05,0,0,1,.029-.09l.368,0,.116-.349A.05.05,0,0,1,205.228,230.619Z" transform="translate(-193.251 -223.274)" fill="#f5f5f5"/>
        </g>
      </g>
    </g>
  </g>
</svg>
