<svg xmlns="http://www.w3.org/2000/svg" width="15.021" height="15" viewBox="0 0 15.021 15">
  <g id="new_user" transform="translate(0 -0.499)">
    <g id="Group_2649" data-name="Group 2649" transform="translate(0 0.499)">
      <g id="Group_2648" data-name="Group 2648" transform="translate(0 0)">
        <path id="Path_3139" data-name="Path 3139" d="M7.5.5A4.335,4.335,0,0,0,5.044,8.408,7.511,7.511,0,0,0,0,15.5H1.171A6.333,6.333,0,0,1,7.5,9.171,4.336,4.336,0,0,0,7.5.5ZM7.5,8a3.164,3.164,0,1,1,3.162-3.164A3.167,3.167,0,0,1,7.5,8Z" transform="translate(0 -0.499)" fill="#fd4949"/>
      </g>
    </g>
    <g id="Group_2651" data-name="Group 2651" transform="translate(8.93 9.409)">
      <g id="Group_2650" data-name="Group 2650">
        <path id="Path_3140" data-name="Path 3140" d="M308.036,306.366v-2.46h-1.171v2.46H304.4v1.171h2.46V310h1.171v-2.459h2.46v-1.171Z" transform="translate(-304.405 -303.906)" fill="#fd4949"/>
      </g>
    </g>
  </g>
</svg>
