<svg xmlns="http://www.w3.org/2000/svg" width="10.685" height="11.998" viewBox="0 0 10.685 11.998">
  <g id="playstore" transform="translate(-0.5 0)">
    <path id="Path_3133" data-name="Path 3133" d="M.721,18.855a1.1,1.1,0,0,0-.221.666V29.3a1.1,1.1,0,0,0,.192.625l5.323-5.552Zm0,0" transform="translate(0 -18.414)" fill="#fd4949"/>
    <path id="Path_3134" data-name="Path 3134" d="M40.32,5.455l1.727-1.8-6.07-3.5a1.094,1.094,0,0,0-.848-.109Zm0,0" transform="translate(-33.817 0)" fill="#fd4949"/>
    <path id="Path_3135" data-name="Path 3135" d="M38.134,276.18l-5.243,5.469a1.088,1.088,0,0,0,.347.057,1.1,1.1,0,0,0,.553-.15l6.114-3.53Zm0,0" transform="translate(-31.632 -269.708)" fill="#fd4949"/>
    <path id="Path_3136" data-name="Path 3136" d="M281.079,172.419l-1.775-1.025-1.867,1.947,1.91,1.993,1.731-1a1.106,1.106,0,0,0,0-1.916Zm0,0" transform="translate(-270.448 -167.378)" fill="#fd4949"/>
  </g>
</svg>
