<svg id="_002-x-mark" data-name="002-x-mark" xmlns="http://www.w3.org/2000/svg" width="19.995" height="19.995" viewBox="0 0 19.995 19.995">
  <path id="Path_3898" data-name="Path 3898" d="M10,20A10,10,0,1,1,20,10,10.009,10.009,0,0,1,10,20ZM10,1.428A8.569,8.569,0,1,0,18.567,10,8.579,8.579,0,0,0,10,1.428Zm0,0" fill="#fd1744"/>
  <path id="Path_3899" data-name="Path 3899" d="M154.141,154.857a.711.711,0,0,1-.5-.209l-7.141-7.141a.714.714,0,0,1,1.01-1.01l7.141,7.141a.714.714,0,0,1-.5,1.219Zm0,0" transform="translate(-140.573 -140.575)" fill="#fd1744"/>
  <path id="Path_3900" data-name="Path 3900" d="M147,154.855a.714.714,0,0,1-.5-1.219l7.141-7.141a.714.714,0,0,1,1.01,1.01l-7.141,7.141A.711.711,0,0,1,147,154.855Zm0,0" transform="translate(-140.573 -140.573)" fill="#fd1744"/>
</svg>
