<svg xmlns="http://www.w3.org/2000/svg" width="39.933" height="35" viewBox="0 0 39.933 35">
  <g id="wallet_3" transform="translate(0 -31.626)">
    <path id="Path_1059" data-name="Path 1059" d="M0,56.386a1.171,1.171,0,0,0,1.85.953l6.434-4.59a3.148,3.148,0,0,1,1.838-.588h14.15a4.522,4.522,0,0,0,4.517-4.517V32.8a1.17,1.17,0,0,0-1.17-1.17H4.517A4.522,4.522,0,0,0,0,36.143ZM2.34,36.143a2.179,2.179,0,0,1,2.177-2.177H26.448V47.644a2.179,2.179,0,0,1-2.177,2.177H10.121a5.475,5.475,0,0,0-3.2,1.024L2.34,54.114Z" transform="translate(0 0)" fill="#0b0a24"/>
    <path id="Path_1060" data-name="Path 1060" d="M171.758,152.484a4.522,4.522,0,0,0-4.517-4.518h-3.126a1.17,1.17,0,0,0,0,2.34h3.126a2.179,2.179,0,0,1,2.176,2.177v17.971l-4.584-3.27a5.474,5.474,0,0,0-3.2-1.023h-14.15a2.179,2.179,0,0,1-2.176-2.177v-1.048a1.17,1.17,0,0,0-2.34,0v1.048a4.522,4.522,0,0,0,4.517,4.518h14.15a3.147,3.147,0,0,1,1.838.588l6.434,4.589a1.172,1.172,0,0,0,1.85-.953V152.484Z" transform="translate(-131.825 -107.271)" fill="#0b0a24"/>
    <path id="Path_1061" data-name="Path 1061" d="M94.032,115.679h13.52a1.17,1.17,0,0,0,0-2.34H94.032a1.17,1.17,0,1,0,0,2.34Z" transform="translate(-85.62 -75.34)" fill="#0b0a24"/>
    <path id="Path_1062" data-name="Path 1062" d="M94.032,185.679h13.52a1.17,1.17,0,0,0,0-2.34H94.032a1.17,1.17,0,1,0,0,2.34Z" transform="translate(-85.62 -139.88)" fill="#0b0a24"/>
  </g>
</svg>
