<svg xmlns="http://www.w3.org/2000/svg" width="35" height="35" viewBox="0 0 35 35">
  <path id="wallet_2" d="M29.874,5.126A17.5,17.5,0,0,0,5.126,29.874,17.5,17.5,0,0,0,29.874,5.126ZM18.525,11.3a31.92,31.92,0,0,0,5.426-.618,29.205,29.205,0,0,1,.744,5.794h-6.17Zm0-2.052V2.223c1.417.473,2.791,1.9,3.882,4.086a18.378,18.378,0,0,1,.983,2.4A29.974,29.974,0,0,1,18.525,9.247ZM16.475,2.223V9.247A29.974,29.974,0,0,1,11.609,8.7a18.388,18.388,0,0,1,.983-2.4C13.683,4.127,15.058,2.7,16.475,2.223Zm0,9.075v5.176H10.3a29.21,29.21,0,0,1,.744-5.794A31.92,31.92,0,0,0,16.475,11.3ZM8.253,16.475H2.085A15.3,15.3,0,0,1,4.91,8.542a20.637,20.637,0,0,0,4.148,1.653A31.315,31.315,0,0,0,8.253,16.475Zm0,2.051a31.32,31.32,0,0,0,.8,6.28A20.638,20.638,0,0,0,4.91,26.458a15.3,15.3,0,0,1-2.825-7.933Zm2.052,0h6.17V23.7a31.92,31.92,0,0,0-5.426.618A29.205,29.205,0,0,1,10.3,18.525Zm6.17,7.228v7.023c-1.417-.473-2.791-1.9-3.882-4.086a18.388,18.388,0,0,1-.983-2.4A29.974,29.974,0,0,1,16.475,25.753Zm2.051,7.023V25.753a29.974,29.974,0,0,1,4.866.542,18.388,18.388,0,0,1-.983,2.4C21.317,30.873,19.942,32.3,18.525,32.777Zm0-9.075V18.525H24.7a29.21,29.21,0,0,1-.744,5.794A31.92,31.92,0,0,0,18.525,23.7Zm8.222-5.176h6.168a15.3,15.3,0,0,1-2.825,7.933,20.638,20.638,0,0,0-4.148-1.653A31.315,31.315,0,0,0,26.747,18.525Zm0-2.051a31.32,31.32,0,0,0-.8-6.28A20.637,20.637,0,0,0,30.09,8.542a15.3,15.3,0,0,1,2.825,7.933Zm2.014-9.55a18.964,18.964,0,0,1-3.371,1.3,20.541,20.541,0,0,0-1.148-2.832A14.287,14.287,0,0,0,22.718,2.95a15.4,15.4,0,0,1,5.706,3.626C28.539,6.69,28.651,6.807,28.761,6.924ZM12.282,2.95a14.29,14.29,0,0,0-1.524,2.442A20.541,20.541,0,0,0,9.61,8.224a18.966,18.966,0,0,1-3.371-1.3c.11-.117.222-.234.337-.348A15.4,15.4,0,0,1,12.282,2.95ZM6.239,28.076a18.964,18.964,0,0,1,3.371-1.3,20.541,20.541,0,0,0,1.148,2.832,14.288,14.288,0,0,0,1.524,2.442,15.4,15.4,0,0,1-5.706-3.626C6.461,28.31,6.349,28.193,6.239,28.076ZM22.718,32.05a14.291,14.291,0,0,0,1.524-2.442,20.542,20.542,0,0,0,1.148-2.832,18.966,18.966,0,0,1,3.371,1.3c-.11.117-.222.234-.337.348A15.4,15.4,0,0,1,22.718,32.05Z" fill="#0b0a24"/>
</svg>
