<svg xmlns="http://www.w3.org/2000/svg" width="48.868" height="60.306" viewBox="0 0 48.868 60.306">
  <g id="icon" transform="translate(-48.552)">
    <path id="Path_1018" data-name="Path 1018" d="M85.983,47.829H50.631a2.079,2.079,0,0,1-2.079-2.079V2.079A2.079,2.079,0,0,1,50.631,0H85.983a2.079,2.079,0,0,1,2.079,2.079v43.67A2.079,2.079,0,0,1,85.983,47.829Z" fill="#f1f4fb"/>
    <path id="Path_1019" data-name="Path 1019" d="M247.727,193.719V184.65c-.107.038-.22.058-.324.1a4.566,4.566,0,0,0-2.84-1.409c-.16-.016-.319-.024-.475-.024a4.757,4.757,0,0,0-.52.028V172.4a4.684,4.684,0,0,0-4.679-4.679h0q-.235,0-.475.024a4.8,4.8,0,0,0-4.2,4.8v11.987l-2.542,2.542a7.233,7.233,0,0,0-1.938,6.813l.448,1.9h15.47A2.08,2.08,0,0,0,247.727,193.719Z" transform="translate(-159.665 -147.97)" fill="#d5dced"/>
    <circle id="Ellipse_37" data-name="Ellipse 37" cx="3.119" cy="3.119" r="3.119" transform="translate(54.79 9.358)" fill="#b4e66e"/>
    <circle id="Ellipse_38" data-name="Ellipse 38" cx="3.119" cy="3.119" r="3.119" transform="translate(54.79 20.795)" fill="#dae169"/>
    <circle id="Ellipse_39" data-name="Ellipse 39" cx="3.119" cy="3.119" r="3.119" transform="translate(54.79 32.232)" fill="#ffdc64"/>
    <path id="Path_1020" data-name="Path 1020" d="M198.641,213.941H182a1.04,1.04,0,1,1,0-2.08h16.636a1.04,1.04,0,1,1,0,2.08Z" transform="translate(-116.817 -186.907)" fill="#7f8499"/>
    <path id="Path_1021" data-name="Path 1021" d="M194.482,178.631H182a1.04,1.04,0,1,1,0-2.08h12.477a1.04,1.04,0,1,1,0,2.08Z" transform="translate(-116.817 -155.756)" fill="#5b5d6e"/>
    <path id="Path_1022" data-name="Path 1022" d="M198.641,311.045H182a1.04,1.04,0,1,1,0-2.08h16.636a1.04,1.04,0,1,1,0,2.08Z" transform="translate(-116.817 -272.574)" fill="#7f8499"/>
    <path id="Path_1023" data-name="Path 1023" d="M194.482,275.734H182a1.04,1.04,0,1,1,0-2.08h12.477a1.04,1.04,0,1,1,0,2.08Z" transform="translate(-116.817 -241.422)" fill="#5b5d6e"/>
    <path id="Path_1024" data-name="Path 1024" d="M198.641,116.838H182a1.04,1.04,0,1,1,0-2.08h16.636a1.04,1.04,0,1,1,0,2.08Z" transform="translate(-116.817 -101.241)" fill="#7f8499"/>
    <path id="Path_1025" data-name="Path 1025" d="M194.482,81.527H182a1.04,1.04,0,1,1,0-2.08h12.477a1.04,1.04,0,1,1,0,2.08Z" transform="translate(-116.817 -70.089)" fill="#5b5d6e"/>
    <path id="Path_1026" data-name="Path 1026" d="M270.354,203.069a2.6,2.6,0,0,0-2.867,2.586v-.892a2.7,2.7,0,0,0-2.331-2.734,2.6,2.6,0,0,0-2.867,2.586v-.892a2.7,2.7,0,0,0-2.331-2.734,2.6,2.6,0,0,0-2.867,2.586v-15.6a2.6,2.6,0,0,0-2.867-2.586,2.7,2.7,0,0,0-2.331,2.734v12.849l-3.151,3.151a5.2,5.2,0,0,0-1.384,4.867l2.175,9.245a7.278,7.278,0,0,0,7.085,5.611h8.792a7.278,7.278,0,0,0,7.278-7.278V205.8A2.7,2.7,0,0,0,270.354,203.069Z" transform="translate(-175.265 -163.545)" fill="#f0c087"/>
    <g id="Group_2602" data-name="Group 2602" transform="translate(71.952 21.9)">
      <path id="Path_1027" data-name="Path 1027" d="M332.075,323.422a1.04,1.04,0,0,0,1.04-1.04v-4.028a2.59,2.59,0,0,0-2.079,2.533v1.494A1.04,1.04,0,0,0,332.075,323.422Z" transform="translate(-321.163 -302.758)" fill="#e6af78"/>
      <path id="Path_1028" data-name="Path 1028" d="M376.213,332.25a1.04,1.04,0,0,0,1.04-1.04v-4.028a2.59,2.59,0,0,0-2.079,2.533v1.494A1.04,1.04,0,0,0,376.213,332.25Z" transform="translate(-360.102 -310.546)" fill="#e6af78"/>
      <path id="Path_1029" data-name="Path 1029" d="M420.351,341.077a1.04,1.04,0,0,0,1.04-1.04V336.01a2.59,2.59,0,0,0-2.079,2.533v1.494A1.04,1.04,0,0,0,420.351,341.077Z" transform="translate(-399.041 -318.333)" fill="#e6af78"/>
      <path id="Path_1030" data-name="Path 1030" d="M252.125,218.727l-2.411-10.245a3.355,3.355,0,0,1,.893-3.14l1.283-1.283v2.6a1.04,1.04,0,1,0,2.08,0v-20.73a2.719,2.719,0,0,0-2.079,2.682v12.849l-3.151,3.151a5.2,5.2,0,0,0-1.384,4.867l2.175,9.245a7.278,7.278,0,0,0,7.085,5.611h2.594A7.278,7.278,0,0,1,252.125,218.727Z" transform="translate(-247.217 -185.933)" fill="#e6af78"/>
    </g>
  </g>
</svg>
