<svg xmlns="http://www.w3.org/2000/svg" width="50.268" height="60.218" viewBox="0 0 50.268 60.218">
  <g id="address" transform="translate(-42.297)">
    <g id="Group_2606" data-name="Group 2606" transform="translate(42.297)">
      <path id="Path_1031" data-name="Path 1031" d="M181.483,12.1V4.943a1.591,1.591,0,0,0-1.591-1.591h-9.77a1.591,1.591,0,0,0-1.591,1.591V12.1a1.765,1.765,0,0,1-3.53,0V5a5,5,0,0,1,5-5h10.008a5,5,0,0,1,5,5v7.1a1.765,1.765,0,1,1-3.53,0Z" transform="translate(-150.569)" fill="#56788b"/>
      <path id="Path_1032" data-name="Path 1032" d="M118.1,93.232v38.181l-5.884,5.882H83.387a5.888,5.888,0,0,1-5.884-5.882V93.232a5.889,5.889,0,0,1,5.884-5.882h28.825a5.888,5.888,0,0,1,5.884,5.882Z" transform="translate(-73.362 -77.077)" fill="#ffe8c8"/>
      <path id="Path_1033" data-name="Path 1033" d="M118.1,93.232v38.181l-5.884,5.882H83.387a5.888,5.888,0,0,1-5.884-5.882V98.582H98.141a4.76,4.76,0,0,1,4.761,4.761v5.05a2.306,2.306,0,0,0,3.284,2.086,14.222,14.222,0,0,1,6.026-1.33h.025a2.312,2.312,0,0,0,2.331-2.3V93.232a5.888,5.888,0,0,0-5.884-5.882h3.528a5.888,5.888,0,0,1,5.884,5.882Z" transform="translate(-73.362 -77.076)" fill="#fdd9b4"/>
      <path id="Path_1034" data-name="Path 1034" d="M67.6,213.732v33.42a.882.882,0,0,1-.882.882H43.179a.882.882,0,0,1-.882-.882v-33.42a.882.882,0,0,1,.882-.882H66.72A.882.882,0,0,1,67.6,213.732Z" transform="translate(-42.297 -187.816)" fill="#f9d11f"/>
      <path id="Path_1035" data-name="Path 1035" d="M121.2,212.85v11.666a.882.882,0,0,1-1.276.789l-1.37-.685-1.764-.882-3.133,1.567a.883.883,0,0,1-1.277-.789V212.85Z" transform="translate(-104.136 -187.816)" fill="#ed2061"/>
      <g id="Group_2605" data-name="Group 2605" transform="translate(5.462 42.379)">
        <g id="Group_2603" data-name="Group 2603" transform="translate(6.773 1.477)">
          <path id="Path_1036" data-name="Path 1036" d="M153.347,437.883h-6.138a.882.882,0,1,0,0,1.764h6.138a.882.882,0,1,0,0-1.764Z" transform="translate(-146.326 -430.238)" fill="#56788b"/>
          <path id="Path_1037" data-name="Path 1037" d="M147.208,374.647h6.138a.882.882,0,1,0,0-1.764h-6.138a.882.882,0,1,0,0,1.764Z" transform="translate(-146.326 -372.883)" fill="#56788b"/>
        </g>
        <g id="Group_2604" data-name="Group 2604">
          <circle id="Ellipse_40" data-name="Ellipse 40" cx="2.352" cy="2.352" r="2.352" transform="translate(0 7.645)" fill="#fff"/>
          <circle id="Ellipse_41" data-name="Ellipse 41" cx="2.352" cy="2.352" r="2.352" fill="#fff"/>
        </g>
      </g>
      <path id="Path_1038" data-name="Path 1038" d="M67.6,213.732v33.42a.882.882,0,0,1-.882.882H43.179a.882.882,0,0,1-.882-.882v-2.94a.882.882,0,0,0,.882.882h20.6a.882.882,0,0,0,.882-.882V213.732a.882.882,0,0,0-.882-.882h2.94A.882.882,0,0,1,67.6,213.732Z" transform="translate(-42.297 -187.816)" fill="#ffa402"/>
      <path id="Path_1039" data-name="Path 1039" d="M167.524,212.85v11.666a.882.882,0,0,1-1.276.789l-1.37-.685V212.85Z" transform="translate(-150.461 -187.816)" fill="#c71e54"/>
    </g>
    <path id="Path_1040" data-name="Path 1040" d="M298.37,308.549a11.45,11.45,0,0,1-8.142,10.942l-2.652,2.652a.882.882,0,0,1-.555.256l-.069,0a.879.879,0,0,1-.623-.259l-2.652-2.652a11.42,11.42,0,1,1,14.695-10.942Z" transform="translate(-205.804 -262.184)" fill="#ed2061"/>
    <path id="Path_1041" data-name="Path 1041" d="M373.443,308.549a11.45,11.45,0,0,1-8.142,10.942l-2.652,2.652a.882.882,0,0,1-.555.256l.385-2.909a11.421,11.421,0,0,0-1.865-22.274,11.423,11.423,0,0,1,12.83,11.332Z" transform="translate(-280.878 -262.184)" fill="#c71e54"/>
    <path id="Path_1042" data-name="Path 1042" d="M329.511,344.48a6.631,6.631,0,1,1-6.63-6.63A6.636,6.636,0,0,1,329.511,344.48Z" transform="translate(-241.735 -298.115)" fill="#eef0f5"/>
    <path id="Path_1043" data-name="Path 1043" d="M368.213,344.48a6.631,6.631,0,0,1-8.1,6.464,6.63,6.63,0,0,0,0-12.929,6.631,6.631,0,0,1,8.1,6.465Z" transform="translate(-280.437 -298.115)" fill="#dae1ea"/>
  </g>
</svg>
