<svg xmlns="http://www.w3.org/2000/svg" width="10.697" height="14.039" viewBox="0 0 10.697 14.039">
  <g id="pass" transform="translate(-2.674 -0.669)">
    <path id="Path_46" data-name="Path 46" d="M9.348,11.7A1.337,1.337,0,1,0,8.011,10.36,1.341,1.341,0,0,0,9.348,11.7ZM13.36,5.68h-.669V4.343a3.343,3.343,0,0,0-6.685,0h1.27a2.072,2.072,0,0,1,4.145,0V5.68H5.337A1.341,1.341,0,0,0,4,7.017V13.7a1.341,1.341,0,0,0,1.337,1.337H13.36A1.341,1.341,0,0,0,14.7,13.7V7.017A1.341,1.341,0,0,0,13.36,5.68Zm0,8.022H5.337V7.017H13.36Z" transform="translate(-1.326 -0.331)" fill="#687083"/>
  </g>
</svg>
