<svg xmlns="http://www.w3.org/2000/svg" width="60.092" height="60.092" viewBox="0 0 60.092 60.092">
  <g id="support" transform="translate(0)">
    <circle id="Ellipse_43" data-name="Ellipse 43" cx="25.53" cy="25.53" r="25.53" transform="translate(9.033 0)" fill="#9dc6fb"/>
    <path id="Path_1048" data-name="Path 1048" d="M278.415,0c-.72,0-1.432.031-2.136.09a25.53,25.53,0,0,1,0,50.88c.7.058,1.417.09,2.136.09a25.53,25.53,0,1,0,0-51.06Z" transform="translate(-243.852 -0.001)" fill="#80b4fb"/>
    <circle id="Ellipse_44" data-name="Ellipse 44" cx="18.57" cy="18.57" r="18.57" transform="translate(15.992 6.96)" fill="#f9f6f6"/>
    <path id="Path_1049" data-name="Path 1049" d="M278.415,59.3a18.766,18.766,0,0,0-2.136.123,18.571,18.571,0,0,1,0,36.895,18.765,18.765,0,0,0,2.136.123,18.57,18.57,0,1,0,0-37.141Z" transform="translate(-243.852 -52.337)" fill="#dddaec"/>
    <path id="Path_1050" data-name="Path 1050" d="M18.85,185.673,6.113,172.936l-3.352,3.352a9.425,9.425,0,0,0,0,13.328l20.354,20.354a9.425,9.425,0,0,0,13.328,0l3.352-3.352L27.059,193.882l-.9.9a5.8,5.8,0,0,1-8.209-8.209Z" transform="translate(0 -152.639)" fill="#e7a561"/>
    <g id="Group_2608" data-name="Group 2608" transform="translate(4.366 20.297)">
      <path id="Path_1051" data-name="Path 1051" d="M214.916,353.059l12.824,12.824,1.747-1.747L216.75,351.4l-.9.9A5.826,5.826,0,0,1,214.916,353.059Z" transform="translate(-194.057 -330.453)" fill="#e49542"/>
      <path id="Path_1052" data-name="Path 1052" d="M50.019,187.507a5.825,5.825,0,0,1,.756-.931l.9-.9L38.942,172.936,37.2,174.683Z" transform="translate(-37.195 -172.936)" fill="#e49542"/>
    </g>
    <path id="Path_1053" data-name="Path 1053" d="M64.818,160.694,52.081,147.957l2.729-2.729a2.024,2.024,0,0,1,2.862,0l9.875,9.875a2.023,2.023,0,0,1,0,2.862Z" transform="translate(-45.968 -127.66)" fill="#ffe07d"/>
    <path id="Path_1054" data-name="Path 1054" d="M59.691,145.228l-2.08,2.08a2.023,2.023,0,0,1,2.862,0l9.875,9.875a2.023,2.023,0,0,1,0,2.862l2.08-2.08a2.023,2.023,0,0,0,0-2.862l-9.875-9.875A2.023,2.023,0,0,0,59.691,145.228Z" transform="translate(-50.849 -127.66)" fill="#ffd064"/>
    <path id="Path_1055" data-name="Path 1055" d="M243.281,339.157,230.544,326.42l2.729-2.729a2.024,2.024,0,0,1,2.862,0l9.875,9.875a2.023,2.023,0,0,1,0,2.862Z" transform="translate(-203.485 -285.177)" fill="#ffe07d"/>
    <path id="Path_1056" data-name="Path 1056" d="M238.154,323.692l-2.08,2.08a2.023,2.023,0,0,1,2.862,0l9.875,9.875a2.023,2.023,0,0,1,0,2.862l2.08-2.08a2.024,2.024,0,0,0,0-2.862l-9.875-9.875A2.024,2.024,0,0,0,238.154,323.692Z" transform="translate(-208.366 -285.178)" fill="#ffd064"/>
    <g id="Group_2613" data-name="Group 2613" transform="translate(24.106 19.335)">
      <path id="Path_1057" data-name="Path 1057" d="M332.3,172.594a4.731,4.731,0,0,0-1.027-3.514,2.978,2.978,0,0,0-2.2-.812,3.238,3.238,0,0,0-1.761.507v-3.132a.907.907,0,0,0-1.814,0V176.22a.907.907,0,0,0,1.814,0v-3.631c0-1.476.724-2.508,1.761-2.508a1.173,1.173,0,0,1,.915.277c.232.233.506.808.5,2.234l.013,3.631a.907.907,0,0,0,.907.9h0a.907.907,0,0,0,.9-.91Z" transform="translate(-311.404 -164.736)" fill="#21386b"/>
      <g id="Group_2610" data-name="Group 2610" transform="translate(5.518 1.052)">
        <g id="Group_2609" data-name="Group 2609">
          <path id="Path_1058" data-name="Path 1058" d="M257.528,183.988h-.008a.907.907,0,0,1-.9-.915c0-.485.008-1.024.013-1.586H253.31a.907.907,0,0,1-.794-1.345c.67-1.215,2.893-5.223,3.373-5.811a1.455,1.455,0,0,1,1.563-.573,1.509,1.509,0,0,1,1,1.362c.025.3.019,2.508.007,4.553h.171a.907.907,0,1,1,0,1.814h-.183c-.005.722-.01,1.3-.013,1.6A.907.907,0,0,1,257.528,183.988Zm-2.677-4.314h1.795c.007-1.192.012-2.34.011-3.17C256.187,177.3,255.527,178.465,254.851,179.674Z" transform="translate(-252.403 -173.702)" fill="#21386b"/>
        </g>
      </g>
      <g id="Group_2612" data-name="Group 2612" transform="translate(0 0.97)">
        <g id="Group_2611" data-name="Group 2611">
          <path id="Path_1059" data-name="Path 1059" d="M208.233,183.451a7.226,7.226,0,0,1-1.889-.081.947.947,0,0,1-.615-.623c-.156-.506.066-.8.6-1.5.431-.564,1.232-1.613,2.574-3.531a4.737,4.737,0,0,0,.75-1.483l.027-.214a1.261,1.261,0,0,0-2.5-.2.907.907,0,0,1-1.78-.349,3.075,3.075,0,0,1,6.092.595.918.918,0,0,1-.007.115l-.042.328a.876.876,0,0,1-.016.09,6.389,6.389,0,0,1-1.041,2.154c-.928,1.325-1.6,2.244-2.076,2.876.771,0,1.726-.008,2.624-.019h.012a.907.907,0,0,1,.011,1.814C209.756,183.445,208.878,183.451,208.233,183.451Z" transform="translate(-205.387 -172.998)" fill="#21386b"/>
        </g>
      </g>
    </g>
    <g id="Group_2614" data-name="Group 2614" transform="translate(33.656 9.268)">
      <path id="Path_1060" data-name="Path 1060" d="M287.66,82.438a.907.907,0,0,1-.907-.907v-1.66a.907.907,0,0,1,1.814,0v1.66A.907.907,0,0,1,287.66,82.438Z" transform="translate(-286.753 -78.964)" fill="#26457d"/>
    </g>
    <g id="Group_2615" data-name="Group 2615" transform="translate(47.351 24.623)">
      <path id="Path_1061" data-name="Path 1061" d="M406.006,211.61h-1.66a.907.907,0,1,1,0-1.814h1.66a.907.907,0,0,1,0,1.814Z" transform="translate(-403.439 -209.796)" fill="#26457d"/>
    </g>
  </g>
</svg>
