<svg xmlns="http://www.w3.org/2000/svg" width="30.007" height="30.007" viewBox="0 0 30.007 30.007">
  <g id="_2" data-name="2" transform="translate(-2 -2)">
    <path id="Path_1571" data-name="Path 1571" d="M31.7,2.038a.5.5,0,0,0-.545.109L26.006,7.294V3.5a.5.5,0,0,0-.5-.5H5A3,3,0,0,0,2,6V29.006a3,3,0,0,0,3,3h20.5a.5.5,0,0,0,.5-.5v-13.8l2.34-2.34a12.421,12.421,0,0,0,3.662-8.841V2.5a.5.5,0,0,0-.309-.462ZM25.005,31.007H5a2,2,0,1,1,0-4h20Zm0-5H5a2.985,2.985,0,0,0-2,.77V6A2,2,0,0,1,5,4h20V8.295L18.15,15.15A.5.5,0,0,0,18,15.5V19.8L15.15,22.651l.707.707L18.711,20.5H23a.5.5,0,0,0,.354-.147l1.647-1.647Zm6-19.475a11.428,11.428,0,0,1-3.369,8.133L22.8,19.5H19.711l8.148-8.148-.707-.707L19,18.8V15.71l12-12Z" fill="#83cccf"/>
    <path id="Path_1572" data-name="Path 1572" d="M21,19a5,5,0,1,0-5-5A5.007,5.007,0,0,0,21,19Zm-2.46-1.852a2.483,2.483,0,0,1,4.92,0,3.977,3.977,0,0,1-4.92,0ZM20,13a1,1,0,1,1,1,1A1,1,0,0,1,20,13Zm1-3a4,4,0,0,1,3.279,6.286,3.5,3.5,0,0,0-1.8-1.953,2,2,0,1,0-2.963,0,3.5,3.5,0,0,0-1.8,1.953A4,4,0,0,1,21,10Z" transform="translate(-6.998 -3.499)" fill="#83cccf"/>
    <path id="Path_1573" data-name="Path 1573" d="M17,43h5v1H17Z" transform="translate(-7.498 -20.495)" fill="#83cccf"/>
    <path id="Path_1574" data-name="Path 1574" d="M17,38h6.5v1H17Z" transform="translate(-7.498 -17.996)" fill="#83cccf"/>
    <path id="Path_1575" data-name="Path 1575" d="M17,33h7.5v1H17Z" transform="translate(-7.498 -15.496)" fill="#83cccf"/>
  </g>
</svg>
