<svg xmlns="http://www.w3.org/2000/svg" width="32.83" height="30.021" viewBox="0 0 32.83 30.021">
  <g id="_3" data-name="3" transform="translate(0 -21.643)">
    <g id="Group_1572" data-name="Group 1572" transform="translate(0 21.643)">
      <path id="Path_1567" data-name="Path 1567" d="M125.426,234.891a3.169,3.169,0,0,0-6.339,0h1.924a1.246,1.246,0,0,1,2.492,0Z" transform="translate(-111.36 -218.092)" fill="#dfa2a9"/>
      <path id="Path_1568" data-name="Path 1568" d="M292.379,231.721a3.173,3.173,0,0,0-3.169,3.169h1.924a1.246,1.246,0,0,1,2.492,0h1.924A3.173,3.173,0,0,0,292.379,231.721Z" transform="translate(-270.445 -218.091)" fill="#dfa2a9"/>
      <path id="Path_1569" data-name="Path 1569" d="M186.227,342.787a3.471,3.471,0,0,1-2.976-1.7l-1.657.978a5.376,5.376,0,0,0,9.265,0l-1.657-.978A3.471,3.471,0,0,1,186.227,342.787Z" transform="translate(-169.812 -320.359)" fill="#dfa2a9"/>
      <path id="Path_1570" data-name="Path 1570" d="M31.579,35.036a4.251,4.251,0,0,0-2.217-1.175,13.631,13.631,0,0,0-12.946-9.409H15.77a2.812,2.812,0,0,1-2.808-2.808H11.038a4.706,4.706,0,0,0,.926,2.808h-.609a2.812,2.812,0,0,1-2.808-2.808H6.623a4.739,4.739,0,0,0,3.245,4.492,13.608,13.608,0,0,0-6.4,7.726,4.274,4.274,0,0,0,0,8.394,13.611,13.611,0,0,0,25.893,0,4.274,4.274,0,0,0,2.217-7.219ZM28.6,40.406l-.722.014-.188.7a11.687,11.687,0,0,1-22.557,0l-.188-.7-.722-.014a2.36,2.36,0,0,1-2.3-2.348,2.347,2.347,0,0,1,2.3-2.348l.722-.014.188-.7a11.7,11.7,0,0,1,11.278-8.624,3.153,3.153,0,1,1-3.153,3.153H11.339a5.077,5.077,0,1,0,9.64-2.222A11.689,11.689,0,0,1,27.693,35l.188.7.722.014a2.349,2.349,0,0,1,0,4.7Z" transform="translate(0 -21.643)" fill="#dfa2a9"/>
    </g>
  </g>
</svg>
