<svg xmlns="http://www.w3.org/2000/svg" width="14.49" height="20.003" viewBox="0 0 14.49 20.003">
  <g id="bag18" transform="translate(-68.557)">
    <g id="Group_1553" data-name="Group 1553" transform="translate(68.557)">
      <path id="Path_1552" data-name="Path 1552" d="M83.037,17.276,81.984,5.569A.622.622,0,0,0,81.367,5H79.512V3.75A3.75,3.75,0,0,0,78.428,1.1,3.67,3.67,0,0,0,75.8,0a3.735,3.735,0,0,0-3.711,3.75V5H70.236a.62.62,0,0,0-.616.569L68.567,17.276a2.523,2.523,0,0,0,.637,1.913A2.466,2.466,0,0,0,71.031,20h9.542a2.466,2.466,0,0,0,1.827-.814A2.528,2.528,0,0,0,83.037,17.276ZM73.328,3.75A2.49,2.49,0,0,1,75.8,1.25a2.45,2.45,0,0,1,1.753.729,2.5,2.5,0,0,1,.721,1.771V5H73.328Zm8.158,14.6a1.222,1.222,0,0,1-.914.406H71.031a1.216,1.216,0,0,1-.913-.408,1.241,1.241,0,0,1-.318-.956l1-11.138h1.29V8.126a.618.618,0,1,0,1.237,0V6.251h4.947V8.126a.618.618,0,1,0,1.237,0V6.251H80.8l1,11.139A1.243,1.243,0,0,1,81.486,18.346Z" transform="translate(-68.557)" fill="#7c31fe"/>
    </g>
  </g>
</svg>
