<svg xmlns="http://www.w3.org/2000/svg" width="21.176" height="15" viewBox="0 0 21.176 15">
  <g id="camera99" transform="translate(0 -43.75)">
    <g id="Group_1609" data-name="Group 1609" transform="translate(0 43.75)">
      <g id="Group_1608" data-name="Group 1608" transform="translate(0 0)">
        <path id="Path_1915" data-name="Path 1915" d="M18.306,45.515H14.687L13.9,43.989a.44.44,0,0,0-.392-.239H8.186a.441.441,0,0,0-.392.239l-.787,1.526h-2.6v-.882a.441.441,0,1,0-.882,0v.882H3.305A3.131,3.131,0,0,0,0,48.391V55.45a3.479,3.479,0,0,0,3.305,3.3h15a3.125,3.125,0,0,0,2.87-3.3v-7.06A2.749,2.749,0,0,0,18.306,45.515Zm1.988,9.936a2.251,2.251,0,0,1-1.988,2.417h-15A2.584,2.584,0,0,1,.882,55.451v-7.06A2.256,2.256,0,0,1,3.305,46.4h3.97a.443.443,0,0,0,.393-.239l.787-1.526H13.24l.785,1.526a.442.442,0,0,0,.393.239h3.888a1.866,1.866,0,0,1,1.988,1.994Z" transform="translate(0 -43.75)" fill="#00124e"/>
        <path id="Path_1916" data-name="Path 1916" d="M86.1,87.5a4.853,4.853,0,1,0,4.854,4.853A4.859,4.859,0,0,0,86.1,87.5Zm0,8.824a3.971,3.971,0,1,1,3.971-3.971A3.975,3.975,0,0,1,86.1,96.324Z" transform="translate(-75.515 -84.412)" fill="#00124e"/>
        <path id="Path_1917" data-name="Path 1917" d="M245.074,93.75h-.882a.441.441,0,0,0,0,.882h.882a.441.441,0,1,0,0-.882Z" transform="translate(-226.544 -90.221)" fill="#00124e"/>
      </g>
    </g>
  </g>
</svg>
