<svg xmlns="http://www.w3.org/2000/svg" width="18.003" height="18" viewBox="0 0 18.003 18">
  <g id="carth13" transform="translate(-1.25 -1.254)">
    <path id="Path_1979" data-name="Path 1979" d="M5.069,5.547a.642.642,0,0,1-.444-.184.632.632,0,0,1,0-.888l3.04-3.04a.628.628,0,0,1,.888.888l-3.04,3.04A.658.658,0,0,1,5.069,5.547Z" transform="translate(-0.519)" fill="#292d32"/>
    <path id="Path_1980" data-name="Path 1980" d="M18.1,5.547a.621.621,0,0,1-.444-.184l-3.04-3.04a.628.628,0,0,1,.888-.888l3.04,3.04a.632.632,0,0,1,0,.888A.642.642,0,0,1,18.1,5.547Z" transform="translate(-2.144)" fill="#292d32"/>
    <path id="Path_1981" data-name="Path 1981" d="M17.126,9.707H3.553A2.255,2.255,0,0,1,1.811,9.23,2.434,2.434,0,0,1,1.25,7.4c0-2.3,1.683-2.3,2.487-2.3H16.766c.8,0,2.487,0,2.487,2.3a2.421,2.421,0,0,1-.561,1.825A2.077,2.077,0,0,1,17.126,9.707ZM3.737,8.451H16.958c.377.008.728.008.846-.109.059-.059.184-.26.184-.938,0-.946-.234-1.047-1.231-1.047H3.737c-1,0-1.231.1-1.231,1.047,0,.678.134.879.184.938a1.685,1.685,0,0,0,.846.109Z" transform="translate(0 -0.626)" fill="#292d32"/>
    <path id="Path_1982" data-name="Path 1982" d="M9.638,17.479a.633.633,0,0,1-.628-.628V13.878a.628.628,0,0,1,1.256,0v2.973A.627.627,0,0,1,9.638,17.479Z" transform="translate(-1.262 -1.951)" fill="#292d32"/>
    <path id="Path_1983" data-name="Path 1983" d="M14.237,17.479a.633.633,0,0,1-.628-.628V13.878a.628.628,0,0,1,1.256,0v2.973A.627.627,0,0,1,14.237,17.479Z" transform="translate(-2.01 -1.951)" fill="#292d32"/>
    <path id="Path_1984" data-name="Path 1984" d="M12.916,20.555H7.867c-3,0-3.668-1.784-3.927-3.333L2.759,9.979A.628.628,0,0,1,4,9.778l1.181,7.235c.243,1.482.745,2.286,2.688,2.286h5.049c2.152,0,2.395-.754,2.671-2.211l1.407-7.327A.627.627,0,0,1,18.225,10l-1.407,7.327C16.491,19.031,15.947,20.555,12.916,20.555Z" transform="translate(-0.244 -1.301)" fill="#292d32"/>
  </g>
</svg>
