<svg xmlns="http://www.w3.org/2000/svg" width="19.096" height="18.008" viewBox="0 0 19.096 18.008">
  <g id="cart10" transform="translate(0.003 -0.379)">
    <path id="Path_7" data-name="Path 7" d="M98.227,322.332a2.274,2.274,0,1,0,2.274,2.274A2.274,2.274,0,0,0,98.227,322.332Zm0,3.712a1.438,1.438,0,1,1,1.438-1.438A1.438,1.438,0,0,1,98.227,326.044Zm0,0" transform="translate(-91.945 -308.494)"/>
    <path id="Path_8" data-name="Path 8" d="M18.678,4.294H3.916l-.3-1.685A2.513,2.513,0,0,0,1.58.577L.488.385a.418.418,0,1,0-.146.824l1.1.192A1.672,1.672,0,0,1,2.792,2.756L4.272,11.1a2.086,2.086,0,0,0,2.057,1.727h8.779a2.085,2.085,0,0,0,2-1.484l1.965-6.513a.437.437,0,0,0-.063-.372A.423.423,0,0,0,18.678,4.294ZM16.312,11.1a1.245,1.245,0,0,1-1.2.891H6.333A1.248,1.248,0,0,1,5.1,10.954L4.067,5.126H18.118Zm0,0" transform="translate(0)"/>
    <path id="Path_9" data-name="Path 9" d="M308.228,322.332a2.274,2.274,0,1,0,2.274,2.274A2.274,2.274,0,0,0,308.228,322.332Zm0,3.712a1.438,1.438,0,1,1,1.438-1.438A1.438,1.438,0,0,1,308.228,326.044Zm0,0" transform="translate(-293.165 -308.494)"/>
  </g>
</svg>
