<svg xmlns="http://www.w3.org/2000/svg" width="17.005" height="16.003" viewBox="0 0 17.005 16.003">
  <g id="cart5" transform="translate(0.003 -0.379)">
    <path id="Path_7" data-name="Path 7" d="M97.973,322.332a2.02,2.02,0,1,0,2.02,2.02A2.02,2.02,0,0,0,97.973,322.332Zm0,3.3a1.277,1.277,0,1,1,1.277-1.277A1.277,1.277,0,0,1,97.973,325.629Zm0,0" transform="translate(-92.381 -309.99)" fill="#454545"/>
    <path id="Path_8" data-name="Path 8" d="M16.633,3.859H3.487l-.268-1.5A2.236,2.236,0,0,0,1.406.555L.435.384a.372.372,0,1,0-.13.732l.975.171a1.488,1.488,0,0,1,1.206,1.2L3.8,9.913a1.857,1.857,0,0,0,1.832,1.535h7.818a1.856,1.856,0,0,0,1.783-1.319l1.75-5.79a.388.388,0,0,0-.056-.331A.377.377,0,0,0,16.633,3.859Zm-2.107,6.05a1.109,1.109,0,0,1-1.068.792H5.639a1.111,1.111,0,0,1-1.1-.922L3.621,4.6H16.134Zm0,0" transform="translate(0 0)" fill="#454545"/>
    <path id="Path_9" data-name="Path 9" d="M307.973,322.332a2.02,2.02,0,1,0,2.02,2.02A2.02,2.02,0,0,0,307.973,322.332Zm0,3.3a1.277,1.277,0,1,1,1.277-1.277A1.277,1.277,0,0,1,307.973,325.629Zm0,0" transform="translate(-294.551 -309.99)" fill="#454545"/>
  </g>
</svg>
