<svg xmlns="http://www.w3.org/2000/svg" width="18.321" height="25.022" viewBox="0 0 18.321 25.022">
  <g id="cart113" transform="translate(-68.557)">
    <g id="Group_1553" data-name="Group 1553" transform="translate(68.557)">
      <path id="Path_1552" data-name="Path 1552" d="M86.866,21.611,85.535,6.967a.784.784,0,0,0-.78-.712H82.408V4.692a4.692,4.692,0,0,0-9.383,0V6.256H70.679a.781.781,0,0,0-.779.712L68.57,21.611a3.127,3.127,0,0,0,3.115,3.411H83.75a3.127,3.127,0,0,0,3.115-3.411ZM74.589,4.692a3.128,3.128,0,1,1,6.256,0V6.256H74.589ZM84.9,22.95a1.552,1.552,0,0,1-1.156.508H71.685a1.564,1.564,0,0,1-1.556-1.706L71.394,7.819h1.631v2.346a.782.782,0,0,0,1.564,0V7.819h6.256v2.346a.782.782,0,0,0,1.564,0V7.819H84.04l1.267,13.934A1.544,1.544,0,0,1,84.9,22.95Z" transform="translate(-68.557)" fill="#fff"/>
    </g>
  </g>
</svg>
