<svg xmlns="http://www.w3.org/2000/svg" width="15.939" height="15" viewBox="0 0 15.939 15">
  <g id="cart12" transform="translate(0.003 -0.379)">
    <path id="Path_7" data-name="Path 7" d="M97.845,322.332a1.892,1.892,0,1,0,1.892,1.892A1.892,1.892,0,0,0,97.845,322.332Zm0,3.088a1.2,1.2,0,1,1,1.2-1.2A1.2,1.2,0,0,1,97.845,325.42Zm0,0" transform="translate(-92.604 -310.737)" fill="#fff"/>
    <path id="Path_8" data-name="Path 8" d="M15.59,3.642H3.269l-.251-1.4A2.1,2.1,0,0,0,1.318.544L.407.384a.349.349,0,1,0-.122.686l.914.16A1.4,1.4,0,0,1,2.33,2.36L3.565,9.318a1.741,1.741,0,0,0,1.717,1.439H12.61A1.74,1.74,0,0,0,14.282,9.52l1.64-5.429a.364.364,0,0,0-.052-.31A.354.354,0,0,0,15.59,3.642ZM13.615,9.314a1.039,1.039,0,0,1-1,.742H5.286a1.041,1.041,0,0,1-1.029-.864L3.394,4.335H15.123Zm0,0" transform="translate(0 0)" fill="#fff"/>
    <path id="Path_9" data-name="Path 9" d="M307.845,322.332a1.892,1.892,0,1,0,1.892,1.892A1.892,1.892,0,0,0,307.845,322.332Zm0,3.088a1.2,1.2,0,1,1,1.2-1.2A1.2,1.2,0,0,1,307.845,325.42Zm0,0" transform="translate(-295.262 -310.737)" fill="#fff"/>
  </g>
</svg>
