<svg xmlns="http://www.w3.org/2000/svg" width="17.165" height="15.044" viewBox="0 0 17.165 15.044">
  <g id="chatting" transform="translate(0 -31.626)">
    <path id="Path_1431" data-name="Path 1431" d="M0,42.267a.5.5,0,0,0,.795.409L3.56,40.7a1.353,1.353,0,0,1,.79-.253H10.43a1.943,1.943,0,0,0,1.941-1.941V32.129a.5.5,0,0,0-.5-.5H1.941A1.943,1.943,0,0,0,0,33.567Zm1.006-8.7a.936.936,0,0,1,.935-.935h9.425V38.51a.936.936,0,0,1-.935.935H4.35a2.353,2.353,0,0,0-1.374.44L1.006,41.29Z" transform="translate(0 0)" fill="#fd4949"/>
    <path id="Path_1432" data-name="Path 1432" d="M155.342,149.907a1.943,1.943,0,0,0-1.941-1.941h-1.343a.5.5,0,1,0,0,1.006H153.4a.937.937,0,0,1,.935.936v7.723l-1.97-1.405a2.353,2.353,0,0,0-1.374-.44h-6.081a.937.937,0,0,1-.935-.936V154.4a.5.5,0,1,0-1.006,0v.451a1.943,1.943,0,0,0,1.941,1.941h6.081a1.352,1.352,0,0,1,.79.253l2.765,1.972a.5.5,0,0,0,.795-.409v-8.7Z" transform="translate(-138.177 -112.44)" fill="#fd4949"/>
    <path id="Path_1433" data-name="Path 1433" d="M93.365,114.345h5.81a.5.5,0,1,0,0-1.006h-5.81a.5.5,0,1,0,0,1.006Z" transform="translate(-89.749 -78.974)" fill="#fd4949"/>
    <path id="Path_1434" data-name="Path 1434" d="M93.365,184.345h5.81a.5.5,0,0,0,0-1.006h-5.81a.5.5,0,0,0,0,1.006Z" transform="translate(-89.749 -146.627)" fill="#fd4949"/>
  </g>
</svg>
