<svg xmlns="http://www.w3.org/2000/svg" width="68.35" height="60.071" viewBox="0 0 68.35 60.071">
  <g id="chat" transform="translate(0 -31.007)">
    <path id="Path_1539" data-name="Path 1539" d="M62.342,47.025H58.213a26.048,26.048,0,0,0-48.065,0H6.007A6.014,6.014,0,0,0,0,53.032v8.01a6.014,6.014,0,0,0,6.007,6.007h8.2l-.858-2.625A22.076,22.076,0,1,1,34.206,79.064a6.007,6.007,0,1,0,5.977,6.007V82.366A26.133,26.133,0,0,0,58.2,67.049h4.138a6.014,6.014,0,0,0,6.007-6.007v-8.01a6.014,6.014,0,0,0-6.007-6.007ZM8.819,63.044H6.007a2,2,0,0,1-2-2v-8.01a2,2,0,0,1,2-2H8.843q-.107.45-.2.9A26.427,26.427,0,0,0,8.819,63.044ZM36.177,85.071a2,2,0,0,1-4,0,2.025,2.025,0,0,1,2.039-2q.988,0,1.966-.077ZM64.345,61.042a2,2,0,0,1-2,2H59.505a26.224,26.224,0,0,0,.358-10.28q-.14-.873-.344-1.734h2.824a2,2,0,0,1,2,2Z" fill="#f27001"/>
    <path id="Path_1540" data-name="Path 1540" d="M181,210.993h4v4h-4Z" transform="translate(-156.837 -155.958)" fill="#f27001"/>
    <path id="Path_1541" data-name="Path 1541" d="M241,210.993h4v4h-4Z" transform="translate(-208.828 -155.958)" fill="#f27001"/>
    <path id="Path_1542" data-name="Path 1542" d="M301,210.993h4v4h-4Z" transform="translate(-260.818 -155.958)" fill="#f27001"/>
    <path id="Path_1543" data-name="Path 1543" d="M121,123.032v4h18.022a18.021,18.021,0,1,0-14.173-6.89A3.982,3.982,0,0,1,121,123.032ZM139.022,95a14.017,14.017,0,0,1,0,28.034H127.939a7.976,7.976,0,0,0,1.038-3.267l.079-.857-.568-.647A14.017,14.017,0,0,1,139.022,95Z" transform="translate(-104.847 -51.978)" fill="#f27001"/>
  </g>
</svg>
