<svg xmlns="http://www.w3.org/2000/svg" width="30.431" height="30.431" viewBox="0 0 30.431 30.431">
  <g id="clock_10" transform="translate(-0.001 -0.004)">
    <path id="Path_194" data-name="Path 194" d="M9.2,52.816H.963a.951.951,0,0,1-.951-.951V43.623a.951.951,0,0,1,1.9,0v7.291H9.2a.951.951,0,1,1,0,1.9Zm0,0" transform="translate(-0.01 -40.132)" fill="#fd6700"/>
    <path id="Path_195" data-name="Path 195" d="M248.887,116.5h-7.925a.951.951,0,0,1-.951-.951v-7.925a.951.951,0,0,1,1.9,0V114.6h6.974a.951.951,0,0,1,0,1.9Zm0,0" transform="translate(-225.745 -100.328)" fill="#fd6700"/>
    <path id="Path_196" data-name="Path 196" d="M15.217,30.435A15.059,15.059,0,0,1,4.464,25.97a.951.951,0,1,1,1.348-1.343,13.17,13.17,0,0,0,9.406,3.905,13.313,13.313,0,0,0,0-26.627A13.755,13.755,0,0,0,1.876,11.966.952.952,0,0,1,.03,11.5,15.683,15.683,0,0,1,15.217,0a15.215,15.215,0,0,1,0,30.431Zm0,0" transform="translate(0)" fill="#fd6700"/>
  </g>
</svg>
