<svg id="close_search_icon" xmlns="http://www.w3.org/2000/svg" width="20" height="21" viewBox="0 0 20 21">
  <path id="Path_1781" data-name="Path 1781" d="M10,21A10.271,10.271,0,0,1,0,10.5,10.271,10.271,0,0,1,10,0,10.271,10.271,0,0,1,20,10.5,10.271,10.271,0,0,1,10,21ZM10,1.313A8.987,8.987,0,0,0,1.25,10.5,8.987,8.987,0,0,0,10,19.688,8.987,8.987,0,0,0,18.75,10.5,8.987,8.987,0,0,0,10,1.313Zm0,0" fill="#6e446e"/>
  <path id="Path_1782" data-name="Path 1782" d="M161.442,168.212a.625.625,0,0,1-.442-1.067l6.187-6.188a.625.625,0,0,1,.884.884l-6.188,6.187A.626.626,0,0,1,161.442,168.212Zm0,0" transform="translate(-154.535 -153.994)" fill="#6e446e"/>
  <path id="Path_1783" data-name="Path 1783" d="M167.607,168.232a.62.62,0,0,1-.442-.183l-6.187-6.187a.625.625,0,1,1,.884-.884l6.187,6.187a.625.625,0,0,1-.443,1.067Zm0,0" transform="translate(-154.514 -154.013)" fill="#6e446e"/>
</svg>
