<svg xmlns="http://www.w3.org/2000/svg" width="70.346" height="69.958" viewBox="0 0 70.346 69.958">
  <g id="contact_icon_3" transform="translate(0.346 -0.038)" opacity="0.2">
    <path id="Shape" d="M1328,554.647a8.277,8.277,0,1,1-8.28-8.474,8.15,8.15,0,0,1,1.691.177,29.757,29.757,0,0,0,.679-6.23,29.047,29.047,0,0,0-13.53-24.757,1.225,1.225,0,0,1-.38-1.666,1.157,1.157,0,0,1,1.62-.4,31.45,31.45,0,0,1,14.65,26.819,32.408,32.408,0,0,1-.8,7.068,8.51,8.51,0,0,1,4.35,7.463Zm-2.37,0a5.912,5.912,0,1,0-5.91,6.053A5.989,5.989,0,0,0,1325.63,554.647Z" transform="translate(-1258 -501.125)" fill="#393939" fill-rule="evenodd"/>
    <path id="Shape-2" data-name="Shape" d="M1305.91,567.062a1.255,1.255,0,0,1-.66,1.619,30.816,30.816,0,0,1-12.06,2.44,31.3,31.3,0,0,1-22.59-9.75,8.339,8.339,0,0,1-4.11,1.083,8.6,8.6,0,1,1,6.05-2.59,28.89,28.89,0,0,0,20.65,8.781,28.475,28.475,0,0,0,11.13-2.251,1.212,1.212,0,0,1,1.59.668Zm-39.42-7.084a6.192,6.192,0,1,0-6.06-6.19,6.192,6.192,0,0,0,6.06,6.19Z" transform="translate(-1258 -501.125)" fill="#393939" fill-rule="evenodd"/>
    <path id="Shape-3" data-name="Shape" d="M1262,537.818a31.482,31.482,0,0,1,23-28.206,8.5,8.5,0,1,1,.34,2.431,29.041,29.041,0,0,0-20.91,25.946,1.219,1.219,0,0,1-1.21,1.132h-.09a1.223,1.223,0,0,1-1.13-1.3Zm25.42-28.176a6.075,6.075,0,1,0,6.08-6.086A6.075,6.075,0,0,0,1287.42,509.642Z" transform="translate(-1258 -501.125)" fill="#393939" fill-rule="evenodd"/>
  </g>
</svg>
