<svg xmlns="http://www.w3.org/2000/svg" width="70" height="49" viewBox="0 0 70 49">
  <g id="contact_icon_2" transform="translate(0 0.004)" opacity="0.2">
    <g id="Group">
      <path id="Path" d="M873.823,550.64a1.159,1.159,0,0,0-.05-1.614L860.9,536.688a1.1,1.1,0,0,0-1.582.05,1.159,1.159,0,0,0,.049,1.614L872.24,550.69a1.1,1.1,0,0,0,1.583-.05Z" transform="translate(-816 -512.125)" fill="#393939" fill-rule="evenodd"/>
      <path id="Path-2" data-name="Path" d="M830.784,550.69l12.883-12.338a1.16,1.16,0,0,0,.049-1.614,1.1,1.1,0,0,0-1.582-.05l-12.883,12.338a1.159,1.159,0,0,0-.049,1.614,1.1,1.1,0,0,0,1.582.05Z" transform="translate(-816 -512.125)" fill="#393939" fill-rule="evenodd"/>
    </g>
    <path id="Shape" d="M886,555.565V517.677a5.606,5.606,0,0,0-5.643-5.556H821.643A5.606,5.606,0,0,0,816,517.677v37.888a5.606,5.606,0,0,0,5.643,5.556h58.714A5.607,5.607,0,0,0,886,555.565Zm-5.643-41.222a3.364,3.364,0,0,1,3.386,3.334v37.888a3.364,3.364,0,0,1-3.386,3.333H821.643a3.364,3.364,0,0,1-3.386-3.333V517.677a3.364,3.364,0,0,1,3.386-3.334Z" transform="translate(-816 -512.125)" fill="#393939" fill-rule="evenodd"/>
    <path id="Path-3" data-name="Path" d="M855.226,539.664l29.382-24.578a1.069,1.069,0,0,0,.11-1.551,1.181,1.181,0,0,0-1.618-.106l-29.382,24.577a4.427,4.427,0,0,1-5.4,0L818.9,513.39a1.186,1.186,0,0,0-1.617.1,1.07,1.07,0,0,0,.112,1.552l29.419,24.619a6.806,6.806,0,0,0,8.412,0Z" transform="translate(-816 -512.125)" fill="#393939" fill-rule="evenodd"/>
  </g>
</svg>
