<svg xmlns="http://www.w3.org/2000/svg" width="45" height="69.844" viewBox="0 0 45 69.844">
  <g id="contact_icon_1" transform="translate(0 -0.152)" opacity="0.2">
    <path id="Path" d="M460,532.777c0,18.71-20.507,45.653-21.38,46.79a1.409,1.409,0,0,1-1.985.257,1.432,1.432,0,0,1-.255-2c.208-.271,20.79-27.312,20.79-45.049a19.671,19.671,0,1,0-39.342,0c0,5.791,2.381,16.5,13.717,34.615a1.431,1.431,0,0,1-.443,1.965,1.409,1.409,0,0,1-1.95-.446C422.7,558.593,415,543.949,415,532.777a22.5,22.5,0,0,1,45,0Z" transform="translate(-415 -510.125)" fill="#393939" fill-rule="evenodd"/>
    <path id="Path-2" data-name="Path" d="M430.828,532.121a7.172,7.172,0,0,0,14.344,0,7.1,7.1,0,0,0-1.456-4.332,1.414,1.414,0,1,1,2.253-1.71A10,10,0,1,1,438,522.121a1.414,1.414,0,1,1,0,2.828A7.18,7.18,0,0,0,430.828,532.121Z" transform="translate(-415 -510.125)" fill="#393939" fill-rule="evenodd"/>
  </g>
</svg>
