<svg xmlns="http://www.w3.org/2000/svg" width="48.457" height="30.652" viewBox="0 0 48.457 30.652">
  <g id="delevary_8" transform="translate(0 -94.062)">
    <g id="Group_10" data-name="Group 10" transform="translate(0 94.062)">
      <g id="Group_9" data-name="Group 9" transform="translate(0 0)">
        <path id="Path_188" data-name="Path 188" d="M45.065,107.057l-1.255-5.019a.759.759,0,0,0,.6-.742v-.809A3.19,3.19,0,0,0,41.224,97.3H35.508V95.63a1.57,1.57,0,0,0-1.568-1.568H4.805A1.57,1.57,0,0,0,3.237,95.63v13.758a.759.759,0,1,0,1.517,0V95.63a.051.051,0,0,1,.051-.051H33.94a.051.051,0,0,1,.051.051v13.758a.759.759,0,1,0,1.517,0v-.86h8.954a2.483,2.483,0,0,1,2.358,1.72H44.461a.759.759,0,0,0-.759.759v1.619A2.38,2.38,0,0,0,46.079,115h.86v3.338H44.955a4.8,4.8,0,0,0-9.082,0h-.365v-5.716a.759.759,0,1,0-1.517,0v5.716H18.249a4.8,4.8,0,0,0-9.082,0H4.805a.051.051,0,0,1-.051-.051v-1.669H8.042a.759.759,0,1,0,0-1.517H.759a.759.759,0,1,0,0,1.517H3.237v1.669a1.57,1.57,0,0,0,1.568,1.568H8.9c0,.017,0,.034,0,.051a4.805,4.805,0,0,0,9.61,0c0-.017,0-.034,0-.051h17.1c0,.017,0,.034,0,.051a4.805,4.805,0,0,0,9.61,0c0-.017,0-.034,0-.051H47.7a.759.759,0,0,0,.759-.759v-8.093A4,4,0,0,0,45.065,107.057Zm-9.557-8.24h5.716a1.671,1.671,0,0,1,1.669,1.669v.051H35.508Zm0,8.194v-4.957H42.25l1.239,4.957ZM13.708,123.2A3.288,3.288,0,1,1,17,119.909,3.291,3.291,0,0,1,13.708,123.2Zm26.707,0a3.288,3.288,0,1,1,3.288-3.288A3.291,3.291,0,0,1,40.415,123.2Zm6.525-9.712h-.86a.861.861,0,0,1-.86-.86v-.86h1.72v1.72Z" transform="translate(0 -94.062)" fill="#ed078b"/>
      </g>
    </g>
    <g id="Group_12" data-name="Group 12" transform="translate(12.14 118.341)">
      <g id="Group_11" data-name="Group 11">
        <path id="Path_189" data-name="Path 189" d="M129.835,350.6a1.568,1.568,0,1,0,1.568,1.568A1.57,1.57,0,0,0,129.835,350.6Z" transform="translate(-128.267 -350.597)" fill="#ed078b"/>
      </g>
    </g>
    <g id="Group_14" data-name="Group 14" transform="translate(38.846 118.341)">
      <g id="Group_13" data-name="Group 13">
        <path id="Path_190" data-name="Path 190" d="M412.023,350.6a1.568,1.568,0,1,0,1.568,1.568A1.57,1.57,0,0,0,412.023,350.6Z" transform="translate(-410.455 -350.597)" fill="#ed078b"/>
      </g>
    </g>
    <g id="Group_16" data-name="Group 16" transform="translate(19.423 115.104)">
      <g id="Group_15" data-name="Group 15" transform="translate(0 0)">
        <path id="Path_191" data-name="Path 191" d="M217.316,316.393h-11.33a.759.759,0,0,0,0,1.518h11.33a.759.759,0,0,0,0-1.518Z" transform="translate(-205.227 -316.393)" fill="#ed078b"/>
      </g>
    </g>
    <g id="Group_18" data-name="Group 18" transform="translate(1.619 111.867)">
      <g id="Group_17" data-name="Group 17">
        <path id="Path_192" data-name="Path 192" d="M27.572,282.188H17.861a.759.759,0,1,0,0,1.517h9.712a.759.759,0,1,0,0-1.517Z" transform="translate(-17.102 -282.188)" fill="#ed078b"/>
      </g>
    </g>
    <g id="Group_20" data-name="Group 20" transform="translate(13.758 101.346)">
      <g id="Group_19" data-name="Group 19" transform="translate(0 0)">
        <path id="Path_193" data-name="Path 193" d="M158,171.245a.759.759,0,0,0-1.073,0l-6.747,6.747-3.51-3.51a.759.759,0,0,0-1.073,1.073l4.047,4.047a.758.758,0,0,0,1.073,0L158,172.318A.759.759,0,0,0,158,171.245Z" transform="translate(-145.37 -171.023)" fill="#ed078b"/>
      </g>
    </g>
  </g>
</svg>
