<svg id="Drones99" xmlns="http://www.w3.org/2000/svg" width="15.005" height="15.005" viewBox="0 0 15.005 15.005">
  <path id="Path_1937" data-name="Path 1937" d="M15.751,19.5A3.755,3.755,0,0,1,12,15.751V14.8h.625v.955a3.126,3.126,0,1,0,3.126-3.126h-.938V12h.938a3.751,3.751,0,0,1,0,7.5Z" transform="translate(-4.498 -4.498)" fill="#00124e"/>
  <path id="Path_1938" data-name="Path 1938" d="M15.751,7.5h-.938V6.877h.938a3.126,3.126,0,1,0-3.126-3.126v.938H12V3.751A3.751,3.751,0,1,1,15.751,7.5Z" transform="translate(-4.498)" fill="#00124e"/>
  <path id="Path_1939" data-name="Path 1939" d="M10.126,13.252a3.126,3.126,0,1,1,3.126-3.126A3.13,3.13,0,0,1,10.126,13.252Zm0-5.627a2.5,2.5,0,1,0,2.5,2.5A2.5,2.5,0,0,0,10.126,7.625Z" transform="translate(-2.624 -2.624)" fill="#00124e"/>
  <path id="Path_1940" data-name="Path 1940" d="M3.751,19.5a3.751,3.751,0,0,1,0-7.5h.938v.625H3.751a3.126,3.126,0,1,0,3.126,3.126v-.938H7.5v.938A3.755,3.755,0,0,1,3.751,19.5Z" transform="translate(0 -4.498)" fill="#00124e"/>
  <path id="Path_1941" data-name="Path 1941" d="M4.689,7.5H3.751A3.751,3.751,0,1,1,7.5,3.751v.938H6.877V3.751A3.126,3.126,0,1,0,3.751,6.877h.938Z" fill="#00124e"/>
  <path id="Path_1942" data-name="Path 1942" d="M7.294,7.606a.314.314,0,0,1-.221-.091L4.842,5.284a.313.313,0,0,1,.442-.442L7.515,7.073a.312.312,0,0,1-.221.533Z" transform="translate(-1.781 -1.781)" fill="#00124e"/>
  <path id="Path_1943" data-name="Path 1943" d="M17.223,17.536A.314.314,0,0,1,17,17.445L14.767,15.21a.313.313,0,0,1,.442-.442L17.444,17a.312.312,0,0,1-.221.533Z" transform="translate(-5.5 -5.501)" fill="#00124e"/>
  <path id="Path_1944" data-name="Path 1944" d="M3.313,5.5a.312.312,0,0,1-.221-.533L4.967,3.092a.313.313,0,0,1,.442.442L3.533,5.41a.311.311,0,0,1-.221.091Z" transform="translate(-1.124 -1.125)" fill="#00124e"/>
  <path id="Path_1945" data-name="Path 1945" d="M17.313,19.5a.312.312,0,0,1-.221-.533l1.876-1.876a.313.313,0,0,1,.442.442L17.533,19.41A.311.311,0,0,1,17.313,19.5Z" transform="translate(-6.371 -6.372)" fill="#00124e"/>
  <path id="Path_1946" data-name="Path 1946" d="M14.995,7.607a.312.312,0,0,1-.221-.533L17,4.843a.313.313,0,0,1,.442.442l-2.23,2.23a.311.311,0,0,1-.221.091Z" transform="translate(-5.503 -1.781)" fill="#00124e"/>
  <path id="Path_1947" data-name="Path 1947" d="M5.063,17.539a.312.312,0,0,1-.221-.533l2.23-2.23a.313.313,0,1,1,.442.442l-2.23,2.23a.311.311,0,0,1-.221.091Z" transform="translate(-1.78 -5.503)" fill="#00124e"/>
  <path id="Path_1948" data-name="Path 1948" d="M19.188,5.5a.314.314,0,0,1-.221-.091L17.091,3.534a.313.313,0,1,1,.442-.442l1.876,1.876a.312.312,0,0,1-.221.533Z" transform="translate(-6.371 -1.125)" fill="#00124e"/>
  <path id="Path_1949" data-name="Path 1949" d="M5.188,19.5a.314.314,0,0,1-.221-.091L3.091,17.534a.313.313,0,0,1,.442-.442l1.876,1.876a.312.312,0,0,1-.221.533Z" transform="translate(-1.124 -6.372)" fill="#00124e"/>
  <path id="Path_1950" data-name="Path 1950" d="M12.188,10.625H10.313a.313.313,0,1,1,0-.625h1.876a.313.313,0,0,1,0,.625Z" transform="translate(-3.748 -3.748)" fill="#00124e"/>
  <path id="Path_1951" data-name="Path 1951" d="M12.188,13.625H10.313a.313.313,0,1,1,0-.625h1.876a.313.313,0,0,1,0,.625Z" transform="translate(-3.748 -4.872)" fill="#00124e"/>
</svg>
