<?xml version="1.0" standalone="no"?>
<!DOCTYPE svg PUBLIC "-//W3C//DTD SVG 1.0//EN" "http://www.w3.org/TR/2001/REC-SVG-20010904/DTD/svg10.dtd">
<svg xmlns="http://www.w3.org/2000/svg" xmlns:xlink="http://www.w3.org/1999/xlink" id="body_1" width="25" height="25">

<g transform="matrix(0.048828125 0 0 0.048828125 0 0)">
    <path d="M134.941 272.691L191.064 272.691L191.064 503.742C 191.064 508.30402 194.76 512 199.32199 512L199.32199 512L294.481 512C 299.043 512 302.73898 508.304 302.73898 503.742L302.73898 503.742L302.73898 273.78L367.258 273.78C 371.453 273.78 374.983 270.632 375.462 266.465L375.462 266.465L385.26102 181.40399C 385.53003 179.064 384.78903 176.71999 383.22302 174.96399C 381.65604 173.20699 379.41302 172.20099 377.05902 172.20099L377.05902 172.20099L302.743 172.20099L302.743 118.88C 302.743 102.807 311.397 94.656 328.46902 94.656C 330.90204 94.656 377.05902 94.656 377.05902 94.656C 381.62103 94.656 385.31702 90.958 385.31702 86.397995L385.31702 86.397995L385.31702 8.319C 385.31702 3.7570004 381.621 0.06099987 377.05902 0.06099987L377.05902 0.06099987L310.09402 0.06099987C 309.622 0.038 308.573 0 307.027 0C 295.40802 0 255.02101 2.281 223.11801 31.63C 187.77002 64.154 192.684 103.09499 193.85802 109.847L193.85802 109.847L193.85802 172.199L134.94002 172.199C 130.37802 172.199 126.682014 175.895 126.682014 180.457L126.682014 180.457L126.682014 264.432C 126.683 268.993 130.379 272.691 134.941 272.691z" stroke="none" fill="#385C8E" fill-rule="nonzero" />
	<g>
	</g>
	<g>
	</g>
	<g>
	</g>
	<g>
	</g>
	<g>
	</g>
	<g>
	</g>
	<g>
	</g>
	<g>
	</g>
	<g>
	</g>
	<g>
	</g>
	<g>
	</g>
	<g>
	</g>
	<g>
	</g>
	<g>
	</g>
	<g>
	</g>
</g>
</svg>