<svg xmlns="http://www.w3.org/2000/svg" xmlns:xlink="http://www.w3.org/1999/xlink" width="20" height="20" viewBox="0 0 20 20">
  <defs>
    <clipPath id="clip-path">
      <circle id="Ellipse_87" data-name="Ellipse 87" cx="10" cy="10" r="10" transform="translate(1463 60)" fill="#d6d6d6"/>
    </clipPath>
  </defs>
  <g id="flag4" transform="translate(-1463 -60)" clip-path="url(#clip-path)">
    <g id="_003-saudi-arabia" data-name="003-saudi-arabia" transform="translate(1458 54.5)">
      <path id="Path_3144" data-name="Path 3144" d="M0,5.5H30.476v20H0Z" fill="#3d9635"/>
      <g id="Group_2653" data-name="Group 2653" transform="translate(5.541 8.427)">
        <path id="Path_3145" data-name="Path 3145" d="M5.959,10c-.045.7-.1,1.938.428,2.064.639.066.286-1.22.517-1.453.044-.114.125-.114.131.03v1.1a.506.506,0,0,0,.365.526c.168-.011.279-.006.345.18.028.629.052,1.256.078,1.885,0,0,.391.131.41-1.059a12.369,12.369,0,0,1-.045-1.417c0-.131.152-.144.261-.071.168.131.242.292.5.227.4-.126.631-.334.638-.682a3.291,3.291,0,0,0-.178-.975c.018-.06-.078-.209-.058-.269.07.126.177.113.2,0a.99.99,0,0,0-.339-.592c-.141-.138-.349-.108-.424.186a1.735,1.735,0,0,0,.327,1.048,1.158,1.158,0,0,1,.079.527.236.236,0,0,1-.323-.072s-.318-.269-.318-.323a1.429,1.429,0,0,0-.027-.844,1.137,1.137,0,0,0-.209-.454c-.078-.1-.185-.1-.235,0a1.757,1.757,0,0,0,.025,1.112c.07.24.184.39.132.39-.045.137-.133.1-.2-.054a4.32,4.32,0,0,1-.11-1.023c-.03-.27-.061-.844-.218-.993-.1-.144-.239-.071-.286.066a6,6,0,0,0,.016.778,9.549,9.549,0,0,1,.2,1.259c.013.592-.3.257-.286-.042A3.018,3.018,0,0,0,7.34,9.914c-.052-.156-.113-.19-.241-.162-.1-.011-.358.306-.43.831a4.752,4.752,0,0,0-.088.515c-.037.269-.2.46-.306-.042-.1-.366-.156-1.263-.317-1.053" transform="translate(-5.823 -8.59)" fill="#fff"/>
        <path id="Path_3146" data-name="Path 3146" d="M7.7,13.058c-.566.317-1.113.6-1.67.9a1.771,1.771,0,0,1,1.321-1.2c.343.012.255.15.349.3" transform="translate(-5.828 -8.773)" fill="#fff"/>
        <path id="Path_3147" data-name="Path 3147" d="M9.87,8.914a.49.49,0,0,0-.106.035.354.354,0,0,0-.224.437c.161,1.1.263,1.938.424,3.033.029.131-.07.3-.19.286-.211-.161-.264-.49-.623-.476a.747.747,0,0,0-.6.629,1.78,1.78,0,0,0,0,.717.484.484,0,0,0,.6.168c.157-.071.286-.25.345-.21.034.072-.006.647-.744,1.084-.456.227-.816.286-1.012-.132-.118-.263.01-1.256-.286-1.029C6.575,16,9.51,16.364,9.835,13.564c.022-.078.088-.155.133-.138.023.012.037.042.043.1-.069,2.53-2.27,2.7-2.643,1.9a2.647,2.647,0,0,1-.132-.857.483.483,0,0,0-.1-.286c-.089-.071-.209.126-.235.467a3.429,3.429,0,0,0-.027.61c.117,2.01,2.952,1.149,3.416-.509a6.364,6.364,0,0,0,.071-1.579h.01l.007-.006c.286.341.678.042.762-.072a.123.123,0,0,1,.2-.024.431.431,0,0,0,.684-.215,8.332,8.332,0,0,0,.1-.952.775.775,0,0,0-.307.144.1.1,0,0,0-.022.048c-.011.084-.023.18-.036.27a.222.222,0,0,1-.007.024.056.056,0,0,1-.028.024.1.1,0,0,1-.144-.071c-.067-.341-.346-.4-.516.144-.117.108-.322.125-.345-.025.03-.365-.1-.412-.362-.245-.082-.718-.168-1.4-.251-2.118.11,0,.207.09.308-.048a4.328,4.328,0,0,0-.462-1.214.25.25,0,0,0-.021-.024L9.921,8.91H9.913C9.907,8.9,9.9,8.9,9.9,8.9s-.025-.007-.037,0m-.789,3.93a.149.149,0,0,1,.156.108.21.21,0,0,1-.032.19c-.023.042-.1.024-.152.024a.139.139,0,0,1-.139-.078c-.02-.066.036-.131.063-.185l.01-.018a.2.2,0,0,1,.1-.042" transform="translate(-5.868 -8.589)" fill="#fff"/>
        <path id="Path_3148" data-name="Path 3148" d="M12.035,8.852a.489.489,0,0,0-.2.06.476.476,0,0,0-.067.571c.111.053.223.185.148.25-.314.381-1.136,1.011-1.177,1.131v.011h.007a1.89,1.89,0,0,0,.613.006v-.006a9.091,9.091,0,0,0,1.013-1.149c-.041-.042-.084-.071-.127-.113a.082.082,0,0,1,0-.131.411.411,0,0,0,.035-.571.456.456,0,0,0-.251-.053m-.039.329c.052-.006.112.054.143.126s.015.156-.035.174-.121-.042-.155-.12-.014-.162.038-.173c0,0,0-.007.01-.007" transform="translate(-6.052 -8.587)" fill="#fff"/>
        <path id="Path_3149" data-name="Path 3149" d="M6.087,14.965a2.069,2.069,0,0,0-.171,1.648.329.329,0,0,0,.355.131c.2-.1.286-.544.235-.706-.066-.12-.117-.138-.184-.036-.137.311-.2.1-.208-.084a4.571,4.571,0,0,1,.037-.885c.035-.246,0-.174-.069-.072" transform="translate(-5.818 -8.873)" fill="#fff"/>
        <path id="Path_3150" data-name="Path 3150" d="M20,13.773c-.3-.736-.721-1.46-.857-1.735S18,10.118,17.85,9.927c-.329-.437.532.186-.11-.688-.242-.233-.256-.246-.463-.437-.1-.084-.35-.228-.392.012a1.54,1.54,0,0,0,.022.52,1.809,1.809,0,0,0,.258.443,33.479,33.479,0,0,1,2.8,5.061c.139-.071.11-.939.027-1.065" transform="translate(-6.344 -8.579)" fill="#fff"/>
        <path id="Path_3151" data-name="Path 3151" d="M18.759,16.231c-.061.071.146.4.415.394.449-.053.845-.341,1.21-1.089a2.085,2.085,0,0,0,.276-.838,20.543,20.543,0,0,0-.3-4.235.762.762,0,0,1,.01-.293c.03-.042.128,0,.18-.1.078-.1-.2-.82-.362-1.1-.057-.126-.077-.21-.171.011a1.775,1.775,0,0,0-.157.8c.214,1.664.279,3.129.422,4.792a.733.733,0,0,1-.1.49,4.2,4.2,0,0,1-1.416,1.161" transform="translate(-6.433 -8.587)" fill="#fff"/>
        <path id="Path_3152" data-name="Path 3152" d="M24.149,18.785c-.325.21-.325.454-.062.46a1.544,1.544,0,0,0,1.348-.724,2.63,2.63,0,0,0,.217-.933,24.615,24.615,0,0,0-.244-4.571,2.3,2.3,0,0,1-.045-.43c.03-.078.175.011.225-.084.08-.084-.375-.748-.537-1.03-.055-.126-.074-.21-.17.018a1.429,1.429,0,0,0-.1.8,49.539,49.539,0,0,1,.45,5.169,1.638,1.638,0,0,1-.09.425,3.016,3.016,0,0,1-.439.58c-.149.12-.46.24-.561.33" transform="translate(-6.679 -8.706)" fill="#fff"/>
        <path id="Path_3153" data-name="Path 3153" d="M25.329,14.6c-.006-.425.01-.79-.006-1.107s-.142-1.5-.182-1.753-.09-.64-.15-.945a2.848,2.848,0,0,1-.056-.539c.024-.084.128.006.174-.1a3.611,3.611,0,0,0-.424-1.329c-.059-.126-.17-.084-.3.12-.129.131-.081.43-.033.718a29.563,29.563,0,0,1,.512,5.677c-.019.15.476-.461.469-.748" transform="translate(-6.698 -8.582)" fill="#fff"/>
        <path id="Path_3154" data-name="Path 3154" d="M22.844,12.352c-.2-.006-.629-.443-.752-.7a.549.549,0,0,1,.024-.381c.076-.054.19-.12.277-.054,0,0,.09.138.072.155.11.06.159.024.17-.03.007-.084-.034-.138-.034-.233.047-.27.316-.3.419-.138a1.074,1.074,0,0,1,.113.467c0,.078-.11-.011-.172.007s-.077.1-.082.168c-.013.2-.032.5-.035.735" transform="translate(-6.591 -8.683)" fill="#fff"/>
        <path id="Path_3155" data-name="Path 3155" d="M18.9,15.069c.057-.581-.018-1.753-.024-2.1-.019-.8-.138-2.35-.19-2.609-.064-.49.177.054.142-.232a3.269,3.269,0,0,0-.6-1.263c-.09-.144-.087-.173-.23.036a1.677,1.677,0,0,0,.019.981,20.163,20.163,0,0,1,.381,2.848,28.552,28.552,0,0,1,.023,3.028c.153,0,.4-.286.483-.694" transform="translate(-6.395 -8.582)" fill="#fff"/>
        <path id="Path_3156" data-name="Path 3156" d="M25.937,14.142c-.355-.676-.9-1.466-1.04-1.734s-1.365-2.28-1.518-2.459c-.447-.521.2-.084-.084-.5a3.777,3.777,0,0,0-.528-.571c-.1-.071-.17-.221-.2.024a5.605,5.605,0,0,0-.016.658.886.886,0,0,0,.178.408,38.148,38.148,0,0,1,3.206,5.238c.136-.071.09-.939.006-1.059" transform="translate(-6.614 -8.583)" fill="#fff"/>
        <path id="Path_3157" data-name="Path 3157" d="M20.949,21.139a.35.35,0,0,0-.1.622c-3.34,0-8.465-.059-9.559-.059-.617,0-2.561-.084-2.6-.084a1.887,1.887,0,0,0,1.81.837c1.484,0,8.354-.018,10.307-.018a.836.836,0,0,0,.124.8l.009.006a.01.01,0,0,0,.011.007h.006c.13.035.19-.072.232-.144a12.392,12.392,0,0,0,1.5-.006c.073.119.148.233.286.215.243-.06.434-.09.443-.647,0,0-.026-.945-.579-.885-.131.018-.5.059-.5.059-.426-.053-.74-.059-1.217-.084.045-.059.121-.316.027-.407a.156.156,0,0,0-.114-.035h-.01a.037.037,0,0,1-.01-.012V21.3a1.191,1.191,0,0,1-.053-.162h-.01m.227,1.352c.485.024.942.006,1.429.03a.217.217,0,0,1-.013.275c0,.007,0,.007-.007.007h-.012c-.158-.007-.249-.007-.407-.012,0-.012-.006-.018-.006-.03-.038-.126-.309-.114-.373-.012v.03a.042.042,0,0,0,0,.018,3.028,3.028,0,0,1-.622-.024c-.06-.084-.053-.239.02-.281" transform="translate(-5.954 -9.172)" fill="#fff"/>
        <path id="Path_3158" data-name="Path 3158" d="M12.686,9.413c-.325,1.041.19,2.19.541,2.082.257.113.418-.436.524-1.035.073-.168.127-.19.164-.1-.01.8.05.982.233,1.221a.532.532,0,0,0,.77.011c.027-.024.318-.352.318-.352a.174.174,0,0,1,.265-.012c.1.1.082.27.286.381a.571.571,0,0,0,.633-.15c.117-.221.143-.3.2-.381.085-.126.225-.071.225-.03-.012.071-.1.137-.04.263.1.084.123.03.183.012.207-.114.362-.616.362-.616.007-.19-.085-.173-.149-.131s-.083.071-.163.126c-.1.011-.3.09-.39-.078-.1-.2-.1-.49-.178-.694,0-.011-.13-.317-.009-.341.06.012.19.054.213-.071.065-.12-.138-.467-.277-.634a.286.286,0,0,0-.45-.018.6.6,0,0,0-.12.371.636.636,0,0,0,.109.5,1.678,1.678,0,0,1,.25,1.023.37.37,0,0,1-.33.19c-.086-.024-.229-.066-.3-.688a4.9,4.9,0,0,0-.165-1.453c-.066-.19-.11-.381-.269-.049a.811.811,0,0,0-.1.712,2.35,2.35,0,0,1,.1,1.107,2.035,2.035,0,0,1-.19.3.292.292,0,0,1-.4.06.483.483,0,0,1-.239-.381,6.03,6.03,0,0,0-.032-1.221c-.1-.228-.259-.144-.327-.078a2.9,2.9,0,0,0-.6,1.382c-.1.335-.19.239-.261.1-.168-.173-.18-1.562-.381-1.333" transform="translate(-6.14 -8.574)" fill="#fff"/>
        <path id="Path_3159" data-name="Path 3159" d="M13.655,11.723c0,.006,0,.006-.01.006v.006c-.021.012-.049.054-.1.1a.571.571,0,0,0-.1.449c0,.03.178.571.329.963a3.359,3.359,0,0,1,.125,1.3,3.035,3.035,0,0,1-1.164,1.364.535.535,0,0,1-.486,0V15.9a.346.346,0,0,1-.131-.311,2.977,2.977,0,0,0,1.17-1.358,1.584,1.584,0,0,0,.031-.981,1.036,1.036,0,0,0-.2-.449V12.8c.066-.035.234.108.263.018a1.478,1.478,0,0,0-.335-.693.265.265,0,0,0-.414-.03c-.139.09-.169.407-.1.689.076.2.286.239.429.658v.006a.9.9,0,0,1-.025.436,4.7,4.7,0,0,1-.877.922l-.006.006v.006h-.009V14.81a1,1,0,0,0,0-.137c0-.12.043-.408.04-.461v-.006c-.25.185-.335.748-.381.915a11.262,11.262,0,0,0-1.779,1.37c-.218.381,1.5-.443,1.7-.538l.008.006a1.566,1.566,0,0,0,.153.353.851.851,0,0,0,.926.341A3.09,3.09,0,0,0,14.038,15.4c.05-.084.132-.15.206-.084a2.056,2.056,0,0,0,1.9,1.118c.214-.292.113-.442.026-.5-.029-.024-.463-.215-.53-.407-.041-.173.06-.33.269-.449a8.411,8.411,0,0,0,1.751-.381,1.864,1.864,0,0,1,.19-.676.3.3,0,0,1,.1-.12v-.023l-.1-.066-1.9-.011a.24.24,0,0,1-.053-.03v-.035a.118.118,0,0,1,.06-.042c.458-.066,1.264-.216,1.315-1.1a.731.731,0,0,0-.667-.831.753.753,0,0,0-.584.868c-.016.113.037.347-.07.37-.7.078-1.465.571-1.492.922h-.01v.006h-.01l-.008-.006a.2.2,0,0,1-.1-.216,4.61,4.61,0,0,0-.482-1.83c-.1-.113-.141-.155-.17-.161h-.011m2.783.784a.207.207,0,0,1,.149.042.212.212,0,0,1,.117.179v.024a.081.081,0,0,0-.011.012c-.037.042-.118.035-.2-.018a.232.232,0,0,1-.117-.173v-.007q0-.017.009-.017v-.012c0-.006,0-.006.01-.012a.063.063,0,0,1,.046-.017m-1.77,1.81H14.7a4.963,4.963,0,0,0,.8.1c.221.018.33.21.124.293s-.4.138-.4.476a.506.506,0,0,1,0,.286.012.012,0,0,1-.009.011v.012h0l-.01.006a.01.01,0,0,1-.009.007c-.05.006-.121-.054-.175-.078a1.238,1.238,0,0,1-.528-.879.214.214,0,0,1,.2-.233" transform="translate(-6.012 -8.723)" fill="#fff"/>
        <path id="Path_3160" data-name="Path 3160" d="M8.472,9.438c.221.113.631.066.614-.33,0-.036-.007-.155-.01-.19-.043-.119-.168-.1-.19.03-.009.035.013.1-.017.126s-.092.013-.092-.1a.173.173,0,0,0-.036-.1.056.056,0,0,0-.049-.017c-.03.006-.03.011-.043.041a.276.276,0,0,0-.017.1c-.006.042-.02.053-.046.06s-.02.006-.045-.012a.058.058,0,0,1-.031-.056.486.486,0,0,0-.01-.1.1.1,0,0,0-.054-.036c-.121,0-.13.156-.121.215-.011.012-.015.286.148.366" transform="translate(-5.937 -8.586)" fill="#fff"/>
        <path id="Path_3161" data-name="Path 3161" d="M15.225,12.654c.22.113.742.048.616-.335,0-.036-.008-.155-.013-.19-.044-.119-.165-.09-.19.03-.007.042.017.108-.014.131s-.09,0-.088-.108a.155.155,0,0,0-.036-.09.057.057,0,0,0-.05-.018c-.029.006-.029.011-.046.042a.351.351,0,0,0-.016.09c0,.042-.017.054-.044.06s-.019.006-.044-.012-.032-.024-.032-.053a.259.259,0,0,0-.014-.1.083.083,0,0,0-.053-.035c-.119,0-.125.155-.121.215-.007.006-.012.281.15.365" transform="translate(-6.258 -8.739)" fill="#fff"/>
        <path id="Path_3162" data-name="Path 3162" d="M19.164,11.322c.218.113.63.06.613-.335,0-.03-.007-.15-.01-.185-.047-.114-.17-.09-.19.035-.01.036.012.1-.02.12-.015.024-.088.011-.085-.1a.215.215,0,0,0-.036-.1.086.086,0,0,0-.048-.007c-.03,0-.03.007-.047.036a.368.368,0,0,0-.017.1.047.047,0,0,1-.044.053c-.028.006-.023.006-.043-.012a.063.063,0,0,1-.031-.053.468.468,0,0,0-.015-.1.131.131,0,0,0-.053-.024c-.119,0-.129.155-.121.21-.008.011-.013.286.15.365" transform="translate(-6.446 -8.676)" fill="#fff"/>
        <path id="Path_3163" data-name="Path 3163" d="M21.2,14.406a1.662,1.662,0,0,0-.128,1.459,1.122,1.122,0,0,0,.476.6.307.307,0,0,0,.494-.06c.224-.263.229-.928.332-1.059.076-.245.26-.2.35-.1a.973.973,0,0,0,.32.31.5.5,0,0,0,.707.054.871.871,0,0,0,.376-.514,20.934,20.934,0,0,0,.028-3.028c-.01-.071-.216-1.245-.216-1.256s-.03-.6-.05-.736c-.006-.06-.018-.077.035-.071.056.06.062.066.1.077.056.012.107-.1.073-.2-.172-.359-.35-.724-.524-1.076-.04-.054-.1-.1-.164.006a.449.449,0,0,0-.128.323c.016.257.056.521.07.778.07.436.14.879.21,1.322.065.939.084,1.8.149,2.74-.01.394-.118.928-.226.975,0,0-.153.108-.26-.007a3.494,3.494,0,0,1-.381-.571c-.157-.161-.262-.119-.374,0a6.075,6.075,0,0,0-.654,1.389c-.056.1-.208.179-.375-.006a2.19,2.19,0,0,1-.232-1.358" transform="translate(-6.539 -8.582)" fill="#fff"/>
        <path id="Path_3164" data-name="Path 3164" d="M19.262,8.926a.847.847,0,0,1,.286.754c-.039.27-.142.571-.217.527s.054-.27-.022-.515c-.047-.161-.312-.449-.286-.538a.181.181,0,0,1,.235-.228" transform="translate(-6.446 -8.59)" fill="#fff"/>
        <path id="Path_3165" data-name="Path 3165" d="M21.823,14.677a7.428,7.428,0,0,0-.042-1.184c-.011-.311-.315-2.878-.381-3.117-.074-.449.3-.06.254-.323-.128-.33-.447-.814-.546-1.1-.064-.126-.037-.233-.172-.03a2.818,2.818,0,0,0-.121,1.125,27.369,27.369,0,0,1,.6,5.409c.152,0,.328-.389.4-.778" transform="translate(-6.531 -8.585)" fill="#fff"/>
        <path id="Path_3166" data-name="Path 3166" d="M24.418,12.159c.183.108.286.667.267.826-.034.293-.129.61-.2.571s.015-.437-.021-.556c-.043-.174-.286-.491-.26-.587-.049-.2.107-.281.212-.251" transform="translate(-6.693 -8.744)" fill="#fff"/>
        <path id="Path_3167" data-name="Path 3167" d="M11.407,13.9c.17.072.271.485.251.6-.034.215-.125.443-.19.418s.014-.323-.021-.412c-.013-.221-.251-.335-.247-.43-.045-.173.1-.2.2-.18" transform="translate(-6.074 -8.827)" fill="#fff"/>
        <path id="Path_3168" data-name="Path 3168" d="M6.6,8.783c.253.084.268.5.251.628-.034.222-.125.461-.19.431s0-.33-.036-.425c-.032-.142-.25-.371-.223-.443-.049-.15.1-.222.2-.19" transform="translate(-5.845 -8.583)" fill="#fff"/>
        <path id="Path_3169" data-name="Path 3169" d="M11.841,10.854a.546.546,0,0,0-.148.676.275.275,0,0,0,.314.108c.19.03.3-.4.3-.4s.006-.12-.218.108c-.1.024-.108-.018-.132-.078a.606.606,0,0,1,.029-.335c.035-.108-.038-.155-.148-.077" transform="translate(-6.095 -8.68)" fill="#fff"/>
        <path id="Path_3170" data-name="Path 3170" d="M13.363,8.611a.8.8,0,0,0-.3.563c-.009.143-.032.143.053.239.064.1.126.09.25.012a.3.3,0,0,0,.12-.19c.03-.168-.155.077-.181-.109s.078-.239.19-.412c0-.113,0-.19-.139-.1" transform="translate(-6.162 -8.574)" fill="#fff"/>
        <path id="Path_3171" data-name="Path 3171" d="M14.607,8.847a3.828,3.828,0,0,0-.085.652c-.035.162.152.233.235.024a2.12,2.12,0,0,0,.133-.711c-.038-.246-.19-.233-.286.035" transform="translate(-6.232 -8.577)" fill="#fff"/>
        <path id="Path_3172" data-name="Path 3172" d="M22.368,13.258c.027-.024,1.041-.837,1.041-.837.1-.042.082.419.035.412a4.042,4.042,0,0,1-1.076.844c-.05.036-.1-.317,0-.419" transform="translate(-6.603 -8.757)" fill="#fff"/>
        <path id="Path_3173" data-name="Path 3173" d="M23.333,13.293c.181.1.251.688.231.85.007.311-.172.562-.242.527s.009-.389-.027-.514a2.762,2.762,0,0,1-.169-.592c-.05-.2.1-.306.206-.27" transform="translate(-6.641 -8.798)" fill="#fff"/>
        <path id="Path_3174" data-name="Path 3174" d="M17,15.941a1.565,1.565,0,0,1,.286-.281.164.164,0,0,1,.2.042c.017.108-.063.215-.037.365.02.06.037.132.135.1a.63.63,0,0,1,.476-.155c.127,0,.128.239.051.239a3.333,3.333,0,0,0-.645.257.135.135,0,0,1-.19-.03.228.228,0,0,1-.018-.21c.01-.12-.034-.19-.125-.179-.069.048-.127.071-.16-.012-.012-.066-.017-.1.027-.138" transform="translate(-6.348 -8.91)" fill="#fff"/>
        <path id="Path_3175" data-name="Path 3175" d="M24.456,16.272a.159.159,0,0,1,0,.222c-.072.078-.121.113-.19.19-.031.066-.052.161.049.19.19.06.629-.257.629-.27a.157.157,0,0,0,.042-.173c-.042-.053-.133-.024-.2-.024-.031,0-.129-.024-.082-.113a.962.962,0,0,0,.08-.174c.028-.077,0-.125-.106-.168a.836.836,0,0,0-.271,0c-.065.018-.088.054-.1.138,0,.131.077.126.152.179" transform="translate(-6.695 -8.924)" fill="#fff"/>
      </g>
    </g>
  </g>
</svg>
