<svg xmlns="http://www.w3.org/2000/svg" width="20.869" height="20" viewBox="0 0 20.869 20">
  <g id="footer_plane" transform="translate(0 0)">
    <path id="Path_2002" data-name="Path 2002" d="M17.826,17.392a.667.667,0,0,1-.21-.035L.442,11.488a.653.653,0,0,1-.092-1.2L19.914.074a.653.653,0,0,1,.948.675L18.471,16.836a.653.653,0,0,1-.645.556ZM2.3,10.744,17.3,15.869,19.383,1.824Z" transform="translate(0 0)" fill="#fff"/>
    <path id="Path_2003" data-name="Path 2003" d="M9.4,20a.652.652,0,0,1-.652-.652V13.478a.657.657,0,0,1,.175-.445L20.875.207a.653.653,0,1,1,.954.89L10.054,13.734v3.624L12.229,14.4a.652.652,0,1,1,1.051.773L9.928,19.734A.656.656,0,0,1,9.4,20Z" transform="translate(-1.135 0)" fill="#fff"/>
  </g>
</svg>
