<svg xmlns="http://www.w3.org/2000/svg" width="24" height="15" viewBox="0 0 24 15">
  <g id="Gadget99" transform="translate(0 -9)">
    <path id="Path_1922" data-name="Path 1922" d="M5.328,24A5.328,5.328,0,0,1,0,18.671V17.5A5.51,5.51,0,0,1,5.5,12h13A5.506,5.506,0,0,1,24,17.5v1.174A5.332,5.332,0,0,1,18.675,24a6.09,6.09,0,0,1-4.737-2.192A2.147,2.147,0,0,0,12.271,21H11.73a2.124,2.124,0,0,0-1.635.765A6.189,6.189,0,0,1,5.349,24H5.328ZM5.5,13A4.508,4.508,0,0,0,1,17.5V18.67A4.329,4.329,0,0,0,5.328,23h.017a5.2,5.2,0,0,0,3.983-1.875A3.118,3.118,0,0,1,11.73,20h.541a3.114,3.114,0,0,1,2.4,1.125A5.088,5.088,0,0,0,18.61,23,4.344,4.344,0,0,0,23,18.674V17.5A4.505,4.505,0,0,0,18.5,13Z" fill="#00124e"/>
    <path id="Path_1923" data-name="Path 1923" d="M6.5,18.5h-4a.5.5,0,0,1,0-1h4a.5.5,0,0,1,0,1Z" fill="#00124e"/>
    <path id="Path_1924" data-name="Path 1924" d="M4.5,20.5A.5.5,0,0,1,4,20V16a.5.5,0,0,1,1,0v4A.5.5,0,0,1,4.5,20.5Z" fill="#00124e"/>
    <circle id="Ellipse_88" data-name="Ellipse 88" cx="0.75" cy="0.75" r="0.75" transform="translate(20 17.25)" fill="#00124e"/>
    <circle id="Ellipse_89" data-name="Ellipse 89" cx="0.75" cy="0.75" r="0.75" transform="translate(18.25 15.5)" fill="#00124e"/>
    <circle id="Ellipse_90" data-name="Ellipse 90" cx="0.75" cy="0.75" r="0.75" transform="translate(18.25 19)" fill="#00124e"/>
    <circle id="Ellipse_91" data-name="Ellipse 91" cx="0.75" cy="0.75" r="0.75" transform="translate(16.5 17.25)" fill="#00124e"/>
    <path id="Path_1925" data-name="Path 1925" d="M12.5,18h-1a.5.5,0,0,1,0-1h1a.5.5,0,0,1,0,1Z" fill="#00124e"/>
    <path id="Path_1926" data-name="Path 1926" d="M14.5,13a.5.5,0,0,1-.5-.5v-2a.5.5,0,0,0-.5-.5h-3a.5.5,0,0,0-.5.5v2a.5.5,0,0,1-1,0v-2A1.5,1.5,0,0,1,10.5,9h3A1.5,1.5,0,0,1,15,10.5v2A.5.5,0,0,1,14.5,13Z" fill="#00124e"/>
  </g>
</svg>
