<svg id="google_icon" xmlns="http://www.w3.org/2000/svg" width="25" height="25" viewBox="0 0 25 25">
  <path id="Path_739" data-name="Path 739" d="M5.538,146.621l-.87,3.247-3.179.067A12.517,12.517,0,0,1,1.4,138.268h0l2.831.519,1.24,2.814a7.457,7.457,0,0,0,.07,5.021Z" transform="translate(0 -131.514)" fill="#fbbb00"/>
  <path id="Path_740" data-name="Path 740" d="M273.63,208.176a12.49,12.49,0,0,1-4.454,12.078h0l-3.565-.182-.5-3.15a7.447,7.447,0,0,0,3.2-3.8h-6.681v-4.943h12Z" transform="translate(-248.848 -198.005)" fill="#518ef8"/>
  <path id="Path_741" data-name="Path 741" d="M49.337,316.546h0a12.5,12.5,0,0,1-18.828-3.823l4.049-3.315a7.431,7.431,0,0,0,10.709,3.8Z" transform="translate(-29.02 -294.297)" fill="#28b446"/>
  <path id="Path_742" data-name="Path 742" d="M47.7,2.877,43.65,6.19A7.43,7.43,0,0,0,32.7,10.081l-4.07-3.332h0A12.5,12.5,0,0,1,47.7,2.877Z" transform="translate(-27.227)" fill="#f14336"/>
</svg>
