<svg xmlns="http://www.w3.org/2000/svg" width="32.052" height="34.996" viewBox="0 0 32.052 34.996">
  <g id="headset33" transform="translate(-17.756)">
    <g id="Group_1603" data-name="Group 1603" transform="translate(17.756)">
      <path id="Path_1912" data-name="Path 1912" d="M46.43,14.466h-.087V12.344a12.344,12.344,0,1,0-24.688,0v2.122h-.52A3.527,3.527,0,0,0,17.758,18.1v5.414a3.422,3.422,0,0,0,3.334,3.507h3.25a.823.823,0,0,0,.783-.861q0-.024,0-.049V15.505c0-.52-.3-1.039-.78-1.039h-.953V12.344a10.611,10.611,0,1,1,21.223,0v2.122h-.953c-.476,0-.78.52-.78,1.039V26.117a.823.823,0,0,0,.731.906l.049,0h1l-.087.13a6.843,6.843,0,0,1-5.5,2.729,4.288,4.288,0,0,0-8.489.823A4.331,4.331,0,0,0,34.909,35a4.461,4.461,0,0,0,3.118-1.343,3.812,3.812,0,0,0,1.039-2.079,8.575,8.575,0,0,0,6.887-3.422l.823-1.213a2.949,2.949,0,0,0,3.032-2.989V18.537C49.808,16.675,48.422,14.466,46.43,14.466ZM23.388,25.294H21.136a1.689,1.689,0,0,1-1.648-1.73c0-.015,0-.031,0-.046V18.1A1.8,1.8,0,0,1,21.136,16.2h2.252ZM36.771,32.44a2.556,2.556,0,0,1-1.862.823,2.642,2.642,0,0,1-2.6-2.555,2.555,2.555,0,1,1,5.111,0v0A2.3,2.3,0,0,1,36.771,32.44Zm11.3-8.489c0,1.169-1.126,1.343-1.646,1.343H44.611V16.2H46.43c.953,0,1.646,1.343,1.646,2.339Z" transform="translate(-17.756 0)" fill="#fc5e49"/>
    </g>
  </g>
</svg>
