<svg xmlns="http://www.w3.org/2000/svg" width="29.256" height="30.017" viewBox="0 0 29.256 30.017">
    <defs>
        <style>
            .cls-1{fill:#fd1c5e}
        </style>
    </defs>
    <g id="icon" transform="translate(-.5)">
        <path id="Path_23" d="M15.128 0A14.644 14.644 0 0 0 .5 14.628v8.22a.673.673 0 0 0 1.346 0v-8.22a13.282 13.282 0 0 1 26.563 0v8.22a.673.673 0 1 0 1.346 0v-8.22A14.644 14.644 0 0 0 15.128 0zm0 0" class="cls-1"/>
        <path id="Path_24" d="M49.807 262.637h-3.822a3.039 3.039 0 0 0-3.036 3.036v6.243a3.044 3.044 0 0 0 3.015 3.036l3.838.026a.673.673 0 0 0 .673-.673V263.31a.673.673 0 0 0-.668-.673zm-.673 10.99l-3.16-.022a1.7 1.7 0 0 1-1.679-1.69v-6.243a1.692 1.692 0 0 1 1.69-1.69h3.149zm0 0" class="cls-1" transform="translate(-39.592 -244.961)"/>
        <path id="Path_25" d="M295.671 262.637h-3.076a.673.673 0 0 0-.673.673v10.952a.673.673 0 0 0 .673.673h3.076a3.039 3.039 0 0 0 3.036-3.036v-6.226a3.039 3.039 0 0 0-3.036-3.036zm1.69 9.262a1.692 1.692 0 0 1-1.69 1.69h-2.4v-9.606h2.4a1.692 1.692 0 0 1 1.69 1.69zm0 0" class="cls-1" transform="translate(-271.809 -244.961)"/>
    </g>
</svg>
