<svg xmlns="http://www.w3.org/2000/svg" width="14.999" height="14.999" viewBox="0 0 14.999 14.999">
  <g id="Headphones99" transform="translate(-1.5 -1.5)">
    <path id="Path_1935" data-name="Path 1935" d="M2.928,1.5A1.428,1.428,0,0,1,4.357,2.928h2.5a1.786,1.786,0,0,1,0,3.571H6.5v9.642a.357.357,0,0,1-.714,0V6.5H4.357A1.428,1.428,0,0,1,1.5,6.5V2.928A1.428,1.428,0,0,1,2.928,1.5ZM6.5,5.785H4.357V3.643H6.5ZM3.643,2.928a.714.714,0,0,0-1.428,0V6.5a.714.714,0,0,0,1.428,0Zm3.571,2.8.06-.023a1.072,1.072,0,0,0-.06-2Z" fill="#00124e" fill-rule="evenodd"/>
    <path id="Path_1936" data-name="Path 1936" d="M14.286,7.928a1.786,1.786,0,1,0,0,3.571h.357v6.071a.357.357,0,1,0,.714,0V11.5h1.428a1.428,1.428,0,1,0,2.857,0V7.928a1.428,1.428,0,1,0-2.857,0Zm2.5,2.857V8.643H14.643v2.143Zm.714.714V7.928a.714.714,0,1,1,1.428,0V11.5a.714.714,0,1,1-1.428,0ZM13.869,8.727l.06-.023v2.021a1.072,1.072,0,0,1-.06-2Z" transform="translate(-3.143 -1.429)" fill="#00124e" fill-rule="evenodd"/>
  </g>
</svg>
