<svg xmlns="http://www.w3.org/2000/svg" width="21.762" height="18.017" viewBox="0 0 21.762 18.017">
  <g id="heart4" transform="translate(0 -35.514)">
    <g id="Group_9" data-name="Group 9" transform="translate(0 35.514)">
      <path id="Path_6" data-name="Path 6" d="M15.591,35.514h0a6.115,6.115,0,0,0-4.71,2.176,6.032,6.032,0,0,0-4.71-2.176A6.17,6.17,0,0,0,0,41.685c0,5.84,10.192,11.542,10.605,11.762a.5.5,0,0,0,.551,0c.413-.22,10.605-5.84,10.605-11.762A6.17,6.17,0,0,0,15.591,35.514Zm-4.71,16.831c-1.6-.937-9.779-5.922-9.779-10.66A5.069,5.069,0,0,1,6.17,36.616,4.958,4.958,0,0,1,10.413,38.9a.578.578,0,0,0,.937,0,5.068,5.068,0,0,1,9.311,2.782C20.66,46.478,12.478,51.436,10.881,52.345Z" transform="translate(0 -35.514)" fill="#413dfe"/>
    </g>
  </g>
</svg>
