<svg xmlns="http://www.w3.org/2000/svg" width="18" height="15" viewBox="0 0 18 15">
  <g id="hert12" transform="translate(0 -35.514)">
    <g id="Group_9" data-name="Group 9" transform="translate(0 35.514)">
      <path id="Path_6" data-name="Path 6" d="M12.9,35.514h0A5.045,5.045,0,0,0,9,37.326a4.976,4.976,0,0,0-3.9-1.812A5.121,5.121,0,0,0,0,40.652c0,4.862,8.43,9.609,8.772,9.793a.408.408,0,0,0,.456,0C9.57,50.261,18,45.582,18,40.652A5.121,5.121,0,0,0,12.9,35.514ZM9,49.527C7.678,48.747.911,44.6.911,40.652A4.206,4.206,0,0,1,5.1,36.432a4.1,4.1,0,0,1,3.509,1.9.477.477,0,0,0,.775,0,4.176,4.176,0,0,1,5.8-1.222,4.227,4.227,0,0,1,1.9,3.539C17.089,44.642,10.321,48.77,9,49.527Z" transform="translate(0 -35.514)" fill="#fff"/>
    </g>
  </g>
</svg>
