<svg xmlns="http://www.w3.org/2000/svg" width="19.321" height="15.996" viewBox="0 0 19.321 15.996">
  <g id="hert5" transform="translate(0 -35.514)">
    <g id="Group_9" data-name="Group 9" transform="translate(0 35.514)">
      <path id="Path_6" data-name="Path 6" d="M13.843,35.514h0A5.429,5.429,0,0,0,9.66,37.446a5.356,5.356,0,0,0-4.182-1.932A5.478,5.478,0,0,0,0,40.993C0,46.178,9.049,51.24,9.416,51.436a.44.44,0,0,0,.489,0c.367-.2,9.416-5.185,9.416-10.443A5.478,5.478,0,0,0,13.843,35.514ZM9.66,50.458C8.242,49.626.978,45.2.978,40.993a4.5,4.5,0,0,1,4.5-4.5,4.4,4.4,0,0,1,3.766,2.03.514.514,0,0,0,.832,0,4.5,4.5,0,0,1,8.266,2.47C18.343,45.248,11.079,49.65,9.66,50.458Z" transform="translate(0 -35.514)" fill="#454545"/>
    </g>
  </g>
</svg>
