<svg xmlns="http://www.w3.org/2000/svg" width="22.242" height="18.513" viewBox="0 0 22.242 18.513">
  <g id="hert15" transform="translate(0.25 -35.264)">
    <g id="Group_9" data-name="Group 9" transform="translate(0 35.514)">
      <path id="Path_6" data-name="Path 6" d="M15.577,35.514h0a6.11,6.11,0,0,0-4.706,2.174,6.027,6.027,0,0,0-4.706-2.174A6.165,6.165,0,0,0,0,41.679C0,47.514,10.183,53.21,10.6,53.431a.5.5,0,0,0,.55,0c.413-.22,10.6-5.834,10.6-11.751A6.165,6.165,0,0,0,15.577,35.514ZM10.871,52.33c-1.6-.936-9.77-5.917-9.77-10.651a5.064,5.064,0,0,1,5.064-5.064A4.954,4.954,0,0,1,10.4,38.9a.578.578,0,0,0,.936,0,5.064,5.064,0,0,1,9.3,2.78C20.641,46.468,12.467,51.421,10.871,52.33Z" transform="translate(0 -35.514)" fill="#292d32" stroke="#292d32" stroke-width="0.5"/>
    </g>
  </g>
</svg>
