<?xml version="1.0" standalone="no"?>
<!DOCTYPE svg PUBLIC "-//W3C//DTD SVG 1.0//EN" "http://www.w3.org/TR/2001/REC-SVG-20010904/DTD/svg10.dtd">
<svg xmlns="http://www.w3.org/2000/svg" xmlns:xlink="http://www.w3.org/1999/xlink" id="body_1" width="31" height="23">

<g transform="matrix(0.044920124 0 0 0.044920124 4.000001 -0)">
	<g transform="matrix(1 0 0 1 -0 -1)">
        <path d="M61.813 5.424C 95.358 5.424 123.606 33.671997 123.606 67.216995C 123.606 102.52699 93.592 129.89299 61.813004 129.01C 29.151 129.893 0.02 102.527 0.02 67.217C -0.863 32.789 27.386 5.424 61.813 5.424" stroke="none" fill="#007AAA" fill-rule="nonzero" />
        <path d="M96.241 508.596L25.62 508.596C 15.910001 508.596 7.965 500.651 7.965 490.941L7.965 490.941L7.965 181.976C 7.965 172.26599 15.027 164.321 24.737 164.321L24.737 164.321L96.24 164.321C 105.95 164.321 113.895 172.266 113.895 181.976L113.895 181.976L113.895 491.82397C 113.896 500.651 105.951 508.596 96.241 508.596" stroke="none" fill="#007AAA" fill-rule="nonzero" />
        <path d="M511.137 272.017C 511.137 206.693 462.585 155.493 397.261 155.493L397.261 155.493L378.723 155.493C 343.413 155.493 308.985 172.265 290.447 199.631C 284.268 205.81 281.619 208.459 281.619 208.459L281.619 208.459L281.619 173.149C 281.619 169.618 276.322 164.321 272.791 164.321L272.791 164.321L184.51498 164.321C 180.98398 164.321 175.68698 167.852 175.68698 172.266L175.68698 172.266L175.68698 501.53503C 175.68698 505.06604 180.98398 508.59705 184.51498 508.59705L184.51498 508.59705L281.61798 508.59705C 285.149 508.59705 290.44598 505.06604 290.44598 501.53503L290.44598 501.53503L290.44598 310.858C 290.44598 278.196 315.163 250.83 347.82498 249.948C 364.597 249.948 379.60397 256.12698 391.08 267.603C 401.67297 278.19598 406.08698 293.203 406.08698 309.975L406.08698 309.975L406.08698 499.768C 406.08698 503.299 411.38397 508.596 414.91498 508.596L414.91498 508.596L503.19098 508.596C 506.722 508.596 512.019 503.299 512.019 499.768L512.019 499.768L512.019 272.017L511.137 272.017z" stroke="none" fill="#007AAA" fill-rule="nonzero" />
	</g>
	<g>
	</g>
	<g>
	</g>
	<g>
	</g>
	<g>
	</g>
	<g>
	</g>
	<g>
	</g>
	<g>
	</g>
	<g>
	</g>
	<g>
	</g>
	<g>
	</g>
	<g>
	</g>
	<g>
	</g>
	<g>
	</g>
	<g>
	</g>
	<g>
	</g>
</g>
</svg>