<svg xmlns="http://www.w3.org/2000/svg" width="15.208" height="12" viewBox="0 0 15.208 12">
  <path id="mail77" d="M11.644,66H3.564A3.568,3.568,0,0,1,0,62.436V57.564A3.568,3.568,0,0,1,3.564,54h8.079a3.568,3.568,0,0,1,3.564,3.564v4.871A3.568,3.568,0,0,1,11.644,66ZM3.564,55.188a2.379,2.379,0,0,0-2.376,2.376v4.871a2.379,2.379,0,0,0,2.376,2.376h8.079a2.379,2.379,0,0,0,2.376-2.376V57.564a2.379,2.379,0,0,0-2.376-2.376Zm6.216,5.864,2.936-2.243A.594.594,0,0,0,12,57.865L9.06,60.107a2.382,2.382,0,0,1-2.88,0L3.335,57.9a.594.594,0,0,0-.729.938l2.847,2.213,0,0a3.573,3.573,0,0,0,4.324,0Z" transform="translate(0 -54)" fill="#00124e"/>
</svg>
