<svg id="menu_118" xmlns="http://www.w3.org/2000/svg" width="20.773" height="15.003" viewBox="0 0 20.773 15.003">
  <path id="Path_1964" data-name="Path 1964" d="M19.907,124.4H.866a.866.866,0,1,1,0-1.731H19.907a.866.866,0,1,1,0,1.731Zm0,0" transform="translate(0 -116.032)" fill="#00124e"/>
  <path id="Path_1965" data-name="Path 1965" d="M19.907,1.731H.866A.866.866,0,0,1,.866,0H19.907a.866.866,0,1,1,0,1.731Zm0,0" fill="#00124e"/>
  <path id="Path_1966" data-name="Path 1966" d="M19.907,247.063H.866a.866.866,0,0,1,0-1.731H19.907a.866.866,0,0,1,0,1.731Zm0,0" transform="translate(0 -232.061)" fill="#00124e"/>
</svg>
