<svg id="offer" xmlns="http://www.w3.org/2000/svg" width="19.658" height="20.006" viewBox="0 0 19.658 20.006">
  <g id="Group_2550" data-name="Group 2550" transform="translate(0)">
    <path id="Path_969" data-name="Path 969" d="M112.761,107.245a5.3,5.3,0,0,0-4-1.441,5.391,5.391,0,0,0-5.065,5.321,5.523,5.523,0,0,0,2.835,4.763v2.649a2.556,2.556,0,0,0,5.112,0v-2.626a5.623,5.623,0,0,0,2.835-4.763A5.46,5.46,0,0,0,112.761,107.245Zm-3.671,12.873a1.65,1.65,0,0,1-1.557-1.394h3.114A1.65,1.65,0,0,1,109.09,120.118Zm1.627-2.324h-3.253v-.7h3.253Zm.232-2.6a.465.465,0,0,0-.232.418v.558h-3.253v-.558a.488.488,0,0,0-.232-.441,4.345,4.345,0,0,1-2.6-4.02,4.508,4.508,0,0,1,4.182-4.415h.279a4.485,4.485,0,0,1,4.461,4.415A4.438,4.438,0,0,1,110.949,115.192Z" transform="translate(-99.261 -101.088)" fill="#fd1c5e"/>
    <path id="Path_970" data-name="Path 970" d="M214.93,3.439a.465.465,0,0,0,.465-.465V.465a.465.465,0,0,0-.929,0V2.974A.465.465,0,0,0,214.93,3.439Z" transform="translate(-205.101)" fill="#fd1c5e"/>
    <path id="Path_971" data-name="Path 971" d="M6.892,208.457H4.383a.465.465,0,1,0,0,.929H6.892a.465.465,0,0,0,0-.929Z" transform="translate(-3.918 -199.186)" fill="#fd1c5e"/>
    <path id="Path_972" data-name="Path 972" d="M371.562,208.457h-2.509a.465.465,0,1,0,0,.929h2.509a.465.465,0,1,0,0-.929Z" transform="translate(-352.369 -199.186)" fill="#fd1c5e"/>
    <path id="Path_973" data-name="Path 973" d="M64.708,61.44,66.5,63.206a.441.441,0,0,0,.624.027l.027-.027a.441.441,0,0,0,.027-.624l-.027-.027L65.358,60.79a.465.465,0,1,0-.651.651Z" transform="translate(-61.826 -57.908)" fill="#fd1c5e"/>
    <path id="Path_974" data-name="Path 974" d="M323.2,63.205a.449.449,0,0,0,.651,0l1.789-1.766a.465.465,0,1,0-.651-.651L323.2,62.555a.441.441,0,0,0-.027.624Z" transform="translate(-308.859 -57.907)" fill="#fd1c5e"/>
  </g>
</svg>
