<svg xmlns="http://www.w3.org/2000/svg" width="188.394" height="185.001" viewBox="0 0 188.394 185.001">
  <g id="payment_icon_1" transform="translate(-375 -847)">
    <circle id="Ellipse_51" data-name="Ellipse 51" cx="80" cy="80" r="80" transform="translate(375 847)" fill="#fd6700"/>
    <g id="money" transform="translate(422.993 891.604)">
      <g id="Group_1541" data-name="Group 1541" transform="translate(18.652 123.945)">
        <g id="Group_1540" data-name="Group 1540">
          <path id="Path_1514" data-name="Path 1514" d="M72.684,452.8a2.74,2.74,0,1,0,.8,1.939A2.761,2.761,0,0,0,72.684,452.8Z" transform="translate(-68.003 -452.001)"/>
        </g>
      </g>
      <g id="Group_1543" data-name="Group 1543" transform="translate(124.074 49.361)">
        <g id="Group_1542" data-name="Group 1542">
          <path id="Path_1515" data-name="Path 1515" d="M457.135,180.811a2.734,2.734,0,1,0,.806,1.939A2.757,2.757,0,0,0,457.135,180.811Z" transform="translate(-452.454 -180.008)"/>
        </g>
      </g>
      <g id="Group_1545" data-name="Group 1545" transform="translate(0.007)">
        <g id="Group_1544" data-name="Group 1544" transform="translate(0)">
          <path id="Path_1516" data-name="Path 1516" d="M139.6.8a2.744,2.744,0,0,0-1.94-.8L70.2,0a2.742,2.742,0,0,0-2.742,2.742v7.842L41.469,17.552A2.742,2.742,0,0,0,39.53,20.91L53,71.185,41.347,82.839a8.223,8.223,0,0,0-6.791-3.59H8.233A8.235,8.235,0,0,0,.007,87.475v44.7A8.236,8.236,0,0,0,8.233,140.4H34.557a8.24,8.24,0,0,0,7.984-6.247l3.26,2.843a13.815,13.815,0,0,0,9.081,3.4h82.776a2.742,2.742,0,0,0,2.742-2.742V2.742A2.745,2.745,0,0,0,139.6.8ZM37.3,132.171a2.745,2.745,0,0,1-2.742,2.742H8.233a2.745,2.745,0,0,1-2.742-2.742v-44.7a2.745,2.745,0,0,1,2.742-2.742h10.42v31.588a2.742,2.742,0,1,0,5.484,0V84.733h10.42A2.745,2.745,0,0,1,37.3,87.475v44.7ZM45.537,22.14l21.924-5.875V26.426l-1.838.492a2.742,2.742,0,0,0-1.939,3.358,7.392,7.392,0,0,1-5.221,9.043,2.742,2.742,0,0,0-1.938,3.364L67.215,82.263h-5.5l-2.836-11.1a2.738,2.738,0,0,0-.46-.962ZM67.461,39V62.139l-5-18.519A12.846,12.846,0,0,0,67.461,39Zm39.395,95.912H54.882A8.333,8.333,0,0,1,49.4,132.86l-6.622-5.775V89.16L54.755,77.188l2.171,8.5a2.742,2.742,0,0,0,2.657,2.063l53.911,0a3.839,3.839,0,0,1,0,7.678H85.869a2.742,2.742,0,0,0,0,5.484h36.207a3.839,3.839,0,0,1,0,7.678H85.869a2.742,2.742,0,0,0,0,5.484h30.34a3.839,3.839,0,0,1,0,7.678H85.869a2.742,2.742,0,0,0,0,5.484h20.986a3.838,3.838,0,1,1,0,7.677Zm28.061,0H115.348a9.29,9.29,0,0,0,0-7.678h.861a9.317,9.317,0,0,0,8.333-13.5A9.315,9.315,0,0,0,129.559,99.2V64.442a2.742,2.742,0,0,0-5.484,0v31.2a9.325,9.325,0,0,0-2-.218h-.09a9.317,9.317,0,0,0-8.493-13.162h-4.408a13.123,13.123,0,1,0-10.31,0H83.786V30.126a12.908,12.908,0,0,0,9.831-9.831h20.627a12.908,12.908,0,0,0,9.831,9.831v8.525a2.742,2.742,0,1,0,5.484,0V27.678a2.742,2.742,0,0,0-2.742-2.742,7.391,7.391,0,0,1-7.383-7.383,2.742,2.742,0,0,0-2.742-2.742H91.169a2.742,2.742,0,0,0-2.742,2.742,7.391,7.391,0,0,1-7.383,7.383A2.742,2.742,0,0,0,78.3,27.678V82.265H72.946V5.487l61.971,0ZM103.931,77.838A7.639,7.639,0,1,1,111.57,70.2,7.647,7.647,0,0,1,103.931,77.838Z" transform="translate(-0.007)"/>
        </g>
      </g>
    </g>
  </g>
</svg>
