<svg xmlns="http://www.w3.org/2000/svg" width="188.633" height="185.633" viewBox="0 0 188.633 185.633">
  <g id="payment_icon_3" transform="translate(-375 -847)">
    <circle id="Ellipse_51" data-name="Ellipse 51" cx="80" cy="80" r="80" transform="translate(375 847)" fill="#fd6700"/>
    <path id="cash-on-delivery" d="M33.785,135.139a5.493,5.493,0,0,1-5.493,5.493h-.824A22,22,0,0,1,5.493,118.659V57.681a5.493,5.493,0,0,1,10.987,0v60.978a11,11,0,0,0,10.987,10.987h.824A5.493,5.493,0,0,1,33.785,135.139ZM140.633,16.48v16.48a5.493,5.493,0,0,1-5.493,5.493V54.66a5.493,5.493,0,1,1-10.987,0V38.454H5.493A5.493,5.493,0,0,1,0,32.961V16.48A16.5,16.5,0,0,1,16.48,0H124.152A16.5,16.5,0,0,1,140.633,16.48ZM10.987,27.467H129.646V16.48a5.5,5.5,0,0,0-5.493-5.493H16.48a5.5,5.5,0,0,0-5.493,5.493ZM82.4,60.428a5.493,5.493,0,0,0,0-10.987H57.681a5.493,5.493,0,1,0,0,10.987Zm58.231,32.134v26.1a22,22,0,0,1-21.974,21.974H63.721A22,22,0,0,1,41.75,118.659v-26.1A21.994,21.994,0,0,1,63.721,70.591h54.938A22,22,0,0,1,140.633,92.562Zm-10.987,0a11,11,0,0,0-10.987-10.987H63.721A11,11,0,0,0,52.734,92.562v26.1a11,11,0,0,0,10.987,10.987h54.938a11,11,0,0,0,10.987-10.987ZM91.192,94.213a11.55,11.55,0,1,0,10.987,11.536A11.272,11.272,0,0,0,91.192,94.213Zm24.721,6.175a5.493,5.493,0,1,0,5.493,5.493A5.493,5.493,0,0,0,115.912,100.388Zm-49.441,0a5.493,5.493,0,1,0,5.493,5.493A5.493,5.493,0,0,0,66.471,100.388Zm0,0" transform="translate(423 892)"/>
  </g>
</svg>
