<svg xmlns="http://www.w3.org/2000/svg" width="45.68" height="31.832" viewBox="0 0 45.68 31.832">
  <g id="payment_8" transform="translate(0 -26.001)">
    <g id="Group_30" data-name="Group 30" transform="translate(0 26.001)">
      <g id="Group_29" data-name="Group 29" transform="translate(0 0)">
        <path id="Path_201" data-name="Path 201" d="M43.014,26H2.665A2.668,2.668,0,0,0,0,28.666v25a2.668,2.668,0,0,0,2.665,2.665H41.7c.8,3.37,0,0,0,0h1.319A2.668,2.668,0,0,0,45.68,53.67v-25A2.668,2.668,0,0,0,43.014,26ZM43.9,53.67a.882.882,0,0,1-.881.881H2.665a.882.882,0,0,1-.881-.881V38.491H43.9Zm0-16.963H1.784V33.139H43.9Zm0-5.353H1.784V28.666a.882.882,0,0,1,.881-.881H43.014a.882.882,0,0,1,.881.881Z" transform="translate(0 -26.001)" fill="#ed078b"/>
      </g>
    </g>
    <g id="Group_32" data-name="Group 32" transform="translate(3.569 44.737)">
      <g id="Group_31" data-name="Group 31">
        <path id="Path_202" data-name="Path 202" d="M47.138,236a4.019,4.019,0,0,0-1.561.316,4.015,4.015,0,1,0,0,7.4A4.015,4.015,0,1,0,47.138,236Zm-3.122,6.245a2.23,2.23,0,1,1,2.23-2.23A2.233,2.233,0,0,1,44.016,242.248Zm3.343-.011a4,4,0,0,0,0-4.439,2.23,2.23,0,0,1,0,4.439Z" transform="translate(-40.001 -236.003)" fill="#ed078b"/>
      </g>
    </g>
    <g id="Group_34" data-name="Group 34" transform="translate(3.569 40.722)">
      <g id="Group_33" data-name="Group 33" transform="translate(0 0)">
        <path id="Path_203" data-name="Path 203" d="M45.48,191H40.891a.892.892,0,0,0,0,1.784H45.48a.892.892,0,0,0,0-1.784Z" transform="translate(-39.999 -191.001)" fill="#ed078b"/>
      </g>
    </g>
    <g id="Group_36" data-name="Group 36" transform="translate(10.753 40.722)">
      <g id="Group_35" data-name="Group 35" transform="translate(0 0)">
        <path id="Path_204" data-name="Path 204" d="M121.456,191h-.042a.892.892,0,1,0,0,1.784h.042a.892.892,0,0,0,0-1.784Z" transform="translate(-120.522 -191.001)" fill="#ed078b"/>
      </g>
    </g>
  </g>
</svg>
