<svg xmlns="http://www.w3.org/2000/svg" width="188.878" height="185.485" viewBox="0 0 188.878 185.485">
  <g id="payment_icon_2" transform="translate(-375 -847)">
    <circle id="Ellipse_51" data-name="Ellipse 51" cx="80" cy="80" r="80" transform="translate(375 847)" fill="#fd6700"/>
    <g id="surface1" transform="translate(423.394 892)">
      <path id="Path_1517" data-name="Path 1517" d="M117.07,24.8v-13.1A11.722,11.722,0,0,0,105.363,0H11.707A11.722,11.722,0,0,0,0,11.707V63.218A11.684,11.684,0,0,0,10.5,74.8l8.8,22.847a11.71,11.71,0,0,0,15.133,6.716L89.395,83.195a33.847,33.847,0,0,0,2.916,30.053l1.345,2.151v22.744A2.341,2.341,0,0,0,96,140.484h42.145a2.341,2.341,0,0,0,2.341-2.341V60.856a30.642,30.642,0,0,0-8.971-21.582Zm0,14,7.106,18.447a7.024,7.024,0,0,1-4.032,9.078L116.082,67.9a11.71,11.71,0,0,0,.988-4.683ZM4.683,63.218V11.707a7.025,7.025,0,0,1,7.024-7.024h93.656a7.025,7.025,0,0,1,7.024,7.024V26.589h-.02l.02.053V63.218a7.111,7.111,0,0,1-.159,1.213L90.781,42.981A12.491,12.491,0,0,0,72.752,60.255L81.9,70.242H11.707A7.025,7.025,0,0,1,4.683,63.218Zm30,11.707-16.65,6.41-2.463-6.41ZM32.749,100a7.024,7.024,0,0,1-9.08-4.029L19.719,85.7l27.949-10.77v-.014H86.187l3.043,3.318ZM135.8,135.8H98.339V117.07H135.8Zm0-23.414H97.3l-1.016-1.623a29.2,29.2,0,0,1-.593-29.986,2.34,2.34,0,0,0-.307-2.744L76.195,57.1A7.809,7.809,0,0,1,87.47,46.3l37.311,37.3,3.311-3.311-8.663-8.663,2.4-.937a11.708,11.708,0,0,0,6.713-15.126l-7.925-20.579,7.585,7.6a25.929,25.929,0,0,1,7.6,18.266Zm0,0"/>
      <path id="Path_1518" data-name="Path 1518" d="M79.826,85.914a6.087,6.087,0,0,0,6.088-6.088V68.588A6.087,6.087,0,0,0,79.826,62.5H68.588A6.087,6.087,0,0,0,62.5,68.588V79.826a6.087,6.087,0,0,0,6.088,6.088ZM67.183,79.826V76.548h4.683V71.866H67.183V68.588a1.405,1.405,0,0,1,1.4-1.4H79.826a1.405,1.405,0,0,1,1.4,1.4v3.278H76.548v4.683h4.683v3.278a1.405,1.405,0,0,1-1.4,1.4H68.588A1.405,1.405,0,0,1,67.183,79.826Zm0,0" transform="translate(-53.134 -53.134)"/>
      <path id="Path_1519" data-name="Path 1519" d="M78.125,265.625h9.366v4.683H78.125Zm0,0" transform="translate(-66.418 -225.821)"/>
      <path id="Path_1520" data-name="Path 1520" d="M78.125,359.375h9.366v4.683H78.125Zm0,0" transform="translate(-66.418 -305.523)"/>
      <path id="Path_1521" data-name="Path 1521" d="M359.375,359.375h9.366v4.683h-9.366Zm0,0" transform="translate(-305.523 -305.523)"/>
      <path id="Path_1522" data-name="Path 1522" d="M171.875,265.625h9.366v4.683h-9.366Zm0,0" transform="translate(-146.12 -225.821)"/>
      <path id="Path_1523" data-name="Path 1523" d="M265.625,265.625h9.366v4.683h-9.366Zm0,0" transform="translate(-225.821 -225.821)"/>
      <path id="Path_1524" data-name="Path 1524" d="M359.375,265.625h9.366v4.683h-9.366Zm0,0" transform="translate(-305.523 -225.821)"/>
      <path id="Path_1525" data-name="Path 1525" d="M656.25,78.125h4.683v7.024H656.25Zm0,0" transform="translate(-557.911 -66.418)"/>
      <path id="Path_1526" data-name="Path 1526" d="M593.75,78.125h4.683v7.024H593.75Zm0,0" transform="translate(-504.777 -66.418)"/>
      <path id="Path_1527" data-name="Path 1527" d="M531.25,78.125h4.683v7.024H531.25Zm0,0" transform="translate(-451.642 -66.418)"/>
      <path id="Path_1528" data-name="Path 1528" d="M468.75,78.125h4.683v7.024H468.75Zm0,0" transform="translate(-398.508 -66.418)"/>
      <path id="Path_1529" data-name="Path 1529" d="M687.5,812.5h4.683v4.683H687.5Zm0,0" transform="translate(-584.478 -690.747)"/>
    </g>
  </g>
</svg>
