<svg xmlns="http://www.w3.org/2000/svg" width="82.561" height="20.003" viewBox="0 0 82.561 20.003">
  <g id="paypal" transform="translate(-0.002)">
    <path id="Path_1997" data-name="Path 1997" d="M174.35,386.87h5.642c3.029,0,4.17,1.534,3.993,3.787-.291,3.72-2.54,5.777-5.522,5.777h-1.506c-.409,0-.684.271-.8,1l-.639,4.267c-.042.277-.188.437-.406.459h-3.545c-.333,0-.451-.255-.364-.807l2.161-13.68A.86.86,0,0,1,174.35,386.87Z" transform="translate(-167.144 -382.162)" fill="#009ee3" fill-rule="evenodd"/>
    <path id="Path_1998" data-name="Path 1998" d="M317.4,385.13c1.9,0,3.66,1.033,3.42,3.606-.291,3.058-1.93,4.751-4.515,4.758h-2.259c-.325,0-.482.265-.567.808l-.437,2.777c-.066.419-.281.626-.6.626h-2.1c-.335,0-.451-.214-.377-.693l1.735-11.131c.086-.548.291-.751.666-.751h5.03Zm-3.422,5.959h1.711c1.07-.041,1.781-.782,1.852-2.119a1.293,1.293,0,0,0-1.4-1.413l-1.611.007-.552,3.524Zm12.555,5.764c.192-.175.387-.265.36-.05l-.068.516c-.035.269.071.412.322.412h1.867c.315,0,.468-.127.545-.613l1.151-7.221c.058-.363-.031-.54-.306-.54h-2.053c-.185,0-.275.1-.323.386l-.076.444c-.039.232-.146.272-.245.039-.348-.824-1.236-1.194-2.476-1.165a5.139,5.139,0,0,0-5.029,5.048,3.47,3.47,0,0,0,3.44,3.87,3.693,3.693,0,0,0,2.9-1.121h0Zm-1.564-1.111a1.876,1.876,0,0,1-1.924-2.2,2.68,2.68,0,0,1,2.578-2.2,1.876,1.876,0,0,1,1.924,2.2,2.679,2.679,0,0,1-2.578,2.2Zm9.393-6.408h-1.893c-.39,0-.549.291-.425.65l2.351,6.883-2.305,3.275c-.194.274-.044.523.229.523h2.128a.651.651,0,0,0,.632-.31l7.229-10.369c.223-.319.118-.654-.248-.654h-2.014c-.345,0-.483.137-.682.424l-3.015,4.369L335,389.745a.577.577,0,0,0-.638-.411Z" transform="translate(-285.698 -380.675)" fill="#113984" fill-rule="evenodd"/>
    <path id="Path_1999" data-name="Path 1999" d="M540.067,385.113c1.9,0,3.66,1.033,3.419,3.606-.291,3.058-1.93,4.751-4.515,4.758h-2.257c-.325,0-.482.265-.567.808l-.437,2.777c-.066.419-.281.626-.6.626h-2.1c-.335,0-.451-.214-.377-.693l1.737-11.134c.086-.548.291-.751.665-.751h5.03Zm-3.422,5.959h1.711c1.07-.041,1.781-.782,1.852-2.119a1.293,1.293,0,0,0-1.4-1.413l-1.611.007-.552,3.524Zm12.555,5.764c.192-.175.387-.265.36-.049l-.068.516c-.035.269.071.412.322.412h1.867c.315,0,.468-.127.545-.613l1.15-7.221c.058-.363-.031-.54-.306-.54h-2.051c-.185,0-.275.1-.323.386l-.076.444c-.039.232-.146.272-.245.039-.348-.824-1.237-1.194-2.476-1.165a5.139,5.139,0,0,0-5.029,5.048,3.47,3.47,0,0,0,3.44,3.87,3.693,3.693,0,0,0,2.9-1.121h0Zm-1.563-1.111a1.876,1.876,0,0,1-1.924-2.2,2.68,2.68,0,0,1,2.578-2.2,1.876,1.876,0,0,1,1.924,2.2,2.68,2.68,0,0,1-2.578,2.2Zm8.611,2h-2.155a.255.255,0,0,1-.264-.291l1.893-11.995a.371.371,0,0,1,.358-.291h2.155a.255.255,0,0,1,.264.291l-1.893,11.995a.371.371,0,0,1-.358.294Z" transform="translate(-475.94 -380.658)" fill="#009ee3" fill-rule="evenodd"/>
    <path id="Path_2000" data-name="Path 2000" d="M147.157,354.54h5.648c1.59,0,3.478.051,4.739,1.165a3.828,3.828,0,0,1,1.184,3.2c-.347,4.312-2.926,6.728-6.386,6.728h-2.785c-.475,0-.788.315-.922,1.165l-.778,4.952c-.051.32-.189.51-.437.533h-3.485c-.386,0-.523-.291-.422-.935l2.5-15.871A1,1,0,0,1,147.157,354.54Z" transform="translate(-143.48 -354.54)" fill="#113984" fill-rule="evenodd"/>
    <path id="Path_2001" data-name="Path 2001" d="M179.43,393.913l.986-6.243a.863.863,0,0,1,.983-.81h5.642a5.5,5.5,0,0,1,2.281.415c-.567,3.839-3.05,5.971-6.3,5.971h-2.78A.822.822,0,0,0,179.43,393.913Z" transform="translate(-174.193 -382.153)" fill="#172c70" fill-rule="evenodd"/>
  </g>
</svg>
