<svg xmlns="http://www.w3.org/2000/svg" width="22.496" height="14.997" viewBox="0 0 22.496 14.997">
  <g id="phones99" transform="translate(0 -4)">
    <path id="Path_1918" data-name="Path 1918" d="M12.654,22.5H2.343A2.345,2.345,0,0,1,0,20.153V2.343A2.345,2.345,0,0,1,2.343,0H12.654A2.345,2.345,0,0,1,15,2.343V20.153A2.345,2.345,0,0,1,12.654,22.5ZM2.343.937A1.408,1.408,0,0,0,.937,2.343V20.153a1.408,1.408,0,0,0,1.406,1.406H12.654a1.408,1.408,0,0,0,1.406-1.406V2.343A1.408,1.408,0,0,0,12.654.937Z" transform="translate(0 18.997) rotate(-90)" fill="#00124e"/>
    <path id="Path_1919" data-name="Path 1919" d="M7.03,2.812H3.281A1.408,1.408,0,0,1,1.875,1.406.47.47,0,0,0,1.406.937H.469A.469.469,0,0,1,.469,0h.937A1.408,1.408,0,0,1,2.812,1.406a.47.47,0,0,0,.469.469H7.03A.47.47,0,0,0,7.5,1.406,1.408,1.408,0,0,1,8.9,0h.937a.469.469,0,1,1,0,.937H8.9a.47.47,0,0,0-.469.469A1.408,1.408,0,0,1,7.03,2.812Z" transform="translate(0 16.654) rotate(-90)" fill="#00124e"/>
    <path id="Path_1920" data-name="Path 1920" d="M11.749,13.516A3.749,3.749,0,1,1,15.5,9.766,3.753,3.753,0,0,1,11.749,13.516Zm0-6.561a2.812,2.812,0,1,0,2.812,2.812A2.815,2.815,0,0,0,11.749,6.954Z" transform="translate(-0.501 -0.126)" fill="#00124e"/>
    <path id="Path_1921" data-name="Path 1921" d="M13.718,17.633a.469.469,0,0,1-.281-.094l-1.593-1.2-1.593,1.2a.472.472,0,0,1-.49.044.466.466,0,0,1-.26-.419v-4.3a.469.469,0,0,1,.937,0v3.358l1.125-.844a.47.47,0,0,1,.562,0l1.125.844V12.869a.469.469,0,1,1,.937,0v4.3a.469.469,0,0,1-.259.419A.464.464,0,0,1,13.718,17.633Z" transform="translate(-0.595 -0.526)" fill="#00124e"/>
  </g>
</svg>
