<svg xmlns="http://www.w3.org/2000/svg" width="20" height="15" viewBox="0 0 20 15">
  <g id="Reality99" transform="translate(0 -4)">
    <path id="Path_1929" data-name="Path 1929" d="M11.417,16A.417.417,0,0,1,11,15.583V11.417A.417.417,0,0,1,11.417,11h1.25a1.667,1.667,0,0,1,0,3.333h-.833v1.25A.417.417,0,0,1,11.417,16Zm.417-2.5h.833a.833.833,0,0,0,0-1.667h-.833Z" transform="translate(-1.833 -1.167)" fill="#00124e"/>
    <path id="Path_1930" data-name="Path 1930" d="M14.083,16.5a.419.419,0,0,1-.3-.122l-1.667-1.667a.417.417,0,1,1,.589-.589l1.667,1.667a.416.416,0,0,1-.294.711Z" transform="translate(-2 -1.667)" fill="#00124e"/>
    <path id="Path_1931" data-name="Path 1931" d="M6.667,16a.417.417,0,0,1-.4-.3l-1.25-4.167a.417.417,0,0,1,.8-.24l.851,2.837L7.517,11.3a.417.417,0,1,1,.8.24L7.066,15.7A.417.417,0,0,1,6.667,16Z" transform="translate(-0.833 -1.167)" fill="#00124e"/>
    <path id="Path_1932" data-name="Path 1932" d="M18.25,13.5a1.25,1.25,0,1,1,1.25-1.25A1.252,1.252,0,0,1,18.25,13.5Zm0-1.667a.417.417,0,1,0,.417.417A.417.417,0,0,0,18.25,11.833Z" transform="translate(-2.833 -1.167)" fill="#00124e"/>
    <path id="Path_1933" data-name="Path 1933" d="M17.917,19.667H12.642a.417.417,0,0,1-.4-.285l-.367-1.1a.424.424,0,0,0-.4-.282H8.517a.425.425,0,0,0-.4.287l-.365,1.094a.417.417,0,0,1-.395.285H2.083A2.086,2.086,0,0,1,0,17.583v-7.5A2.086,2.086,0,0,1,2.083,8H17.917A2.086,2.086,0,0,1,20,10.083v7.5a2.086,2.086,0,0,1-2.083,2.083Zm-4.975-.833h4.975a1.252,1.252,0,0,0,1.25-1.25v-7.5a1.252,1.252,0,0,0-1.25-1.25H2.083a1.252,1.252,0,0,0-1.25,1.25v7.5a1.252,1.252,0,0,0,1.25,1.25H7.058l.272-.815a1.261,1.261,0,0,1,1.187-.852h2.967a1.26,1.26,0,0,1,1.185.846Z" transform="translate(0 -0.667)" fill="#00124e"/>
    <path id="Path_1934" data-name="Path 1934" d="M17.583,8.167a.417.417,0,0,1-.417-.417V6.083a1.252,1.252,0,0,0-1.25-1.25H5.083a1.252,1.252,0,0,0-1.25,1.25V7.75A.417.417,0,0,1,3,7.75V6.083A2.086,2.086,0,0,1,5.083,4H15.917A2.086,2.086,0,0,1,18,6.083V7.75A.417.417,0,0,1,17.583,8.167Z" transform="translate(-0.5)" fill="#00124e"/>
  </g>
</svg>
