<svg xmlns="http://www.w3.org/2000/svg" width="40" height="40" viewBox="0 0 40 40">
  <g id="Shipping" transform="translate(-1 -1)">
    <g id="Group_1687" data-name="Group 1687" transform="translate(1 1)">
      <path id="Path_1996" data-name="Path 1996" d="M36.8,1H5.2A4.21,4.21,0,0,0,1,5.2V36.8A4.21,4.21,0,0,0,5.2,41H36.8A4.21,4.21,0,0,0,41,36.8V5.2A4.21,4.21,0,0,0,36.8,1ZM25,3.667v9.842l-3.4-1.7a1.335,1.335,0,0,0-1.193,0l-3.4,1.7V3.667ZM38.333,36.8A1.54,1.54,0,0,1,36.8,38.333H5.2A1.54,1.54,0,0,1,3.667,36.8V5.2A1.54,1.54,0,0,1,5.2,3.667h9.129v12a1.334,1.334,0,0,0,1.93,1.193L21,14.491l4.737,2.369a1.334,1.334,0,0,0,1.93-1.193v-12H36.8A1.54,1.54,0,0,1,38.333,5.2Z" transform="translate(-1 -1)"/>
      <path id="Path_1997" data-name="Path 1997" d="M17,21H6.333a1.333,1.333,0,0,0,0,2.666H17A1.333,1.333,0,0,0,17,21Z" transform="translate(0.332 5.667)"/>
      <path id="Path_1998" data-name="Path 1998" d="M13,25H6.333a1.333,1.333,0,0,0,0,2.666H13A1.333,1.333,0,0,0,13,25Z" transform="translate(0.332 7.003)"/>
    </g>
  </g>
</svg>
