<svg xmlns="http://www.w3.org/2000/svg" width="21.505" height="15.005" viewBox="0 0 21.505 15.005">
  <path id="size" d="M20.721,87.334l-8.139-5.641a3.193,3.193,0,0,0-1.2-.509v-.65A2.5,2.5,0,1,0,8.234,78.12a.63.63,0,0,0,1.259,0,1.26,1.26,0,1,1,1.259,1.247.627.627,0,0,0-.63.623v1.194a3.192,3.192,0,0,0-1.2.509L.784,87.334a1.81,1.81,0,0,0,1.05,3.3H19.672a1.81,1.81,0,0,0,1.05-3.3Zm-1.05,2.05H1.834a.564.564,0,0,1-.327-1.028l8.139-5.641a1.947,1.947,0,0,1,2.215,0L20,88.356a.564.564,0,0,1-.327,1.028Z" transform="translate(0 -75.626)" fill="#fd4949"/>
</svg>
