<svg xmlns="http://www.w3.org/2000/svg" width="17.308" height="11.999" viewBox="0 0 17.308 11.999">
  <g id="Track99" transform="translate(0 -78.521)">
    <g id="Group_1585" data-name="Group 1585" transform="translate(10.89 86.157)">
      <g id="Group_1584" data-name="Group 1584">
        <path id="Path_1903" data-name="Path 1903" d="M324.333,304.4a2.182,2.182,0,1,0,2.182,2.182A2.184,2.184,0,0,0,324.333,304.4Zm0,3.273a1.091,1.091,0,1,1,1.091-1.091A1.092,1.092,0,0,1,324.333,307.676Z" transform="translate(-322.151 -304.403)" fill="#fff"/>
      </g>
    </g>
    <g id="Group_1587" data-name="Group 1587" transform="translate(3.436 86.157)">
      <g id="Group_1586" data-name="Group 1586">
        <path id="Path_1904" data-name="Path 1904" d="M103.829,304.4a2.182,2.182,0,1,0,2.182,2.182A2.184,2.184,0,0,0,103.829,304.4Zm0,3.273a1.091,1.091,0,1,1,1.091-1.091A1.092,1.092,0,0,1,103.829,307.676Z" transform="translate(-101.647 -304.403)" fill="#fff"/>
      </g>
    </g>
    <g id="Group_1589" data-name="Group 1589" transform="translate(11.181 79.612)">
      <g id="Group_1588" data-name="Group 1588">
        <path id="Path_1905" data-name="Path 1905" d="M334.116,111.09a.546.546,0,0,0-.487-.3h-2.873v1.091h2.536l1.485,2.954.975-.49Z" transform="translate(-330.756 -110.79)" fill="#fff"/>
      </g>
    </g>
    <g id="Group_1591" data-name="Group 1591" transform="translate(7.309 87.811)">
      <g id="Group_1590" data-name="Group 1590">
        <rect id="Rectangle_1137" data-name="Rectangle 1137" width="4.127" height="1.091" fill="#fff"/>
      </g>
    </g>
    <g id="Group_1593" data-name="Group 1593" transform="translate(1.545 87.811)">
      <g id="Group_1592" data-name="Group 1592">
        <path id="Path_1906" data-name="Path 1906" d="M48.151,353.345H46.26a.545.545,0,1,0,0,1.091h1.891a.545.545,0,1,0,0-1.091Z" transform="translate(-45.715 -353.345)" fill="#fff"/>
      </g>
    </g>
    <g id="Group_1595" data-name="Group 1595" transform="translate(1.545 78.521)">
      <g id="Group_1594" data-name="Group 1594">
        <path id="Path_1907" data-name="Path 1907" d="M61.363,84.477,60.29,83.1a.545.545,0,0,0-.431-.211H55.9V79.066a.545.545,0,0,0-.545-.545H46.26a.545.545,0,1,0,0,1.091h8.545V83.43a.545.545,0,0,0,.545.545h4.242L60.387,85v2.813H58.878a.545.545,0,0,0,0,1.091h2.054a.545.545,0,0,0,.545-.545V84.812A.546.546,0,0,0,61.363,84.477Z" transform="translate(-45.715 -78.521)" fill="#fff"/>
      </g>
    </g>
    <g id="Group_1597" data-name="Group 1597" transform="translate(0.891 85.048)">
      <g id="Group_1596" data-name="Group 1596">
        <path id="Path_1908" data-name="Path 1908" d="M29.407,271.6H26.9a.545.545,0,1,0,0,1.091h2.509a.545.545,0,0,0,0-1.091Z" transform="translate(-26.353 -271.597)" fill="#fff"/>
      </g>
    </g>
    <g id="Group_1599" data-name="Group 1599" transform="translate(0 82.903)">
      <g id="Group_1598" data-name="Group 1598">
        <path id="Path_1909" data-name="Path 1909" d="M5.2,208.134H.545a.545.545,0,0,0,0,1.091H5.2a.545.545,0,0,0,0-1.091Z" transform="translate(0 -208.134)" fill="#fff"/>
      </g>
    </g>
    <g id="Group_1601" data-name="Group 1601" transform="translate(0.891 80.757)">
      <g id="Group_1600" data-name="Group 1600">
        <path id="Path_1910" data-name="Path 1910" d="M31.553,144.672H26.9a.545.545,0,1,0,0,1.091h4.654a.545.545,0,0,0,0-1.091Z" transform="translate(-26.353 -144.672)" fill="#fff"/>
      </g>
    </g>
  </g>
</svg>
