<svg xmlns="http://www.w3.org/2000/svg" width="15.75" height="15" viewBox="0 0 15.75 15">
  <g id="tv99" transform="translate(-1.5 -2.5)">
    <path id="Path_1927" data-name="Path 1927" d="M10.109,9.582a.375.375,0,0,0-.609.293v6a.375.375,0,0,0,.609.293l3.75-3a.375.375,0,0,0,0-.586Zm2.915,3.293-2.775,2.22v-4.44Z" transform="translate(-2 -1.75)" fill="#00124e" fill-rule="evenodd"/>
    <path id="Path_1928" data-name="Path 1928" d="M3.11,2.61a.375.375,0,0,1,.53,0L5.625,4.595,7.61,2.61a.375.375,0,1,1,.53.53L6.53,4.75h8.845A1.875,1.875,0,0,1,17.25,6.625v9A1.875,1.875,0,0,1,15.375,17.5h-12A1.875,1.875,0,0,1,1.5,15.625v-9A1.875,1.875,0,0,1,3.375,4.75H4.72L3.11,3.14A.375.375,0,0,1,3.11,2.61ZM3.375,5.5A1.125,1.125,0,0,0,2.25,6.625v9A1.125,1.125,0,0,0,3.375,16.75h12A1.125,1.125,0,0,0,16.5,15.625v-9A1.125,1.125,0,0,0,15.375,5.5Z" fill="#00124e" fill-rule="evenodd"/>
  </g>
</svg>
