<?xml version="1.0" standalone="no"?>
<!DOCTYPE svg PUBLIC "-//W3C//DTD SVG 1.0//EN" "http://www.w3.org/TR/2001/REC-SVG-20010904/DTD/svg10.dtd">
<svg xmlns="http://www.w3.org/2000/svg" xmlns:xlink="http://www.w3.org/1999/xlink" id="body_1" width="29" height="22">

<g transform="matrix(0.040446304 0 0 0.040892195 0 0)">
	<g transform="matrix(1.2039297 0 0 1.2039297 89.500015 -0)">
        <path d="M400.9 100.035C 407.5 97.235 418.6 52.535004 412.69998 55.035004C 405.59998 58.035004 388.49997 85.935005 381.9 90.035C 380.3 86.635 377.69998 83.635 374.4 81.735C 372 80.335 369.4 72.935 367.9 70.435C 364.9 65.634995 361.69998 60.934998 358 56.635L358 56.635L357.6 56.135L357.1 55.734997C 337.7 38.134995 312.6 28.434998 286.40002 28.434998C 266.50003 28.434998 247.20003 33.934998 230.70003 44.335C 199.70003 63.835 181.20003 97.134995 181.20003 133.63501L181.20003 133.63501L181.20003 136.93501C 151.60002 128.23502 126.70003 113.13501 109.10003 93.335014L109.10003 93.335014L108.90003 93.13502L85.60004 69.83502L82.200035 88.635025C 78.80003 107.33502 84.90003 129.13503 100.90004 155.03503C 97.40004 153.53503 92.00004 151.33504 83.60004 148.03503C 78.50004 145.93503 73.10004 143.83504 68.60004 142.03503L68.60004 142.03503L53.300037 135.73503L54.900036 152.23503C 57.000034 174.23503 74.10004 196.33502 88.00003 210.93503L88.00003 210.93503L88.50003 211.43503L89.00003 211.83502C 90.60003 213.13503 92.10003 214.63503 93.80003 216.33502C 95.60004 218.13503 97.50003 220.03502 99.80003 221.93503L99.80003 221.93503L99.90003 222.03503C 99.90003 222.03503 99.90003 222.13504 100.00003 222.13504L100.00003 222.13504L100.70003 223.63504L101.800026 224.73505C 102.00002 224.93504 102.20003 225.13504 102.400024 225.33505C 97.800026 224.73505 90.20003 223.93506 77.300026 222.63506C 72.70003 222.13506 68.20003 221.73506 64.400024 221.33505L64.400024 221.33505L47.900024 219.63506L54.100025 235.03505C 56.400024 240.83505 59.700024 245.83505 64.300026 250.43504L64.300026 250.43504L64.50002 250.73505L64.800026 250.93504C 82.800026 266.63504 109.900024 279.53503 131.60004 290.03503L131.60004 290.03503L137.20004 292.73505L137.80005 292.93506C 138.30005 293.13507 139.30005 293.53506 140.10005 294.03506C 141.30005 294.63507 142.60005 295.33505 144.10005 295.83505C 144.10005 295.93506 144.20006 296.03506 144.20006 296.23505L144.20006 296.23505L146.50006 303.03503L147.60007 303.03503C 117.60007 319.83502 83.50007 328.63504 48.600067 328.63504C 42.600067 328.63504 36.600067 328.33505 30.700068 327.83505L30.700068 327.83505L3.300068 325.43506L22.800068 344.93506C 24.200068 346.33505 25.700068 347.93506 27.200068 349.73505C 28.900068 351.63504 30.600067 353.53503 32.50007 355.43506L32.50007 355.43506L32.70007 355.63507C 74.10007 394.53506 128.30006 415.93506 185.10007 415.93506C 307.10007 415.93506 406.30005 316.73505 406.30005 194.73506C 406.30005 173.43506 405.20004 158.13507 398.90005 137.73506C 410.70004 134.43506 422.20004 124.23506 430.20004 115.035065L430.20004 115.035065L434.50003 94.33507C 434.2 94.035 401.6 99.635 400.9 100.035z" stroke="none" fill="#1D9AAE" fill-rule="nonzero" />
        <path d="M384.5 123.135C 384.7 122.835 385.2 122.235 386.1 121.935005C 397.7 119.035 415.5 104.435005 423.30002 95.535L423.30002 95.535L407.90002 97.235C 404.40002 100.135 401.80002 100.735 401.30002 100.835L401.30002 100.835L401 100.835L400.5 100.935C 400.3 100.935 396.4 99.335 396.5 99.235C 416.3 77.735 408 58.835 408.3 56.235C 404.09998 59.035 380 88.335 375.09998 89.935L375.09998 89.935L375 89.935L374.9 90.034996C 372 91.134995 371.1 88.634995 369.8 86.73499C 367.59998 83.634995 367.59998 78.23499 365.4 75.034996C 360.1 67.335 353.69998 61.234997 347 54.534996L347 54.534996L346.8 54.334995L346.59998 54.134995C 328.09998 37.334995 304.19998 28.034994 279.19998 28.034994C 260.19998 28.034994 241.79999 33.234993 226.09998 43.234993C 199.79997 59.83499 182.29997 87.83499 179.39998 118.83499C 178.89998 123.83499 178.99998 128.83499 178.99998 133.83499C 178.99998 135.435 178.39998 135.83499 177.99998 136.03499C 176.59999 136.93498 175.79999 137.135 175.49998 137.135C 175.39998 137.135 175.29999 137.135 175.19998 137.03499L175.19998 137.03499L174.99998 136.93498C 143.49998 128.03499 116.89999 112.234985 98.19998 91.234985L98.19998 91.234985L98.09998 91.13499L81.69998 74.734985L79.999985 84.13499C 77.59998 97.334984 80.499985 110.734985 85.59998 122.93498C 88.19998 129.03499 91.19998 134.93498 94.499985 140.73499C 95.999985 143.33499 104.69998 154.43498 101.19998 156.83499C 100.69998 157.135 99.999985 157.435 99.09998 157.435C 98.69998 157.435 97.999985 157.33499 97.499985 157.035L97.499985 157.035L97.39999 156.935L97.29999 156.83499C 95.499985 155.635 89.29999 153.135 74.59999 147.23499C 69.399994 145.13498 64.09999 143.03499 59.59999 141.13498L59.59999 141.13498L51.89999 137.93498L52.69999 146.23499C 54.69999 166.83499 71.09999 187.93498 84.499985 202.03499L84.499985 202.03499L84.69998 202.23499L84.999985 202.43498C 86.79999 203.83498 88.39999 205.53499 90.19998 207.23499C 92.69998 209.73499 107.39998 221.23499 104.79998 224.53499C 103.89998 225.635 102.79998 226.135 102.09998 226.135C 101.89999 226.135 101.69998 226.03499 101.59998 226.03499L101.59998 226.03499L101.29998 225.83499L100.99998 225.73499C 98.99998 225.03499 91.79998 224.23499 69.69998 222.03499C 65.09998 221.53499 60.599983 221.135 56.69998 220.73499L56.69998 220.73499L48.49998 219.83499C 51.69998 227.73499 54.59998 235.135 60.69998 241.23499L60.69998 241.23499L60.79998 241.33499L60.89998 241.435C 72.79998 251.83499 82.99998 263.035 97.19998 270.235C 104.89998 274.13498 113.79998 281.03497 121.499985 284.935C 128.59999 288.535 137.19998 287.335 143.39998 292.135C 145.39998 293.73502 153.19998 294.535 148.49998 298.33502C 140.29999 305.03503 130.19998 309.03503 120.29999 312.635C 109.999985 316.435 99.79999 319.935 89.09999 322.435C 62.499992 328.635 36.19999 328.335 9.099991 325.935L9.099991 325.935L18.799992 335.635C 20.299992 337.135 21.799992 338.83502 23.399992 340.635C 24.999992 342.435 26.699991 344.33502 28.399992 346.035L28.399992 346.035L28.499992 346.135C 68.99999 384.135 121.899994 405.135 177.5 405.135C 296.7 405.135 390.3 309.035 390.3 189.835C 390.3 168.335 385 148.035 383.8 125.73501C 383.8 125.33501 383.59998 125.23501 384.3 123.435005C 384.3 123.435 384.4 123.335 384.5 123.135z" stroke="none" fill="#6CD3D8" fill-rule="nonzero" />
        <path d="M170 126.235C 171.6 89.435 190.8 56.635002 222 37.434998C 239.6 26.234997 260.4 20.634998 281.2 20.634998C 310.80002 20.634998 338.80002 31.835 359.6 52.635C 366.80002 59.835 373.2 68.634995 378.80002 77.435C 385.2 72.634995 390.00003 65.435 395.6 59.034996C 399.6 54.234997 403.6 48.634995 407.6 45.434998C 410 43.835 412.4 43.034996 414.80002 43.835C 417.2 44.635 422.00003 47.035 423.6 55.035C 425.2 63.035 423.6 75.035 419.6 86.235C 426.80002 84.635 434 83.035 436.4 82.235C 438.8 81.435 441.19998 82.235 443.6 83.035C 446 84.635 446.80002 86.235 446.80002 89.435005C 447.6 95.83501 442.00003 127.035 407.6 140.63501C 412.4 159.835 415.6 179.835 415.6 199.035C 415.6 324.635 313.2 426.235 188.40001 426.235C 113.20001 426.235 43.600006 389.435 1.2000122 327.835C -0.39998782 325.435 -0.39998782 321.435 1.2000122 319.035C 2.800012 316.635 6.0000124 315.035 9.200012 315.835C 50.80001 323.835 94.80001 318.235 132.40001 299.035C 93.20001 280.635 43.600006 255.835 42.000008 219.035C 42.000008 216.63501 42.800007 215.035 44.40001 213.435C 46.00001 211.83499 47.60001 211.035 50.000008 211.035C 53.20001 211.035 68.40001 211.835 82.8 213.435C 63.600002 193.435 40.4 163.035 46.800003 134.235C 47.600002 131.835 49.200005 130.235 50.800003 128.635C 53.200005 127.83499 55.600002 127.034996 57.200005 128.635C 57.200005 128.635 70.8 134.235 83.600006 139.03499C 69.200005 109.43499 68.40001 84.63499 80.40001 63.83499C 82.00001 61.43499 84.40001 59.83499 87.600006 59.83499C 90.8 59.83499 93.200005 61.43499 94.8 63.83499C 98 69.43499 100.4 73.43499 103.600006 78.23499C 118 99.835 142 116.635 170 126.235zM186 136.635C 186 139.03499 185.2 141.435 182.8 143.03499C 180.40001 144.635 178 145.43498 175.6 144.635C 139.6 135.03499 109.200005 115.034996 88.40001 88.634995C 87.600006 87.83499 87.600006 87.034996 86.80001 86.23499C 83.60001 104.634995 90.00001 126.23499 106.80001 152.635C 109.20001 155.83499 108.40001 159.83499 106.00001 163.03499C 103.600006 165.43498 98.80001 166.23499 95.600006 163.83499C 93.200005 162.23499 72.40001 154.23499 58.800007 148.635C 61.20001 171.83499 85.200005 199.035 108.40001 219.035C 111.600006 221.435 112.40001 225.435 110.00001 229.435C 107.600006 232.635 103.600006 234.235 100.40001 232.635C 98.00001 231.83499 72.40001 229.435 57.20001 227.83499C 67.600006 252.635 111.600006 274.235 142.8 287.835C 145.2 288.63498 147.6 290.235 150 291.035C 153.2 291.835 154.8 295.035 155.6 297.435C 155.6 300.635 154.8 303.835 152.40001 305.435C 114.00001 328.635 68.40001 339.035 23.600006 335.035C 63.600006 383.035 122.8 411.035 186 411.035C 302.8 411.035 397.2 316.635 397.2 199.835C 397.2 179.035 394 158.23502 388.40002 138.23502C 387.60004 135.83502 388.40002 134.23502 389.2 131.83502C 390 130.23502 392.40002 128.63503 394 127.83502C 414 122.23502 422.8 110.23502 426.8 101.43502C 416.4 103.83502 404.4 105.43502 402.8 106.23502C 398.8 107.03503 395.59998 104.635025 394 101.43502C 392.4 98.23502 393.2 94.23502 396.4 91.83502C 401.19998 87.83502 404.4 78.23502 406 70.23502C 398.8 79.03503 390 90.23502 378 95.83502C 374 97.43502 370 96.635025 367.6 92.635025L367.6 92.635025L366.80002 90.23502C 366.00003 89.43502 366.00003 88.635025 365.2 87.03503C 360.40002 77.43503 354.80002 69.43503 347.6 63.035027C 329.2 45.435028 306 35.035027 280.40002 35.035027C 262.80002 35.035027 245.20003 39.835026 230.00003 49.435028C 202.00003 67.03503 185.20003 97.43503 185.20003 130.23503C 185.20003 131.03503 185.20003 131.83504 185.20003 133.43503L185.20003 133.43503L186 136.635z" stroke="none" fill="#42210B" fill-rule="nonzero" />
		<g>
		</g>
		<g>
		</g>
		<g>
		</g>
		<g>
		</g>
		<g>
		</g>
		<g>
		</g>
		<g>
		</g>
		<g>
		</g>
		<g>
		</g>
		<g>
		</g>
		<g>
		</g>
		<g>
		</g>
		<g>
		</g>
		<g>
		</g>
		<g>
		</g>
	</g>
</g>
</svg>