<svg id="Warranty" xmlns="http://www.w3.org/2000/svg" width="39.999" height="40" viewBox="0 0 39.999 40">
  <g id="Group_1688" data-name="Group 1688">
    <path id="Path_1999" data-name="Path 1999" d="M39.839,31.88,32.584,19.285A13.746,13.746,0,1,0,6.256,13.75a13.637,13.637,0,0,0,1.173,5.532L.174,31.875a1.251,1.251,0,0,0,1.408,1.833l7.34-1.975,1.953,7.338a1.247,1.247,0,0,0,1.042.917.953.953,0,0,0,.165.013,1.25,1.25,0,0,0,1.083-.625L20.006,27.53l6.843,11.845a1.249,1.249,0,0,0,2.29-.3l1.953-7.338,7.34,1.975a1.25,1.25,0,0,0,1.408-1.83ZM12.511,35.507l-1.5-5.628a1.258,1.258,0,0,0-.582-.762,1.274,1.274,0,0,0-.95-.125L3.846,30.507l5.025-8.723a13.763,13.763,0,0,0,8.422,5.445ZM8.756,13.75A11.25,11.25,0,1,1,20.006,25,11.264,11.264,0,0,1,8.756,13.75ZM30.531,28.995a1.261,1.261,0,0,0-.95.125,1.244,1.244,0,0,0-.583.763L27.5,35.51l-4.782-8.278a13.76,13.76,0,0,0,8.423-5.445l5.025,8.723Z" transform="translate(-0.006)"/>
  </g>
</svg>
