<svg xmlns="http://www.w3.org/2000/svg" width="15.122" height="17.996" viewBox="0 0 15.122 17.996">
  <g id="details_warranty" transform="translate(-17.112 0)">
    <path id="Path_3188" data-name="Path 3188" d="M32.214,4.634c-.009-.486-.018-.945-.018-1.389a.63.63,0,0,0-.63-.63A8.685,8.685,0,0,1,25.111.179a.63.63,0,0,0-.878,0,8.684,8.684,0,0,1-6.454,2.436.63.63,0,0,0-.63.63c0,.444-.009.9-.018,1.389-.086,4.522-.2,10.714,7.335,13.327a.629.629,0,0,0,.413,0C32.418,15.348,32.3,9.156,32.214,4.634ZM24.672,16.7C18.206,14.349,18.3,9.2,18.391,4.658c.005-.273.01-.537.014-.8a9.714,9.714,0,0,0,6.268-2.376,9.715,9.715,0,0,0,6.268,2.376c0,.259.009.523.014.8C31.041,9.2,31.139,14.349,24.672,16.7Z" transform="translate(0 0)" fill="#00124e"/>
    <path id="Path_3189" data-name="Path 3189" d="M73.932,79.071l-3.046,3.046-1.3-1.3a.631.631,0,0,0-.892.892l1.746,1.746a.631.631,0,0,0,.892,0l3.492-3.492a.631.631,0,0,0-.892-.892Z" transform="translate(-47.087 -72.264)" fill="#00124e"/>
  </g>
</svg>
