<svg xmlns="http://www.w3.org/2000/svg" width="18" height="18" viewBox="0 0 18 18">
  <path id="details_return" d="M20,11A9,9,0,1,1,2,11a.562.562,0,1,1,1.125,0A7.875,7.875,0,1,0,11,3.125a7.793,7.793,0,0,0-5.5,2.25H7.625a.563.563,0,0,1,0,1.125H4.25a.562.562,0,0,1-.562-.562V2.562a.562.562,0,1,1,1.125,0V4.481A8.9,8.9,0,0,1,11,2,9.01,9.01,0,0,1,20,11ZM16.063,8.75v5.062a.563.563,0,0,1-.365.527l-4.5,1.688a.567.567,0,0,1-.4,0L6.3,14.339a.563.563,0,0,1-.365-.527V8.75A.563.563,0,0,1,6.3,8.223l4.5-1.687a.569.569,0,0,1,.4,0l4.5,1.687A.563.563,0,0,1,16.063,8.75ZM8.1,8.75,11,9.837,13.9,8.75,11,7.663ZM7.062,13.423l3.375,1.266V10.828L7.062,9.562Zm7.875,0V9.562l-3.375,1.266v3.861Z" transform="translate(-2 -2)" fill="#00124e"/>
</svg>
