<svg xmlns="http://www.w3.org/2000/svg" width="17.366" height="14.998" viewBox="0 0 17.366 14.998">
  <g id="details_pickup" transform="translate(-3.646 -4.86)">
    <g id="Group_2673" data-name="Group 2673" transform="translate(1.53 4.86)">
      <path id="Path_3185" data-name="Path 3185" d="M19.867,4.861H5.347a.673.673,0,0,0,0,1.346h6.978v4.052a.675.675,0,0,0,.673.673h3.507a.675.675,0,0,0,.673-.673V6.207h2.688a.828.828,0,0,1,.827.827V17.685a.828.828,0,0,1-.827.827H9.215a.827.827,0,0,1-.826-.827v-7.4a.673.673,0,0,0-.673-.673H5.936a.673.673,0,1,0,0,1.346H7.042v6.727a2.175,2.175,0,0,0,2.173,2.173H19.867a2.176,2.176,0,0,0,2.173-2.173V7.034a2.176,2.176,0,0,0-2.173-2.173ZM15.833,9.586H13.672V6.207h2.161Z" transform="translate(-2.557 -4.86)" fill="#00124e"/>
      <path id="Path_3186" data-name="Path 3186" d="M1.944,9.735H4.5c.229,0,.414-.3.414-.673s-.185-.673-.414-.673H1.944c-.229,0-.414.3-.414.673S1.715,9.735,1.944,9.735Z" transform="translate(0.587 -6.013)" fill="#00124e"/>
      <path id="Path_3187" data-name="Path 3187" d="M24.021,22.592a.673.673,0,0,0,0-1.346h-2.1a.673.673,0,0,0,0,1.346Z" transform="translate(-7.973 -10.215)" fill="#00124e"/>
    </g>
  </g>
</svg>
