<?xml version="1.0" encoding="utf-8"?>
<!-- Generator: Adobe Illustrator 25.2.0, SVG Export Plug-In . SVG Version: 6.00 Build 0)  -->
<svg version="1.1" id="Layer_1" xmlns="http://www.w3.org/2000/svg" xmlns:xlink="http://www.w3.org/1999/xlink" x="0px" y="0px"
	 viewBox="0 0 127.3 144.29" style="enable-background:new 0 0 127.3 144.29;" xml:space="preserve">
<style type="text/css">
	.st0{fill:#FFFFFF;}
	.st1{fill:#F15C4A;}
</style>
<g>
	<path class="st0" d="M63.65,143.29c-1.36,0-2.7-0.36-3.88-1.04l-54.9-31.7C2.49,109.18,1,106.6,1,103.84V40.45
		c0-2.76,1.48-5.33,3.88-6.71l54.9-31.7C60.95,1.36,62.29,1,63.65,1c1.36,0,2.7,0.36,3.88,1.04l54.9,31.7
		c2.39,1.38,3.88,3.95,3.88,6.71v63.39c0,2.76-1.49,5.33-3.88,6.71l-54.9,31.7C66.35,142.93,65.01,143.29,63.65,143.29z"/>
	<path class="st1" d="M63.65,2c1.18,0,2.35,0.31,3.38,0.9l54.9,31.7c2.08,1.2,3.38,3.44,3.38,5.85v63.39c0,2.4-1.29,4.64-3.38,5.85
		l-54.9,31.7c-1.02,0.59-2.19,0.9-3.38,0.9c-1.18,0-2.35-0.31-3.38-0.9l-54.9-31.7c-2.08-1.2-3.38-3.44-3.38-5.85V40.45
		c0-2.4,1.29-4.64,3.38-5.85l54.9-31.7C61.3,2.31,62.47,2,63.65,2 M63.65,0c-1.51,0-3.02,0.39-4.38,1.17l-54.9,31.7
		C1.67,34.43,0,37.32,0,40.45v63.39c0,3.13,1.67,6.02,4.38,7.58l54.9,31.7c1.35,0.78,2.86,1.17,4.38,1.17
		c1.51,0,3.02-0.39,4.38-1.17l54.9-31.7c2.71-1.56,4.38-4.45,4.38-7.58V40.45c0-3.13-1.67-6.02-4.38-7.58l-54.9-31.7
		C66.67,0.39,65.16,0,63.65,0L63.65,0z"/>
</g>
</svg>
